<svg width="80" height="78" viewBox="0 0 80 78" fill="none" xmlns="http://www.w3.org/2000/svg">
<g filter="url(#filter0_d_2041_4461)">
<path d="M45.9396 35.1179C45.6661 36.0444 45.3116 36.9437 44.8806 37.805C44.5215 38.5344 43.8154 40.0431 42.8842 40.1242C41.6304 40.2364 42.9572 36.5269 43.1885 35.9097C43.2224 35.7719 43.2162 35.6269 43.1708 35.4926C43.1253 35.3583 43.0426 35.2406 42.9326 35.1538C42.8227 35.0671 42.6905 35.0151 42.5521 35.0043C42.4138 34.9935 42.2753 35.0243 42.1538 35.093C41.4688 35.5354 40.7618 35.9411 40.0358 36.3087C39.2263 36.7389 39.9384 37.9858 40.7479 37.5556L41.2531 37.2875C40.7722 39.0706 40.5836 41.2277 42.5434 41.5581C43.9189 41.7888 44.9779 40.6728 45.7935 39.2763C45.8667 39.6413 46.0448 39.9757 46.3048 40.2364C47.4125 41.3835 48.995 40.5232 49.3845 39.1952C49.4353 39.0101 49.4123 38.8118 49.3204 38.644C49.2285 38.4762 49.0753 38.3527 48.8945 38.3006C48.7137 38.2485 48.5202 38.2721 48.3564 38.3663C48.1926 38.4604 48.072 38.6173 48.0211 38.8025C47.8142 39.5194 47.0838 39.376 47.1325 38.6466C47.1995 37.6117 47.1325 36.5331 47.2969 35.5294C47.3501 35.345 47.3297 35.1466 47.2401 34.9776C47.1505 34.8087 46.9991 34.6831 46.8191 34.6285C46.6391 34.574 46.4453 34.5949 46.2804 34.6867C46.1154 34.7784 45.9929 34.9336 45.9396 35.1179Z" fill="#FDF6EC"/>
<path d="M61.4842 32.3873C61.539 31.583 60.4983 31.4833 60.1696 32.0568C59.1134 32.0705 58.0922 32.4464 57.2691 33.1245C56.446 33.8026 55.8686 34.7437 55.6291 35.7975C55.5328 36.1418 55.5152 36.5042 55.5777 36.8565C55.6402 37.2089 55.7811 37.5418 55.9894 37.8294C56.1978 38.117 56.4681 38.3516 56.7792 38.515C57.0904 38.6783 57.4341 38.766 57.7837 38.7713C58.2869 38.7765 58.784 38.6588 59.2339 38.4278C59.6838 38.1969 60.0734 37.8594 60.3704 37.4434L60.4739 37.5494C61.6547 38.6965 63.225 37.7676 63.7362 36.4708C64.0771 35.6042 62.7137 35.2239 62.3789 36.0843C62.1903 36.5705 61.3443 36.9072 61.2712 36.1591C61.2592 35.5776 61.2918 34.996 61.3686 34.4197C61.399 33.7277 61.4356 33.0543 61.4842 32.3873ZM57.2238 37.1503C56.5117 36.5269 57.2664 35.1242 57.6924 34.6192C58.3082 33.9713 59.1366 33.5804 60.0174 33.5219L59.9322 34.9808C59.9005 35.054 59.8799 35.1318 59.8714 35.2114C59.7618 36.1528 58.3193 38.0606 57.2299 37.1503H57.2238Z" fill="#FDF6EC"/>
<path d="M36.3231 50.2426C36.2846 50.2391 36.2458 50.2439 36.2093 50.2568C36.1728 50.2698 36.1393 50.2904 36.1112 50.3175C36.083 50.3446 36.0608 50.3775 36.0459 50.414C36.031 50.4505 36.0238 50.4898 36.0248 50.5294V52.0818C36.0248 52.1644 36.0569 52.2437 36.114 52.3022C36.171 52.3607 36.2484 52.3935 36.3292 52.3935C36.4099 52.3935 36.4873 52.3607 36.5443 52.3022C36.6014 52.2437 36.6335 52.1644 36.6335 52.0818V51.6765L37.2421 52.3C37.2699 52.329 37.303 52.3521 37.3396 52.3678C37.3762 52.3836 37.4155 52.3917 37.4551 52.3917C37.4948 52.3917 37.5341 52.3836 37.5707 52.3678C37.6073 52.3521 37.6404 52.329 37.6682 52.3C37.6975 52.2754 37.7211 52.2445 37.7373 52.2095C37.7535 52.1744 37.7619 52.1361 37.7619 52.0974C37.7619 52.0586 37.7535 52.0203 37.7373 51.9853C37.7211 51.9502 37.6975 51.9193 37.6682 51.8947L37.0778 51.2713L37.6438 50.7164C37.6731 50.6919 37.6967 50.661 37.7129 50.6259C37.7291 50.5909 37.7375 50.5526 37.7375 50.5138C37.7375 50.4751 37.7291 50.4368 37.7129 50.4017C37.6967 50.3667 37.6731 50.3358 37.6438 50.3112C37.5869 50.2541 37.5105 50.2221 37.4308 50.2221C37.3511 50.2221 37.2747 50.2541 37.2178 50.3112L36.6091 50.8848V50.4982C36.6029 50.426 36.5697 50.3591 36.5163 50.3114C36.463 50.2638 36.3938 50.2391 36.3231 50.2426Z" fill="#FDF6EC"/>
<path d="M39.7984 51.0282C39.7357 50.8051 39.637 50.5943 39.5063 50.4047C39.4498 50.3429 39.3807 50.2946 39.3039 50.2633C39.2271 50.2321 39.1444 50.2186 39.062 50.2239C38.9933 50.2139 38.9236 50.2139 38.855 50.2239C38.7822 50.2478 38.715 50.2866 38.6574 50.3381C38.5999 50.3895 38.5532 50.4525 38.5203 50.5232C38.405 50.767 38.3074 51.0191 38.2281 51.2775L37.9968 51.9633C37.9827 51.9996 37.9765 52.0386 37.9786 52.0776C37.9807 52.1166 37.9911 52.1546 38.0091 52.1891C38.0271 52.2235 38.0522 52.2535 38.0826 52.277C38.1131 52.3004 38.1482 52.3168 38.1855 52.3249C38.2222 52.3398 38.2614 52.3468 38.3009 52.3457C38.3403 52.3446 38.3791 52.3353 38.4149 52.3184C38.4508 52.3015 38.4829 52.2774 38.5093 52.2474C38.5358 52.2175 38.5561 52.1823 38.569 52.1441L38.6481 51.9135H39.4697L39.555 52.1441C39.5678 52.1823 39.5881 52.2175 39.6146 52.2474C39.641 52.2774 39.6731 52.3015 39.709 52.3184C39.7448 52.3353 39.7836 52.3446 39.823 52.3457C39.8625 52.3468 39.9017 52.3398 39.9384 52.3249C39.9757 52.3168 40.0108 52.3004 40.0413 52.277C40.0717 52.2535 40.0968 52.2235 40.1148 52.1891C40.1328 52.1546 40.1432 52.1166 40.1453 52.0776C40.1474 52.0386 40.1412 51.9996 40.1271 51.9633L39.8958 51.2775C39.8471 51.1778 39.8167 51.0843 39.7984 51.0282ZM38.8124 51.4895L39.062 50.8037L39.3115 51.4895H38.8124Z" fill="#FDF6EC"/>
<path d="M42.1843 51.0344C42.1217 50.8113 42.023 50.6005 41.8921 50.411C41.8357 50.3491 41.7666 50.3008 41.6898 50.2695C41.6129 50.2383 41.5303 50.2248 41.4478 50.2302C41.3792 50.2202 41.3095 50.2202 41.2409 50.2302C41.1681 50.254 41.1009 50.2928 41.0433 50.3443C40.9857 50.3958 40.939 50.4588 40.9061 50.5294C40.791 50.7732 40.6933 51.0254 40.614 51.2838L40.3827 51.9696C40.3686 52.0058 40.3623 52.0448 40.3645 52.0838C40.3666 52.1228 40.377 52.1608 40.395 52.1953C40.4129 52.2297 40.438 52.2597 40.4685 52.2832C40.499 52.3067 40.5341 52.323 40.5714 52.3312C40.6081 52.346 40.6473 52.3531 40.6867 52.3519C40.7262 52.3508 40.765 52.3415 40.8008 52.3246C40.8366 52.3077 40.8687 52.2836 40.8952 52.2536C40.9217 52.2237 40.942 52.1886 40.9548 52.1504L41.4478 50.7725L41.9408 52.1504C41.9537 52.1886 41.974 52.2237 42.0004 52.2536C42.0269 52.2836 42.059 52.3077 42.0948 52.3246C42.1307 52.3415 42.1695 52.3508 42.2089 52.3519C42.2483 52.3531 42.2876 52.346 42.3243 52.3312C42.3616 52.323 42.3967 52.3067 42.4271 52.2832C42.4576 52.2597 42.4827 52.2297 42.5007 52.1953C42.5187 52.1608 42.5291 52.1228 42.5312 52.0838C42.5333 52.0448 42.5271 52.0058 42.5129 51.9696L42.2817 51.2838C42.2391 51.1778 42.2086 51.0905 42.1843 51.0344Z" fill="#FDF6EC"/>
<path d="M43.0485 50.2426C43.0101 50.2391 42.9713 50.2439 42.9348 50.2569C42.8983 50.2698 42.8648 50.2904 42.8366 50.3175C42.8085 50.3446 42.7862 50.3775 42.7713 50.414C42.7565 50.4505 42.7493 50.4899 42.7503 50.5294V52.0818C42.7493 52.1213 42.7565 52.1607 42.7713 52.1972C42.7862 52.2337 42.8085 52.2666 42.8366 52.2937C42.8648 52.3208 42.8983 52.3414 42.9348 52.3543C42.9713 52.3672 43.0101 52.3721 43.0485 52.3686H43.8641C44.0505 52.3751 44.2326 52.3107 44.3754 52.1878C44.4427 52.1273 44.4961 52.0523 44.5319 51.9683C44.5676 51.8842 44.5849 51.7931 44.5823 51.7015C44.5869 51.6129 44.5711 51.5244 44.5362 51.4432C44.5013 51.362 44.4483 51.2903 44.3815 51.2339C44.2357 51.118 44.0546 51.0584 43.8702 51.0656H43.359V50.5356C43.3611 50.4944 43.3544 50.4532 43.3392 50.4149C43.324 50.3767 43.3007 50.3423 43.2711 50.3143C43.2414 50.2863 43.2061 50.2654 43.1676 50.253C43.1292 50.2406 43.0885 50.2371 43.0485 50.2426ZM43.7728 51.5207C43.8946 51.5207 43.9737 51.583 43.9737 51.689C43.9737 51.795 43.8946 51.8511 43.7728 51.8511H43.3529V51.5207H43.7728Z" fill="#FDF6EC"/>
<path d="M46.2317 52.3686C46.2702 52.3721 46.309 52.3673 46.3455 52.3543C46.382 52.3414 46.4155 52.3208 46.4436 52.2937C46.4718 52.2666 46.4941 52.2337 46.5089 52.1972C46.5238 52.1607 46.531 52.1213 46.53 52.0818V50.5294C46.531 50.4899 46.5238 50.4505 46.5089 50.414C46.4941 50.3775 46.4718 50.3446 46.4436 50.3175C46.4155 50.2904 46.382 50.2698 46.3455 50.2569C46.309 50.2439 46.2702 50.2391 46.2317 50.2426H45.4101C45.3157 50.2395 45.2216 50.2561 45.1337 50.2915C45.0458 50.3268 44.9659 50.3802 44.8988 50.4484C44.8207 50.5353 44.7612 50.638 44.7244 50.75C44.6876 50.862 44.6742 50.9806 44.6851 51.0982C44.696 51.2158 44.731 51.3298 44.7877 51.4327C44.8445 51.5355 44.9217 51.625 45.0145 51.6953L44.8197 52.007C44.7984 52.0349 44.7838 52.0675 44.7772 52.1023C44.7706 52.137 44.7721 52.1729 44.7816 52.2069C44.7911 52.241 44.8083 52.2722 44.8318 52.2982C44.8554 52.3241 44.8846 52.3439 44.9171 52.3561C44.9498 52.3783 44.9865 52.3936 45.0251 52.4012C45.0636 52.4089 45.1032 52.4086 45.1417 52.4005C45.1801 52.3924 45.2167 52.3766 45.2491 52.354C45.2816 52.3314 45.3094 52.3024 45.3309 52.2688L45.6231 51.8075H45.9213V52.113C45.9243 52.151 45.9348 52.1881 45.9523 52.2218C45.9697 52.2556 45.9937 52.2854 46.0227 52.3093C46.0518 52.3332 46.0853 52.3508 46.1213 52.361C46.1572 52.3712 46.1948 52.3738 46.2317 52.3686ZM45.6231 51.2651C45.5892 51.2697 45.5547 51.2667 45.5222 51.2561C45.4896 51.2455 45.4597 51.2276 45.4347 51.2037C45.4097 51.1799 45.3901 51.1507 45.3774 51.1181C45.3648 51.0856 45.3593 51.0506 45.3614 51.0157C45.3603 50.981 45.3665 50.9465 45.3796 50.9145C45.3926 50.8825 45.4122 50.8538 45.437 50.8301C45.4617 50.8065 45.4912 50.7886 45.5233 50.7776C45.5554 50.7666 45.5894 50.7627 45.6231 50.7663H45.9518V51.2713L45.6231 51.2651Z" fill="#FDF6EC"/>
<path d="M48.4046 52.3686C48.4431 52.3721 48.4818 52.3672 48.5183 52.3543C48.5549 52.3414 48.5883 52.3208 48.6165 52.2937C48.6446 52.2666 48.6669 52.2337 48.6818 52.1972C48.6966 52.1607 48.7038 52.1213 48.7028 52.0818V50.5294C48.7028 50.4467 48.6707 50.3674 48.6137 50.309C48.5566 50.2505 48.4792 50.2177 48.3985 50.2177C48.3178 50.2177 48.2404 50.2505 48.1833 50.309C48.1262 50.3674 48.0942 50.4467 48.0942 50.5294V51.0219H47.4612V50.5294C47.4612 50.4467 47.4291 50.3674 47.372 50.309C47.315 50.2505 47.2376 50.2177 47.1569 50.2177C47.0762 50.2177 46.9987 50.2505 46.9417 50.309C46.8846 50.3674 46.8525 50.4467 46.8525 50.5294V52.0818C46.8525 52.1645 46.8846 52.2437 46.9417 52.3022C46.9987 52.3607 47.0762 52.3935 47.1569 52.3935C47.2376 52.3935 47.315 52.3607 47.372 52.3022C47.4291 52.2437 47.4612 52.1645 47.4612 52.0818V51.5394H48.1063V52.0818C48.1053 52.1213 48.1125 52.1607 48.1274 52.1972C48.1423 52.2337 48.1645 52.2666 48.1927 52.2937C48.2208 52.3208 48.2543 52.3414 48.2908 52.3543C48.3273 52.3672 48.3661 52.3721 48.4046 52.3686Z" fill="#FDF6EC"/>
<path d="M50.5957 52.3686C50.6337 52.3712 50.6718 52.3656 50.7076 52.3523C50.7433 52.339 50.776 52.3182 50.8035 52.2912C50.831 52.2642 50.8527 52.2316 50.8672 52.1956C50.8817 52.1595 50.8888 52.1208 50.8878 52.0818V50.5294C50.8878 50.4467 50.8558 50.3674 50.7987 50.309C50.7416 50.2505 50.6642 50.2177 50.5835 50.2177C50.5028 50.2177 50.4254 50.2505 50.3683 50.309C50.3112 50.3674 50.2792 50.4467 50.2792 50.5294V51.0219H49.6705V50.5294C49.6705 50.4467 49.6385 50.3674 49.5814 50.309C49.5243 50.2505 49.4469 50.2177 49.3662 50.2177C49.2855 50.2177 49.2081 50.2505 49.151 50.309C49.094 50.3674 49.0619 50.4467 49.0619 50.5294V52.0818C49.0619 52.1645 49.094 52.2437 49.151 52.3022C49.2081 52.3607 49.2855 52.3935 49.3662 52.3935C49.4469 52.3935 49.5243 52.3607 49.5814 52.3022C49.6385 52.2437 49.6705 52.1645 49.6705 52.0818V51.5394H50.2792V52.0818C50.2778 52.1231 50.2853 52.1643 50.3013 52.2023C50.3172 52.2403 50.3412 52.2742 50.3714 52.3016C50.4017 52.329 50.4375 52.3492 50.4762 52.3608C50.515 52.3724 50.5558 52.375 50.5957 52.3686Z" fill="#FDF6EC"/>
<path d="M52.9755 51.0282C52.9128 50.8051 52.814 50.5943 52.6833 50.4047C52.6269 50.3429 52.5578 50.2946 52.4809 50.2633C52.4041 50.2321 52.3215 50.2186 52.239 50.2239C52.1704 50.2139 52.1007 50.2139 52.0321 50.2239C51.9593 50.2478 51.892 50.2866 51.8345 50.3381C51.7769 50.3895 51.7302 50.4525 51.6973 50.5232C51.5821 50.767 51.4844 51.0191 51.4052 51.2775L51.1739 51.9633C51.1598 51.9996 51.1535 52.0386 51.1556 52.0776C51.1578 52.1166 51.1682 52.1546 51.1861 52.1891C51.2041 52.2235 51.2292 52.2535 51.2597 52.277C51.2902 52.3004 51.3253 52.3168 51.3626 52.3249C51.3993 52.3398 51.4385 52.3468 51.4779 52.3457C51.5174 52.3446 51.5561 52.3353 51.592 52.3184C51.6278 52.3015 51.6599 52.2774 51.6864 52.2474C51.7129 52.2175 51.7332 52.1823 51.746 52.1441L51.8251 51.9135H52.6468L52.732 52.1441C52.7449 52.1823 52.7651 52.2175 52.7916 52.2474C52.8181 52.2774 52.8502 52.3015 52.886 52.3184C52.9219 52.3353 52.9607 52.3446 53.0001 52.3457C53.0395 52.3468 53.0788 52.3398 53.1155 52.3249C53.1527 52.3168 53.1879 52.3004 53.2183 52.277C53.2488 52.2535 53.2739 52.2235 53.2919 52.1891C53.3098 52.1546 53.3203 52.1166 53.3224 52.0776C53.3245 52.0386 53.3183 51.9996 53.3041 51.9633L53.0728 51.2775C53.0242 51.1778 52.9937 51.0843 52.9755 51.0282ZM51.9895 51.4895L52.239 50.8037L52.4885 51.4895H51.9895Z" fill="#FDF6EC"/>
<path d="M54.9961 52.3686C55.0346 52.3721 55.0734 52.3673 55.1099 52.3543C55.1464 52.3414 55.1799 52.3208 55.208 52.2937C55.2362 52.2666 55.2585 52.2337 55.2733 52.1972C55.2882 52.1607 55.2954 52.1213 55.2944 52.0818V50.5294C55.2954 50.4899 55.2882 50.4505 55.2733 50.414C55.2585 50.3775 55.2362 50.3446 55.208 50.3175C55.1799 50.2904 55.1464 50.2698 55.1099 50.2569C55.0734 50.2439 55.0346 50.2391 54.9961 50.2426H54.1806C54.0862 50.2395 53.9921 50.2561 53.9042 50.2915C53.8163 50.3268 53.7364 50.3802 53.6693 50.4484C53.5912 50.5353 53.5317 50.638 53.4949 50.75C53.4581 50.862 53.4447 50.9806 53.4556 51.0982C53.4665 51.2158 53.5015 51.3298 53.5582 51.4327C53.615 51.5355 53.6922 51.625 53.785 51.6953L53.5902 52.007C53.5689 52.0349 53.5543 52.0675 53.5477 52.1023C53.5411 52.137 53.5426 52.1729 53.5521 52.2069C53.5616 52.241 53.5788 52.2722 53.6023 52.2982C53.6259 52.3241 53.6551 52.3439 53.6876 52.3561C53.7203 52.3783 53.757 52.3936 53.7956 52.4012C53.8341 52.4089 53.8737 52.4086 53.9122 52.4005C53.9506 52.3924 53.9872 52.3766 54.0196 52.354C54.0521 52.3314 54.0799 52.3024 54.1014 52.2688L54.3936 51.8075H54.6918V52.113C54.6948 52.1504 54.7052 52.1869 54.7222 52.2202C54.7393 52.2535 54.7627 52.283 54.7911 52.3068C54.8195 52.3306 54.8523 52.3484 54.8875 52.359C54.9227 52.3696 54.9597 52.3729 54.9961 52.3686ZM54.3875 51.2651C54.3536 51.2697 54.3192 51.2667 54.2866 51.2561C54.254 51.2455 54.2241 51.2276 54.1991 51.2037C54.1741 51.1799 54.1545 51.1507 54.1418 51.1181C54.1292 51.0856 54.1237 51.0506 54.1258 51.0157C54.1247 50.981 54.1309 50.9465 54.144 50.9145C54.157 50.8825 54.1766 50.8538 54.2014 50.8301C54.2262 50.8065 54.2556 50.7886 54.2877 50.7776C54.3198 50.7666 54.3538 50.7627 54.3875 50.7663H54.7162V51.2713L54.3875 51.2651Z" fill="#FDF6EC"/>
<path d="M52.659 41.3274L36.4813 44.4134C35.5866 44.5818 35.9701 45.9783 36.8587 45.8037L53.0363 42.7364C53.931 42.5431 53.5476 41.1591 52.659 41.3274Z" fill="#FDF6EC"/>
<path d="M34.0163 51.5581C34.272 47.5681 34.5276 43.5843 34.7528 39.5942C35.3006 39.2701 35.8544 38.9708 36.4083 38.6591C36.1947 39.6163 36.2996 40.6192 36.7065 41.5082C37.5708 43.2975 39.4941 42.2688 40.4618 41.2339C41.0705 40.5606 40.0966 39.5381 39.4637 40.2114C38.8307 40.8848 38.0699 41.5331 37.7716 40.305C37.6867 39.7904 37.7078 39.2633 37.8335 38.7576C37.9593 38.2519 38.187 37.7787 38.502 37.3686C38.9341 36.7451 38.1125 36.0406 37.5343 36.3773C36.6517 36.901 35.7449 37.3748 34.8502 37.8735C34.8502 37.7114 34.8502 37.5431 34.8502 37.381C34.8989 36.4521 33.4929 36.4521 33.4381 37.381C33.4381 37.8361 33.3894 38.285 33.359 38.7401L33.1825 38.8523C33.0741 38.9259 32.9868 39.0278 32.9297 39.1475C32.8726 39.2672 32.8477 39.4003 32.8576 39.5331C32.8676 39.666 32.9119 39.7937 32.9862 39.903C33.0604 40.0124 33.1618 40.0995 33.2799 40.1553C33.0608 43.9583 32.8173 47.7551 32.5739 51.5581C32.5434 52.5182 33.9555 52.4808 34.0163 51.5581Z" fill="#FDF6EC"/>
<path d="M25.325 39.2139C25.3797 38.4097 24.339 38.3099 24.0103 38.8835C22.9544 38.8983 21.9337 39.2746 21.1108 39.9525C20.288 40.6304 19.7103 41.5709 19.4698 42.6242C19.3735 42.9685 19.3559 43.3308 19.4184 43.6832C19.4809 44.0356 19.6218 44.3685 19.8301 44.6561C20.0385 44.9437 20.3088 45.1783 20.6199 45.3416C20.9311 45.505 21.2748 45.5927 21.6244 45.598C22.1276 45.6032 22.6247 45.4855 23.0746 45.2545C23.5245 45.0236 23.9141 44.6861 24.2111 44.2701L24.3146 44.376C25.3615 45.3922 26.7492 44.775 27.3578 43.709C27.626 43.9515 27.9489 44.1218 28.2975 44.2045C28.646 44.2873 29.0091 44.2798 29.3541 44.1828C31.88 43.6279 32.1295 40.8224 32.2087 38.6591C32.2706 38.0298 32.1108 37.3986 31.7581 36.8795C31.4053 36.3604 30.883 35.9877 30.2854 35.8286C34.418 33.3349 38.7211 31.1466 42.9451 28.8149C43.7485 28.3723 43.0364 27.1254 42.233 27.568C37.4977 30.174 32.6286 32.5681 28.0273 35.5169C27.899 35.5992 27.7996 35.7213 27.7437 35.8654C27.6877 36.0095 27.678 36.1681 27.716 36.3182C27.754 36.4683 27.8377 36.6021 27.9549 36.7002C28.0722 36.7982 28.217 36.8555 28.3682 36.8636C29.2811 36.9508 30.1271 37.0568 30.5288 37.6429C28.642 38.0917 26.9683 39.4633 26.7127 41.5269C26.6698 41.8266 26.6698 42.1312 26.7127 42.4309C26.5939 42.4567 26.4833 42.5124 26.3909 42.5929C26.2984 42.6735 26.227 42.7763 26.1831 42.8922C25.9945 43.3785 25.1484 43.7152 25.0754 42.9671C25.0634 42.3855 25.096 41.804 25.1728 41.2277C25.2337 40.5543 25.2702 39.881 25.325 39.2139ZM23.7607 41.8075C23.729 41.8807 23.7085 41.9585 23.6999 42.0381C23.6086 42.9795 22.1661 44.8873 21.0766 43.977C20.3645 43.3536 21.1193 41.9508 21.5453 41.4459C22.1549 40.8036 22.9737 40.4131 23.846 40.3486C23.8094 40.8349 23.777 41.3212 23.7486 41.8075H23.7607ZM28.1916 41.4022C28.4838 40.1055 29.6341 39.376 30.8088 39.0643C30.8088 40.4733 30.6384 42.1815 29.202 42.699C28.1856 43.0855 27.9786 42.2626 28.1795 41.4022H28.1916Z" fill="#FDF6EC"/>
<path d="M69.6157 37.9982L67.9297 38.3224C67.9711 32.6745 66.3739 27.1413 63.3406 22.4246C57.7411 13.7962 47.6559 9.02065 37.6621 9.53811C28.6299 10.0057 19.2872 14.6379 13.6634 21.9695C10.8698 25.5917 8.9282 30.3922 9.65248 35.0618C10.1881 38.5281 12.7505 40.8661 16.0371 40.6728L15.8241 44.3511C15.7389 45.8411 15.5137 48.0917 14.0529 48.7152L13.0974 48.9147C12.9317 48.9604 12.7879 49.0664 12.693 49.2129C12.598 49.3593 12.5584 49.5362 12.5815 49.7104C12.6047 49.8846 12.6889 50.0442 12.8186 50.1594C12.9483 50.2745 13.1144 50.3374 13.2861 50.3361C13.6682 50.3186 14.0456 50.2429 14.406 50.1117C20.0967 48.9085 25.818 47.8735 31.527 46.7825C32.4217 46.6142 32.0383 45.2177 31.1496 45.3922C26.2257 46.3336 21.2897 47.2626 16.3779 48.2351C17.4735 46.0905 17.4126 42.7301 17.4735 40.4608C21.5331 39.3698 24.6128 34.8498 22.5922 30.6603C21.7583 28.9334 19.9811 28.1229 18.1856 27.9421L18.2647 26.5705C18.3195 25.6416 16.9075 25.6478 16.8527 26.5705L16.7736 27.9234C14.1016 28.1291 12.1844 30.2114 11.5332 32.7738C11.4791 32.9581 11.4987 33.157 11.5878 33.3265C11.6768 33.496 11.8279 33.6224 12.0079 33.6778C12.1879 33.7332 12.382 33.713 12.5475 33.6218C12.713 33.5307 12.8364 33.3758 12.8904 33.1915C13.3956 31.2089 14.7164 29.7189 16.6884 29.4508L16.1954 38.391L16.1467 39.2576C15.4439 39.3522 14.7292 39.268 14.0657 39.0124C13.4023 38.7569 12.8105 38.3379 12.3427 37.7925C10.9611 36.2464 10.7906 33.896 10.9489 31.9446C11.3384 27.1441 14.2903 22.8798 17.6439 19.7064C24.9476 12.8486 35.5866 9.4633 45.3127 11.6017C50.0895 12.6512 54.4988 15.0089 58.0703 18.4235C61.6418 21.8381 64.2416 26.1816 65.5926 30.9907C66.2582 33.4644 66.5618 36.0255 66.4934 38.5905L58.508 40.1055C58.389 40.1364 58.2805 40.1996 58.1937 40.2885C58.1069 40.3774 58.0452 40.4886 58.015 40.6104L57.7229 42.8174L53.4076 35.492C54.0162 35.1179 54.6857 34.7439 55.3309 34.3823C56.1282 33.9334 55.4161 32.6865 54.6188 33.1354C53.578 33.7152 52.5555 34.3261 51.533 34.9371L51.5695 34.1454C51.5672 34.0194 51.5331 33.8962 51.4705 33.7877C51.4079 33.6792 51.319 33.5892 51.2123 33.5264C51.1057 33.4636 50.985 33.4302 50.862 33.4294C50.739 33.4286 50.6179 33.4605 50.5105 33.5219L48.4533 34.6753C47.6559 35.1242 48.3681 36.371 49.1654 35.9222L50.1027 35.3985C50.0418 36.7513 49.987 38.1042 49.9079 39.4508C49.8592 40.3798 51.2652 40.3798 51.32 39.4508C51.3747 38.5219 51.4173 37.5805 51.4599 36.6578L52.1903 36.2214L57.5403 45.305C57.8263 45.785 58.7575 45.7912 58.8306 45.1304L59.3236 41.3897L66.4203 40.0493C66.3043 41.5208 66.0722 42.9803 65.7265 44.4134C64.4775 49.2506 62.0286 53.6748 58.6175 57.2563C55.4985 60.6906 51.6493 63.343 47.3682 65.008C43.0872 66.6729 38.4894 67.3057 33.9311 66.8573C32.8431 66.7393 31.7636 66.5498 30.6992 66.29C30.7938 65.9146 30.7972 65.5211 30.7092 65.144C30.6211 64.7669 30.4443 64.4176 30.1941 64.1267C29.7376 63.603 28.8855 63.4097 28.2708 63.1666L20.3585 59.987L20.1089 59.8873C20.5897 58.2788 18.283 57.3935 17.3761 58.603C17.157 58.8835 16.9805 59.2264 16.7675 59.4945C16.5398 59.7875 16.3515 60.1104 16.2075 60.4546C16.1129 60.7758 16.1199 61.1194 16.2276 61.4363C16.3352 61.7531 16.538 62.027 16.8068 62.2186C17.0756 62.4103 17.3968 62.5099 17.7242 62.5032C18.0517 62.4966 18.3687 62.384 18.6299 62.1815L18.703 62.2314C19.0255 62.4184 18.5995 62.1503 18.9403 62.3686L19.4638 62.7114C20.0724 63.1229 20.681 63.5469 21.2897 63.9583C22.6835 64.9371 24.0712 65.9222 25.4589 66.901C26.3292 67.5244 27.6378 68.7713 28.7638 68.4471C29.2676 68.301 29.7171 68.0035 30.0541 67.593C35.3541 68.9033 40.9022 68.7115 46.1039 67.0381C50.5912 65.552 54.7068 63.0782 58.1617 59.7901C61.6167 56.502 64.3275 52.4794 66.1038 48.0045C67.1062 45.3788 67.6997 42.6081 67.8628 39.7937L69.993 39.3885C70.8816 39.2202 70.5043 37.8299 69.6157 37.9982ZM18.1004 29.3636C18.7941 29.3967 19.4674 29.6149 20.0535 29.9965C20.6395 30.3781 21.1181 30.91 21.4418 31.5394C22.9634 34.6566 20.3341 37.8798 17.5465 38.9147L18.1004 29.3636ZM18.709 59.5942C18.636 59.7314 18.5386 59.8561 18.4595 59.987L17.8509 60.891C17.7291 60.9907 17.4492 61.0843 17.5587 60.891C17.6135 60.785 17.6926 60.6853 17.7596 60.5793L18.4534 59.4945C18.4534 59.4945 18.8369 59.376 18.7395 59.5942H18.709ZM28.1795 66.9945C27.797 66.8307 27.4402 66.6101 27.1204 66.3399C26.0979 65.6292 25.0815 64.8997 24.0772 64.1765C23.073 63.4533 21.8801 62.6366 20.7845 61.8698L20.0785 61.3898L27.9299 64.5444L29.1533 65.0618C29.1809 65.1033 29.2137 65.1411 29.2507 65.174C29.8106 65.7164 28.8855 67.194 28.1795 66.9945Z" fill="#FDF6EC"/>
</g>
<defs>
<filter id="filter0_d_2041_4461" x="0" y="0" width="80" height="78" filterUnits="userSpaceOnUse" color-interpolation-filters="sRGB">
<feFlood flood-opacity="0" result="BackgroundImageFix"/>
<feColorMatrix in="SourceAlpha" type="matrix" values="0 0 0 0 0 0 0 0 0 0 0 0 0 0 0 0 0 0 127 0" result="hardAlpha"/>
<feOffset/>
<feGaussianBlur stdDeviation="4.75"/>
<feComposite in2="hardAlpha" operator="out"/>
<feColorMatrix type="matrix" values="0 0 0 0 0 0 0 0 0 0.814378 0 0 0 0 0.773659 0 0 0 1 0"/>
<feBlend mode="normal" in2="BackgroundImageFix" result="effect1_dropShadow_2041_4461"/>
<feBlend mode="normal" in="SourceGraphic" in2="effect1_dropShadow_2041_4461" result="shape"/>
</filter>
</defs>
</svg>
