<svg width="61" height="59" viewBox="0 0 61 59" fill="none" xmlns="http://www.w3.org/2000/svg">
<path d="M36.4396 25.6179C36.1661 26.5444 35.8116 27.4437 35.3806 28.305C35.0215 29.0344 34.3154 30.5431 33.3842 30.6242C32.1304 30.7364 33.4572 27.0269 33.6885 26.4097C33.7224 26.2719 33.7162 26.1269 33.6708 25.9926C33.6253 25.8583 33.5426 25.7406 33.4326 25.6538C33.3227 25.5671 33.1905 25.5151 33.0521 25.5043C32.9138 25.4935 32.7753 25.5243 32.6538 25.593C31.9688 26.0354 31.2618 26.4411 30.5358 26.8087C29.7263 27.2389 30.4384 28.4858 31.2479 28.0556L31.7531 27.7875C31.2722 29.5706 31.0836 31.7277 33.0434 32.0581C34.4189 32.2888 35.4779 31.1728 36.2935 29.7763C36.3667 30.1413 36.5448 30.4757 36.8048 30.7364C37.9125 31.8835 39.495 31.0232 39.8845 29.6952C39.9353 29.5101 39.9123 29.3118 39.8204 29.144C39.7285 28.9762 39.5753 28.8527 39.3945 28.8006C39.2137 28.7485 39.0202 28.7721 38.8564 28.8663C38.6926 28.9604 38.572 29.1173 38.5211 29.3025C38.3142 30.0194 37.5838 29.876 37.6325 29.1466C37.6995 28.1117 37.6325 27.0331 37.7969 26.0294C37.8501 25.845 37.8297 25.6466 37.7401 25.4776C37.6505 25.3087 37.4991 25.1831 37.3191 25.1285C37.1391 25.074 36.9453 25.0949 36.7804 25.1867C36.6154 25.2784 36.4929 25.4336 36.4396 25.6179Z" fill="#FDF6EC"/>
<path d="M51.9842 22.8873C52.039 22.083 50.9983 21.9833 50.6696 22.5568C49.6134 22.5705 48.5922 22.9464 47.7691 23.6245C46.946 24.3026 46.3686 25.2437 46.1291 26.2975C46.0328 26.6418 46.0152 27.0042 46.0777 27.3565C46.1402 27.7089 46.2811 28.0418 46.4894 28.3294C46.6978 28.617 46.9681 28.8516 47.2792 29.015C47.5904 29.1783 47.9341 29.266 48.2837 29.2713C48.7869 29.2765 49.284 29.1588 49.7339 28.9278C50.1838 28.6969 50.5734 28.3594 50.8704 27.9434L50.9739 28.0494C52.1547 29.1965 53.725 28.2676 54.2362 26.9708C54.5771 26.1042 53.2137 25.7239 52.8789 26.5843C52.6903 27.0705 51.8443 27.4072 51.7712 26.6591C51.7592 26.0776 51.7918 25.496 51.8686 24.9197C51.899 24.2277 51.9356 23.5543 51.9842 22.8873ZM47.7238 27.6503C47.0117 27.0269 47.7664 25.6242 48.1924 25.1192C48.8082 24.4713 49.6366 24.0804 50.5174 24.0219L50.4322 25.4808C50.4005 25.554 50.3799 25.6318 50.3714 25.7114C50.2618 26.6528 48.8193 28.5606 47.7299 27.6503H47.7238Z" fill="#FDF6EC"/>
<path d="M26.8231 40.7426C26.7846 40.7391 26.7458 40.7439 26.7093 40.7568C26.6728 40.7698 26.6393 40.7904 26.6112 40.8175C26.583 40.8446 26.5608 40.8775 26.5459 40.914C26.531 40.9505 26.5238 40.9898 26.5248 41.0294V42.5818C26.5248 42.6644 26.5569 42.7437 26.614 42.8022C26.671 42.8607 26.7484 42.8935 26.8292 42.8935C26.9099 42.8935 26.9873 42.8607 27.0443 42.8022C27.1014 42.7437 27.1335 42.6644 27.1335 42.5818V42.1765L27.7421 42.8C27.7699 42.829 27.803 42.8521 27.8396 42.8678C27.8762 42.8836 27.9155 42.8917 27.9551 42.8917C27.9948 42.8917 28.0341 42.8836 28.0707 42.8678C28.1073 42.8521 28.1404 42.829 28.1682 42.8C28.1975 42.7754 28.2211 42.7445 28.2373 42.7095C28.2535 42.6744 28.2619 42.6361 28.2619 42.5974C28.2619 42.5586 28.2535 42.5203 28.2373 42.4853C28.2211 42.4502 28.1975 42.4193 28.1682 42.3947L27.5778 41.7713L28.1438 41.2164C28.1731 41.1919 28.1967 41.161 28.2129 41.1259C28.2291 41.0909 28.2375 41.0526 28.2375 41.0138C28.2375 40.9751 28.2291 40.9368 28.2129 40.9017C28.1967 40.8667 28.1731 40.8358 28.1438 40.8112C28.0869 40.7541 28.0105 40.7221 27.9308 40.7221C27.8511 40.7221 27.7747 40.7541 27.7178 40.8112L27.1091 41.3848V40.9982C27.1029 40.926 27.0697 40.8591 27.0163 40.8114C26.963 40.7638 26.8938 40.7391 26.8231 40.7426Z" fill="#FDF6EC"/>
<path d="M30.2984 41.5282C30.2357 41.3051 30.137 41.0943 30.0063 40.9047C29.9498 40.8429 29.8807 40.7946 29.8039 40.7633C29.7271 40.7321 29.6444 40.7186 29.562 40.7239C29.4933 40.7139 29.4236 40.7139 29.355 40.7239C29.2822 40.7478 29.215 40.7866 29.1574 40.8381C29.0999 40.8895 29.0532 40.9525 29.0203 41.0232C28.905 41.267 28.8074 41.5191 28.7281 41.7775L28.4968 42.4633C28.4827 42.4996 28.4765 42.5386 28.4786 42.5776C28.4807 42.6166 28.4911 42.6546 28.5091 42.6891C28.5271 42.7235 28.5522 42.7535 28.5826 42.777C28.6131 42.8004 28.6482 42.8168 28.6855 42.8249C28.7222 42.8398 28.7614 42.8468 28.8009 42.8457C28.8403 42.8446 28.8791 42.8353 28.9149 42.8184C28.9508 42.8015 28.9829 42.7774 29.0093 42.7474C29.0358 42.7175 29.0561 42.6823 29.069 42.6441L29.1481 42.4135H29.9697L30.055 42.6441C30.0678 42.6823 30.0881 42.7175 30.1146 42.7474C30.141 42.7774 30.1731 42.8015 30.209 42.8184C30.2448 42.8353 30.2836 42.8446 30.323 42.8457C30.3625 42.8468 30.4017 42.8398 30.4384 42.8249C30.4757 42.8168 30.5108 42.8004 30.5413 42.777C30.5717 42.7535 30.5968 42.7235 30.6148 42.6891C30.6328 42.6546 30.6432 42.6166 30.6453 42.5776C30.6474 42.5386 30.6412 42.4996 30.6271 42.4633L30.3958 41.7775C30.3471 41.6778 30.3167 41.5843 30.2984 41.5282ZM29.3124 41.9895L29.562 41.3037L29.8115 41.9895H29.3124Z" fill="#FDF6EC"/>
<path d="M32.6843 41.5344C32.6217 41.3113 32.523 41.1005 32.3921 40.911C32.3357 40.8491 32.2666 40.8008 32.1898 40.7695C32.1129 40.7383 32.0303 40.7248 31.9478 40.7302C31.8792 40.7202 31.8095 40.7202 31.7409 40.7302C31.6681 40.754 31.6009 40.7928 31.5433 40.8443C31.4857 40.8958 31.439 40.9588 31.4061 41.0294C31.291 41.2732 31.1933 41.5254 31.114 41.7838L30.8827 42.4696C30.8686 42.5058 30.8623 42.5448 30.8645 42.5838C30.8666 42.6228 30.877 42.6608 30.895 42.6953C30.9129 42.7297 30.938 42.7597 30.9685 42.7832C30.999 42.8067 31.0341 42.823 31.0714 42.8312C31.1081 42.846 31.1473 42.8531 31.1867 42.8519C31.2262 42.8508 31.265 42.8415 31.3008 42.8246C31.3366 42.8077 31.3687 42.7836 31.3952 42.7536C31.4217 42.7237 31.442 42.6886 31.4548 42.6504L31.9478 41.2725L32.4408 42.6504C32.4537 42.6886 32.474 42.7237 32.5004 42.7536C32.5269 42.7836 32.559 42.8077 32.5948 42.8246C32.6307 42.8415 32.6695 42.8508 32.7089 42.8519C32.7483 42.8531 32.7876 42.846 32.8243 42.8312C32.8616 42.823 32.8967 42.8067 32.9271 42.7832C32.9576 42.7597 32.9827 42.7297 33.0007 42.6953C33.0187 42.6608 33.0291 42.6228 33.0312 42.5838C33.0333 42.5448 33.0271 42.5058 33.0129 42.4696L32.7817 41.7838C32.7391 41.6778 32.7086 41.5905 32.6843 41.5344Z" fill="#FDF6EC"/>
<path d="M33.5485 40.7426C33.5101 40.7391 33.4713 40.7439 33.4348 40.7569C33.3983 40.7698 33.3648 40.7904 33.3366 40.8175C33.3085 40.8446 33.2862 40.8775 33.2713 40.914C33.2565 40.9505 33.2493 40.9899 33.2503 41.0294V42.5818C33.2493 42.6213 33.2565 42.6607 33.2713 42.6972C33.2862 42.7337 33.3085 42.7666 33.3366 42.7937C33.3648 42.8208 33.3983 42.8414 33.4348 42.8543C33.4713 42.8672 33.5101 42.8721 33.5485 42.8686H34.3641C34.5505 42.8751 34.7326 42.8107 34.8754 42.6878C34.9427 42.6273 34.9961 42.5523 35.0319 42.4683C35.0676 42.3842 35.0849 42.2931 35.0823 42.2015C35.0869 42.1129 35.0711 42.0244 35.0362 41.9432C35.0013 41.862 34.9483 41.7903 34.8815 41.7339C34.7357 41.618 34.5546 41.5584 34.3702 41.5656H33.859V41.0356C33.8611 40.9944 33.8544 40.9532 33.8392 40.9149C33.824 40.8767 33.8007 40.8423 33.7711 40.8143C33.7414 40.7863 33.7061 40.7654 33.6676 40.753C33.6292 40.7406 33.5885 40.7371 33.5485 40.7426ZM34.2728 42.0207C34.3946 42.0207 34.4737 42.083 34.4737 42.189C34.4737 42.295 34.3946 42.3511 34.2728 42.3511H33.8529V42.0207H34.2728Z" fill="#FDF6EC"/>
<path d="M36.7317 42.8686C36.7702 42.8721 36.809 42.8673 36.8455 42.8543C36.882 42.8414 36.9155 42.8208 36.9436 42.7937C36.9718 42.7666 36.9941 42.7337 37.0089 42.6972C37.0238 42.6607 37.031 42.6213 37.03 42.5818V41.0294C37.031 40.9899 37.0238 40.9505 37.0089 40.914C36.9941 40.8775 36.9718 40.8446 36.9436 40.8175C36.9155 40.7904 36.882 40.7698 36.8455 40.7569C36.809 40.7439 36.7702 40.7391 36.7317 40.7426H35.9101C35.8157 40.7395 35.7216 40.7561 35.6337 40.7915C35.5458 40.8268 35.4659 40.8802 35.3988 40.9484C35.3207 41.0353 35.2612 41.138 35.2244 41.25C35.1876 41.362 35.1742 41.4806 35.1851 41.5982C35.196 41.7158 35.231 41.8298 35.2877 41.9327C35.3445 42.0355 35.4217 42.125 35.5145 42.1953L35.3197 42.507C35.2984 42.5349 35.2838 42.5675 35.2772 42.6023C35.2706 42.637 35.2721 42.6729 35.2816 42.7069C35.2911 42.741 35.3083 42.7722 35.3318 42.7982C35.3554 42.8241 35.3846 42.8439 35.4171 42.8561C35.4498 42.8783 35.4865 42.8936 35.5251 42.9012C35.5636 42.9089 35.6032 42.9086 35.6417 42.9005C35.6801 42.8924 35.7167 42.8766 35.7491 42.854C35.7816 42.8314 35.8094 42.8024 35.8309 42.7688L36.1231 42.3075H36.4213V42.613C36.4243 42.651 36.4348 42.6881 36.4523 42.7218C36.4697 42.7556 36.4937 42.7854 36.5227 42.8093C36.5518 42.8332 36.5853 42.8508 36.6213 42.861C36.6572 42.8712 36.6948 42.8738 36.7317 42.8686ZM36.1231 41.7651C36.0892 41.7697 36.0547 41.7667 36.0222 41.7561C35.9896 41.7455 35.9597 41.7276 35.9347 41.7037C35.9097 41.6799 35.8901 41.6507 35.8774 41.6181C35.8648 41.5856 35.8593 41.5506 35.8614 41.5157C35.8603 41.481 35.8665 41.4465 35.8796 41.4145C35.8926 41.3825 35.9122 41.3538 35.937 41.3301C35.9617 41.3065 35.9912 41.2886 36.0233 41.2776C36.0554 41.2666 36.0894 41.2627 36.1231 41.2663H36.4518V41.7713L36.1231 41.7651Z" fill="#FDF6EC"/>
<path d="M38.9046 42.8686C38.9431 42.8721 38.9818 42.8672 39.0183 42.8543C39.0549 42.8414 39.0883 42.8208 39.1165 42.7937C39.1446 42.7666 39.1669 42.7337 39.1818 42.6972C39.1966 42.6607 39.2038 42.6213 39.2028 42.5818V41.0294C39.2028 40.9467 39.1707 40.8674 39.1137 40.809C39.0566 40.7505 38.9792 40.7177 38.8985 40.7177C38.8178 40.7177 38.7404 40.7505 38.6833 40.809C38.6262 40.8674 38.5942 40.9467 38.5942 41.0294V41.5219H37.9612V41.0294C37.9612 40.9467 37.9291 40.8674 37.872 40.809C37.815 40.7505 37.7376 40.7177 37.6569 40.7177C37.5762 40.7177 37.4987 40.7505 37.4417 40.809C37.3846 40.8674 37.3525 40.9467 37.3525 41.0294V42.5818C37.3525 42.6645 37.3846 42.7437 37.4417 42.8022C37.4987 42.8607 37.5762 42.8935 37.6569 42.8935C37.7376 42.8935 37.815 42.8607 37.872 42.8022C37.9291 42.7437 37.9612 42.6645 37.9612 42.5818V42.0394H38.6063V42.5818C38.6053 42.6213 38.6125 42.6607 38.6274 42.6972C38.6423 42.7337 38.6645 42.7666 38.6927 42.7937C38.7208 42.8208 38.7543 42.8414 38.7908 42.8543C38.8273 42.8672 38.8661 42.8721 38.9046 42.8686Z" fill="#FDF6EC"/>
<path d="M41.0957 42.8686C41.1337 42.8712 41.1718 42.8656 41.2076 42.8523C41.2433 42.839 41.276 42.8182 41.3035 42.7912C41.331 42.7642 41.3527 42.7316 41.3672 42.6956C41.3817 42.6595 41.3888 42.6208 41.3878 42.5818V41.0294C41.3878 40.9467 41.3558 40.8674 41.2987 40.809C41.2416 40.7505 41.1642 40.7177 41.0835 40.7177C41.0028 40.7177 40.9254 40.7505 40.8683 40.809C40.8112 40.8674 40.7792 40.9467 40.7792 41.0294V41.5219H40.1705V41.0294C40.1705 40.9467 40.1385 40.8674 40.0814 40.809C40.0243 40.7505 39.9469 40.7177 39.8662 40.7177C39.7855 40.7177 39.7081 40.7505 39.651 40.809C39.594 40.8674 39.5619 40.9467 39.5619 41.0294V42.5818C39.5619 42.6645 39.594 42.7437 39.651 42.8022C39.7081 42.8607 39.7855 42.8935 39.8662 42.8935C39.9469 42.8935 40.0243 42.8607 40.0814 42.8022C40.1385 42.7437 40.1705 42.6645 40.1705 42.5818V42.0394H40.7792V42.5818C40.7778 42.6231 40.7853 42.6643 40.8013 42.7023C40.8172 42.7403 40.8412 42.7742 40.8714 42.8016C40.9017 42.829 40.9375 42.8492 40.9762 42.8608C41.015 42.8724 41.0558 42.875 41.0957 42.8686Z" fill="#FDF6EC"/>
<path d="M43.4755 41.5282C43.4128 41.3051 43.314 41.0943 43.1833 40.9047C43.1269 40.8429 43.0578 40.7946 42.9809 40.7633C42.9041 40.7321 42.8215 40.7186 42.739 40.7239C42.6704 40.7139 42.6007 40.7139 42.5321 40.7239C42.4593 40.7478 42.392 40.7866 42.3345 40.8381C42.2769 40.8895 42.2302 40.9525 42.1973 41.0232C42.0821 41.267 41.9844 41.5191 41.9052 41.7775L41.6739 42.4633C41.6598 42.4996 41.6535 42.5386 41.6556 42.5776C41.6578 42.6166 41.6682 42.6546 41.6861 42.6891C41.7041 42.7235 41.7292 42.7535 41.7597 42.777C41.7902 42.8004 41.8253 42.8168 41.8626 42.8249C41.8993 42.8398 41.9385 42.8468 41.9779 42.8457C42.0174 42.8446 42.0561 42.8353 42.092 42.8184C42.1278 42.8015 42.1599 42.7774 42.1864 42.7474C42.2129 42.7175 42.2332 42.6823 42.246 42.6441L42.3251 42.4135H43.1468L43.232 42.6441C43.2449 42.6823 43.2651 42.7175 43.2916 42.7474C43.3181 42.7774 43.3502 42.8015 43.386 42.8184C43.4219 42.8353 43.4607 42.8446 43.5001 42.8457C43.5395 42.8468 43.5788 42.8398 43.6155 42.8249C43.6527 42.8168 43.6879 42.8004 43.7183 42.777C43.7488 42.7535 43.7739 42.7235 43.7919 42.6891C43.8098 42.6546 43.8203 42.6166 43.8224 42.5776C43.8245 42.5386 43.8183 42.4996 43.8041 42.4633L43.5728 41.7775C43.5242 41.6778 43.4937 41.5843 43.4755 41.5282ZM42.4895 41.9895L42.739 41.3037L42.9885 41.9895H42.4895Z" fill="#FDF6EC"/>
<path d="M45.4961 42.8686C45.5346 42.8721 45.5734 42.8673 45.6099 42.8543C45.6464 42.8414 45.6799 42.8208 45.708 42.7937C45.7362 42.7666 45.7585 42.7337 45.7733 42.6972C45.7882 42.6607 45.7954 42.6213 45.7944 42.5818V41.0294C45.7954 40.9899 45.7882 40.9505 45.7733 40.914C45.7585 40.8775 45.7362 40.8446 45.708 40.8175C45.6799 40.7904 45.6464 40.7698 45.6099 40.7569C45.5734 40.7439 45.5346 40.7391 45.4961 40.7426H44.6806C44.5862 40.7395 44.4921 40.7561 44.4042 40.7915C44.3163 40.8268 44.2364 40.8802 44.1693 40.9484C44.0912 41.0353 44.0317 41.138 43.9949 41.25C43.9581 41.362 43.9447 41.4806 43.9556 41.5982C43.9665 41.7158 44.0015 41.8298 44.0582 41.9327C44.115 42.0355 44.1922 42.125 44.285 42.1953L44.0902 42.507C44.0689 42.5349 44.0543 42.5675 44.0477 42.6023C44.0411 42.637 44.0426 42.6729 44.0521 42.7069C44.0616 42.741 44.0788 42.7722 44.1023 42.7982C44.1259 42.8241 44.1551 42.8439 44.1876 42.8561C44.2203 42.8783 44.257 42.8936 44.2956 42.9012C44.3341 42.9089 44.3737 42.9086 44.4122 42.9005C44.4506 42.8924 44.4872 42.8766 44.5196 42.854C44.5521 42.8314 44.5799 42.8024 44.6014 42.7688L44.8936 42.3075H45.1918V42.613C45.1948 42.6504 45.2052 42.6869 45.2222 42.7202C45.2393 42.7535 45.2627 42.783 45.2911 42.8068C45.3195 42.8306 45.3523 42.8484 45.3875 42.859C45.4227 42.8696 45.4597 42.8729 45.4961 42.8686ZM44.8875 41.7651C44.8536 41.7697 44.8192 41.7667 44.7866 41.7561C44.754 41.7455 44.7241 41.7276 44.6991 41.7037C44.6741 41.6799 44.6545 41.6507 44.6418 41.6181C44.6292 41.5856 44.6237 41.5506 44.6258 41.5157C44.6247 41.481 44.6309 41.4465 44.644 41.4145C44.657 41.3825 44.6766 41.3538 44.7014 41.3301C44.7262 41.3065 44.7556 41.2886 44.7877 41.2776C44.8198 41.2666 44.8538 41.2627 44.8875 41.2663H45.2162V41.7713L44.8875 41.7651Z" fill="#FDF6EC"/>
<path d="M43.159 31.8274L26.9813 34.9134C26.0866 35.0818 26.4701 36.4783 27.3587 36.3037L43.5363 33.2364C44.431 33.0431 44.0476 31.6591 43.159 31.8274Z" fill="#FDF6EC"/>
<path d="M24.5163 42.0581C24.772 38.0681 25.0276 34.0843 25.2528 30.0942C25.8006 29.7701 26.3544 29.4708 26.9083 29.1591C26.6947 30.1163 26.7996 31.1192 27.2065 32.0082C28.0708 33.7975 29.9941 32.7688 30.9618 31.7339C31.5705 31.0606 30.5966 30.0381 29.9637 30.7114C29.3307 31.3848 28.5699 32.0331 28.2716 30.805C28.1867 30.2904 28.2078 29.7633 28.3335 29.2576C28.4593 28.7519 28.687 28.2787 29.002 27.8686C29.4341 27.2451 28.6125 26.5406 28.0343 26.8773C27.1517 27.401 26.2449 27.8748 25.3502 28.3735C25.3502 28.2114 25.3502 28.0431 25.3502 27.881C25.3989 26.9521 23.9929 26.9521 23.9381 27.881C23.9381 28.3361 23.8894 28.785 23.859 29.2401L23.6825 29.3523C23.5741 29.4259 23.4868 29.5278 23.4297 29.6475C23.3726 29.7672 23.3477 29.9003 23.3576 30.0331C23.3676 30.166 23.4119 30.2937 23.4862 30.403C23.5604 30.5124 23.6618 30.5995 23.7799 30.6553C23.5608 34.4583 23.3173 38.2551 23.0739 42.0581C23.0434 43.0182 24.4555 42.9808 24.5163 42.0581Z" fill="#FDF6EC"/>
<path d="M15.825 29.7139C15.8797 28.9097 14.839 28.8099 14.5103 29.3835C13.4544 29.3983 12.4337 29.7746 11.6108 30.4525C10.788 31.1304 10.2103 32.0709 9.96984 33.1242C9.87351 33.4685 9.8559 33.8308 9.91838 34.1832C9.98086 34.5356 10.1218 34.8685 10.3301 35.1561C10.5385 35.4437 10.8088 35.6783 11.1199 35.8416C11.4311 36.005 11.7748 36.0927 12.1244 36.098C12.6276 36.1032 13.1247 35.9855 13.5746 35.7545C14.0245 35.5236 14.4141 35.1861 14.7111 34.7701L14.8146 34.876C15.8615 35.8922 17.2492 35.275 17.8578 34.209C18.126 34.4515 18.4489 34.6218 18.7975 34.7045C19.146 34.7873 19.5091 34.7798 19.8541 34.6828C22.38 34.1279 22.6295 31.3224 22.7087 29.1591C22.7706 28.5298 22.6108 27.8986 22.2581 27.3795C21.9053 26.8604 21.383 26.4877 20.7854 26.3286C24.918 23.8349 29.2211 21.6466 33.4451 19.3149C34.2485 18.8723 33.5364 17.6254 32.733 18.068C27.9977 20.674 23.1286 23.0681 18.5273 26.0169C18.399 26.0992 18.2996 26.2213 18.2437 26.3654C18.1877 26.5095 18.178 26.6681 18.216 26.8182C18.254 26.9683 18.3377 27.1021 18.4549 27.2002C18.5722 27.2982 18.717 27.3555 18.8682 27.3636C19.7811 27.4508 20.6271 27.5568 21.0288 28.1429C19.142 28.5917 17.4683 29.9633 17.2127 32.0269C17.1698 32.3266 17.1698 32.6312 17.2127 32.9309C17.0939 32.9567 16.9833 33.0124 16.8909 33.0929C16.7984 33.1735 16.727 33.2763 16.6831 33.3922C16.4945 33.8785 15.6484 34.2152 15.5754 33.4671C15.5634 32.8855 15.596 32.304 15.6728 31.7277C15.7337 31.0543 15.7702 30.381 15.825 29.7139ZM14.2607 32.3075C14.229 32.3807 14.2085 32.4585 14.1999 32.5381C14.1086 33.4795 12.6661 35.3873 11.5766 34.477C10.8645 33.8536 11.6193 32.4508 12.0453 31.9459C12.6549 31.3036 13.4737 30.9131 14.346 30.8486C14.3094 31.3349 14.277 31.8212 14.2486 32.3075H14.2607ZM18.6916 31.9022C18.9838 30.6055 20.1341 29.876 21.3088 29.5643C21.3088 30.9733 21.1384 32.6815 19.702 33.199C18.6856 33.5855 18.4786 32.7626 18.6795 31.9022H18.6916Z" fill="#FDF6EC"/>
<path d="M60.1157 28.4982L58.4297 28.8224C58.4711 23.1745 56.8739 17.6413 53.8406 12.9246C48.2411 4.29622 38.1559 -0.479346 28.1621 0.0381106C19.1299 0.505692 9.78725 5.13786 4.16342 12.4695C1.36976 16.0917 -0.571802 20.8922 0.152479 25.5618C0.688082 29.0281 3.25046 31.3661 6.53711 31.1728L6.32409 34.8511C6.23888 36.3411 6.01368 38.5917 4.55295 39.2152L3.59738 39.4147C3.43167 39.4604 3.28791 39.5664 3.19297 39.7129C3.09803 39.8593 3.05841 40.0362 3.08154 40.2104C3.10466 40.3846 3.18893 40.5442 3.3186 40.6594C3.44826 40.7745 3.61444 40.8374 3.78606 40.8361C4.16815 40.8186 4.54558 40.7429 4.90596 40.6117C10.5967 39.4085 16.318 38.3735 22.027 37.2825C22.9217 37.1142 22.5383 35.7177 21.6496 35.8922C16.7257 36.8336 11.7897 37.7626 6.87795 38.7351C7.9735 36.5905 7.91264 33.2301 7.9735 30.9608C12.0331 29.8698 15.1128 25.3498 13.0922 21.1603C12.2583 19.4334 10.4811 18.6229 8.68561 18.4421L8.76473 17.0705C8.81951 16.1416 7.40746 16.1478 7.35269 17.0705L7.27356 18.4234C4.60164 18.6291 2.68442 20.7114 2.03318 23.2738C1.9791 23.4581 1.99874 23.657 2.08777 23.8265C2.1768 23.996 2.32793 24.1224 2.50792 24.1778C2.6879 24.2332 2.88199 24.213 3.0475 24.1218C3.21301 24.0307 3.33637 23.8758 3.39044 23.6915C3.89561 21.7089 5.21636 20.2189 7.18836 19.9508L6.69536 28.891L6.64667 29.7576C5.9439 29.8522 5.22921 29.768 4.56575 29.5124C3.90229 29.2569 3.3105 28.8379 2.84267 28.2925C1.46105 26.7464 1.29064 24.396 1.44888 22.4446C1.83841 17.6441 4.79031 13.3798 8.14392 10.2064C15.4476 3.34859 26.0866 -0.0367026 35.8127 2.1017C40.5895 3.15116 44.9988 5.50889 48.5703 8.9235C52.1418 12.3381 54.7416 16.6816 56.0926 21.4907C56.7582 23.9644 57.0618 26.5255 56.9934 29.0905L49.008 30.6055C48.889 30.6364 48.7805 30.6996 48.6937 30.7885C48.6069 30.8774 48.5452 30.9886 48.515 31.1104L48.2229 33.3174L43.9076 25.992C44.5162 25.6179 45.1857 25.2439 45.8309 24.8823C46.6282 24.4334 45.9161 23.1865 45.1188 23.6354C44.078 24.2152 43.0555 24.8261 42.033 25.4371L42.0695 24.6454C42.0672 24.5194 42.0331 24.3962 41.9705 24.2877C41.9079 24.1792 41.819 24.0892 41.7123 24.0264C41.6057 23.9636 41.485 23.9302 41.362 23.9294C41.239 23.9286 41.1179 23.9605 41.0105 24.0219L38.9533 25.1753C38.1559 25.6242 38.8681 26.871 39.6654 26.4222L40.6027 25.8985C40.5418 27.2513 40.487 28.6042 40.4079 29.9508C40.3592 30.8798 41.7652 30.8798 41.82 29.9508C41.8747 29.0219 41.9173 28.0805 41.9599 27.1578L42.6903 26.7214L48.0403 35.805C48.3263 36.285 49.2575 36.2912 49.3306 35.6304L49.8236 31.8897L56.9203 30.5493C56.8043 32.0208 56.5722 33.4803 56.2265 34.9134C54.9775 39.7506 52.5286 44.1748 49.1175 47.7563C45.9985 51.1906 42.1493 53.843 37.8682 55.508C33.5872 57.1729 28.9894 57.8057 24.4311 57.3573C23.3431 57.2393 22.2636 57.0498 21.1992 56.79C21.2938 56.4146 21.2972 56.0211 21.2092 55.644C21.1211 55.2669 20.9443 54.9176 20.6941 54.6267C20.2376 54.103 19.3855 53.9097 18.7708 53.6666L10.8585 50.487L10.6089 50.3873C11.0897 48.7788 8.78299 47.8935 7.87612 49.103C7.65701 49.3835 7.4805 49.7264 7.26748 49.9945C7.03978 50.2875 6.85145 50.6104 6.70753 50.9546C6.61292 51.2758 6.61995 51.6194 6.72759 51.9363C6.83524 52.2531 7.03799 52.527 7.30682 52.7186C7.57565 52.9103 7.89678 53.0099 8.22425 53.0032C8.55172 52.9966 8.86873 52.884 9.12992 52.6815L9.20295 52.7314C9.52553 52.9184 9.09948 52.6503 9.44032 52.8686L9.96375 53.2114C10.5724 53.6229 11.181 54.0469 11.7897 54.4583C13.1835 55.4371 14.5712 56.4222 15.9589 57.401C16.8292 58.0244 18.1378 59.2713 19.2638 58.9471C19.7676 58.801 20.2171 58.5035 20.5541 58.093C25.8541 59.4033 31.4022 59.2115 36.6039 57.5381C41.0912 56.052 45.2068 53.5782 48.6617 50.2901C52.1167 47.002 54.8275 42.9794 56.6038 38.5045C57.6062 35.8788 58.1997 33.1081 58.3628 30.2937L60.493 29.8885C61.3816 29.7202 61.0043 28.3299 60.1157 28.4982ZM8.6004 19.8636C9.29413 19.8967 9.96738 20.1149 10.5535 20.4965C11.1395 20.8781 11.6181 21.41 11.9418 22.0394C13.4634 25.1566 10.8341 28.3798 8.04654 29.4147L8.6004 19.8636ZM9.20904 50.0942C9.136 50.2314 9.03862 50.3561 8.9595 50.487L8.35086 51.391C8.22913 51.4907 7.94915 51.5843 8.05871 51.391C8.11349 51.285 8.19261 51.1853 8.25956 51.0793L8.95341 49.9945C8.95341 49.9945 9.33685 49.876 9.23947 50.0942H9.20904ZM18.6795 57.4945C18.297 57.3307 17.9402 57.1101 17.6204 56.8399C16.5979 56.1292 15.5815 55.3997 14.5772 54.6765C13.573 53.9533 12.3801 53.1366 11.2845 52.3698L10.5785 51.8898L18.4299 55.0444L19.6533 55.5618C19.6809 55.6033 19.7137 55.6411 19.7507 55.674C20.3106 56.2164 19.3855 57.694 18.6795 57.4945Z" fill="#FDF6EC"/>
</svg>
