<svg width="60" height="60" viewBox="0 0 60 60" fill="none" xmlns="http://www.w3.org/2000/svg">
<path d="M25.127 9.29004C25.4618 9.21606 25.8084 9.24629 26.124 9.37402C26.4393 9.50178 26.708 9.72031 26.9014 9.99707C27.094 10.2731 27.2058 10.5974 27.2285 10.9307C27.2296 10.9469 27.2304 10.9642 27.2305 10.9805C27.2469 17.4531 27.4573 28.3682 27.4639 34.999C27.5293 35.1439 27.5525 35.3098 27.5137 35.4766C27.5022 35.5258 27.486 35.5729 27.4658 35.6172V38.8721L27.5 39.752C27.5474 40.826 27.6285 42.4277 27.6924 44.0459C27.7346 45.1145 27.7687 46.1826 27.7783 47.082C27.7877 47.9616 27.7749 48.7373 27.7109 49.1885C27.7088 49.2037 27.7062 49.2193 27.7031 49.2344C27.5907 49.7803 27.3426 50.2892 26.9805 50.707C26.618 51.1252 26.1529 51.4389 25.6299 51.6084C25.1066 51.7779 24.5485 51.7959 24.0156 51.6602C23.4883 51.5257 23.0088 51.2458 22.624 50.8564C22.62 50.8528 22.6163 50.8484 22.6123 50.8447H22.6113C21.687 49.9998 21.3683 48.7094 21.2852 47.54C21.1989 46.326 21.3538 45.0677 21.5186 44.1436L21.5195 44.1357C21.9844 41.6877 22.6744 39.2937 23.5781 36.9883C23.7293 36.6026 24.1642 36.4123 24.5498 36.5635C24.9351 36.7148 25.1256 37.1497 24.9746 37.5352C24.1061 39.7507 23.4418 42.0521 22.9941 44.4062C22.8392 45.2759 22.7076 46.3965 22.7812 47.4336C22.8521 48.4309 23.1031 49.208 23.5518 49.6699L23.6445 49.7588L23.6846 49.7969C23.8845 50.0012 24.1277 50.1402 24.3857 50.2061C24.6434 50.2717 24.9125 50.2631 25.167 50.1807C25.4218 50.0981 25.6584 49.943 25.8477 49.7246C26.0321 49.5118 26.1635 49.2471 26.2275 48.9561C26.2707 48.6284 26.2877 47.9757 26.2783 47.0977C26.269 46.2197 26.2363 45.169 26.1943 44.1055C26.1112 41.9988 25.9921 39.8036 25.9668 38.915C25.9666 38.9081 25.9658 38.9005 25.9658 38.8936V35.8555C24.8463 35.494 23.8097 34.8899 22.9229 34.0801C21.8718 33.1203 21.0627 31.903 20.5645 30.5381L20.3135 29.8564C17.8644 22.8049 19.8468 15.4693 24.2051 9.84082L24.2578 9.7793C24.4923 9.53609 24.7929 9.36385 25.127 9.29004ZM39.001 9.94434C39.415 9.94443 39.7508 10.2803 39.751 10.6943V22.9854C39.7458 24.3705 39.2275 25.7071 38.2959 26.7002C37.7587 27.2727 37.1075 27.7031 36.3965 27.9678C36.6321 31.6332 37.3501 35.1923 37.8428 38.9375L37.9414 39.6191C38.1866 41.2292 38.5225 42.969 38.5225 44.7061C38.5988 45.9586 38.4978 47.2165 38.2217 48.4375L38.2227 48.4385C38.0399 49.3647 37.6087 50.2219 36.9756 50.9033C36.9547 50.9257 36.9326 50.9471 36.9092 50.9668C36.2979 51.4805 35.5293 51.7534 34.7373 51.7324V51.7344C33.2614 51.7225 32.3289 50.8282 31.7881 49.7812C31.2615 48.7615 31.0527 47.518 30.9824 46.5166C30.9813 46.501 30.9816 46.4844 30.9814 46.4688C30.9635 43.9219 31.1856 41.3793 31.6465 38.8799C32.1375 35.1545 32.8495 31.6128 33.0869 27.9668C32.3771 27.702 31.7268 27.2718 31.1904 26.7002C30.2588 25.7071 29.7405 24.3705 29.7354 22.9854V10.6943C29.7355 10.2804 30.0714 9.94455 30.4854 9.94434C30.8994 9.94443 31.2352 10.2803 31.2354 10.6943V22.9795C31.2392 23.9985 31.621 24.9669 32.2842 25.6738C32.9451 26.3782 33.8304 26.7657 34.7432 26.7705C35.656 26.7658 36.5411 26.3783 37.2021 25.6738C37.8648 24.9675 38.2465 24.0005 38.251 22.9824V10.6943C38.2511 10.2802 38.5868 9.94434 39.001 9.94434ZM34.7461 28.2715H34.7402C34.6838 28.2712 34.6274 28.2679 34.5713 28.2656C34.3145 31.9273 33.5949 35.5715 33.1309 39.0996C33.1292 39.1122 33.1273 39.1252 33.125 39.1377C32.681 41.5405 32.4657 43.9853 32.4814 46.4346C32.5474 47.346 32.7341 48.3433 33.1211 49.0928C33.4974 49.8213 34.004 50.2282 34.749 50.2344C34.755 50.2344 34.7616 50.2342 34.7676 50.2344C35.1727 50.2473 35.5742 50.1123 35.9082 49.8447C36.3283 49.3792 36.6238 48.7928 36.751 48.1484L36.7549 48.127C37.0062 47.0246 37.0976 45.8863 37.0244 44.7539C37.0234 44.7381 37.0225 44.7219 37.0225 44.7061C37.0225 42.8526 36.6208 41.1088 36.3564 39.1367L36.3555 39.1348C35.89 35.5952 35.1667 31.9392 34.9121 28.2656C34.8571 28.2678 34.8014 28.2712 34.7461 28.2715ZM25.4502 10.7539C25.4187 10.7609 25.385 10.7785 25.3525 10.8076C21.2603 16.12 19.4892 22.9104 21.7324 29.3682L21.9629 29.9941L21.9688 30.0098C22.3861 31.1598 23.0627 32.1772 23.9336 32.9727C24.5388 33.5253 25.2269 33.9559 25.9619 34.2559C25.9419 27.5411 25.7473 17.3875 25.7305 11.0244C25.7246 10.9595 25.7033 10.9006 25.6719 10.8555C25.6395 10.8092 25.5995 10.7802 25.5615 10.7646C25.5238 10.7493 25.4854 10.7461 25.4502 10.7539ZM33.2285 9.94434C33.6426 9.94443 33.9784 10.2803 33.9785 10.6943V19.6641C33.9782 20.0779 33.6425 20.414 33.2285 20.4141C32.8146 20.4139 32.4788 20.0779 32.4785 19.6641V10.6943C32.4787 10.2803 32.8145 9.94448 33.2285 9.94434ZM36.3252 9.89062C36.7393 9.89072 37.0751 10.2265 37.0752 10.6406V19.6104C37.0748 20.0242 36.7391 20.3603 36.3252 20.3604C35.9112 20.3603 35.5756 20.0242 35.5752 19.6104V10.6406C35.5752 10.2265 35.911 9.89064 36.3252 9.89062Z" fill="white"/>
</svg>
