<svg width="50" height="50" viewBox="0 0 50 50" fill="none" xmlns="http://www.w3.org/2000/svg">
<path d="M19 12C17.895 12 17 12.895 17 14V36C17 37.105 17.895 38 19 38H31C32.105 38 33 37.105 33 36V14C33 12.895 32.105 12 31 12H19ZM19 14H31V34H27C27 34.552 26.552 35 26 35H24C23.448 35 23 34.552 23 34H19V14ZM22 17C21.8675 16.9981 21.7359 17.0226 21.613 17.072C21.49 17.1214 21.3781 17.1948 21.2837 17.2878C21.1893 17.3809 21.1144 17.4918 21.0632 17.614C21.0121 17.7363 20.9858 17.8675 20.9858 18C20.9858 18.1325 21.0121 18.2637 21.0632 18.386C21.1144 18.5082 21.1893 18.6191 21.2837 18.7122C21.3781 18.8052 21.49 18.8786 21.613 18.928C21.7359 18.9774 21.8675 19.0019 22 19H28C28.1325 19.0019 28.2641 18.9774 28.387 18.928C28.51 18.8786 28.6219 18.8052 28.7163 18.7122C28.8107 18.6191 28.8856 18.5082 28.9368 18.386C28.9879 18.2637 29.0142 18.1325 29.0142 18C29.0142 17.8675 28.9879 17.7363 28.9368 17.614C28.8856 17.4918 28.8107 17.3809 28.7163 17.2878C28.6219 17.1948 28.51 17.1214 28.387 17.072C28.2641 17.0226 28.1325 16.9981 28 17H22ZM22 21C21.8675 20.9981 21.7359 21.0226 21.613 21.072C21.49 21.1214 21.3781 21.1948 21.2837 21.2878C21.1893 21.3809 21.1144 21.4918 21.0632 21.614C21.0121 21.7363 20.9858 21.8675 20.9858 22C20.9858 22.1325 21.0121 22.2637 21.0632 22.386C21.1144 22.5082 21.1893 22.6191 21.2837 22.7122C21.3781 22.8052 21.49 22.8786 21.613 22.928C21.7359 22.9774 21.8675 23.0019 22 23H26C26.1325 23.0019 26.2641 22.9774 26.387 22.928C26.51 22.8786 26.6219 22.8052 26.7163 22.7122C26.8107 22.6191 26.8856 22.5082 26.9368 22.386C26.9879 22.2637 27.0142 22.1325 27.0142 22C27.0142 21.8675 26.9879 21.7363 26.9368 21.614C26.8856 21.4918 26.8107 21.3809 26.7163 21.2878C26.6219 21.1948 26.51 21.1214 26.387 21.072C26.2641 21.0226 26.1325 20.9981 26 21H22ZM22 25C21.8675 24.9981 21.7359 25.0226 21.613 25.072C21.49 25.1214 21.3781 25.1948 21.2837 25.2878C21.1893 25.3809 21.1144 25.4918 21.0632 25.614C21.0121 25.7363 20.9858 25.8675 20.9858 26C20.9858 26.1325 21.0121 26.2637 21.0632 26.386C21.1144 26.5082 21.1893 26.6191 21.2837 26.7122C21.3781 26.8052 21.49 26.8786 21.613 26.928C21.7359 26.9774 21.8675 27.0019 22 27H28C28.1325 27.0019 28.2641 26.9774 28.387 26.928C28.51 26.8786 28.6219 26.8052 28.7163 26.7122C28.8107 26.6191 28.8856 26.5082 28.9368 26.386C28.9879 26.2637 29.0142 26.1325 29.0142 26C29.0142 25.8675 28.9879 25.7363 28.9368 25.614C28.8856 25.4918 28.8107 25.3809 28.7163 25.2878C28.6219 25.1948 28.51 25.1214 28.387 25.072C28.2641 25.0226 28.1325 24.9981 28 25H22ZM22 29C21.8675 28.9981 21.7359 29.0226 21.613 29.072C21.49 29.1214 21.3781 29.1948 21.2837 29.2878C21.1893 29.3809 21.1144 29.4918 21.0632 29.614C21.0121 29.7363 20.9858 29.8675 20.9858 30C20.9858 30.1325 21.0121 30.2637 21.0632 30.386C21.1144 30.5082 21.1893 30.6191 21.2837 30.7122C21.3781 30.8052 21.49 30.8786 21.613 30.928C21.7359 30.9774 21.8675 31.0019 22 31H26C26.1325 31.0019 26.2641 30.9774 26.387 30.928C26.51 30.8786 26.6219 30.8052 26.7163 30.7122C26.8107 30.6191 26.8856 30.5082 26.9368 30.386C26.9879 30.2637 27.0142 30.1325 27.0142 30C27.0142 29.8675 26.9879 29.7363 26.9368 29.614C26.8856 29.4918 26.8107 29.3809 26.7163 29.2878C26.6219 29.1948 26.51 29.1214 26.387 29.072C26.2641 29.0226 26.1325 28.9981 26 29H22Z" fill="#185D66"/>
</svg>
