<svg width="50" height="50" viewBox="0 0 50 50" fill="none" xmlns="http://www.w3.org/2000/svg">
<path d="M18.0142 13C18.0142 13.552 18.4622 14 19.0142 14C19.5662 14 20.0142 13.552 20.0142 13H18.0142ZM22.0142 13C22.0142 14.657 23.3572 16 25.0142 16C26.6712 16 28.0142 14.657 28.0142 13H22.0142ZM30.0142 13C30.0142 13.552 30.4622 14 31.0142 14C31.5662 14 32.0142 13.552 32.0142 13H30.0142ZM20.7721 16.2422C20.5068 16.2422 20.2525 16.3475 20.0649 16.5351C19.8774 16.7226 19.7721 16.977 19.7721 17.2422C19.7721 17.5074 19.8774 17.7618 20.0649 17.9493C20.2525 18.1368 20.5068 18.2422 20.7721 18.2422C21.0373 18.2422 21.2916 18.1368 21.4792 17.9493C21.6667 17.7618 21.7721 17.5074 21.7721 17.2422C21.7721 16.977 21.6667 16.7226 21.4792 16.5351C21.2916 16.3475 21.0373 16.2422 20.7721 16.2422ZM29.2564 16.2422C28.9912 16.2422 28.7369 16.3475 28.5493 16.5351C28.3618 16.7226 28.2564 16.977 28.2564 17.2422C28.2564 17.5074 28.3618 17.7618 28.5493 17.9493C28.7369 18.1368 28.9912 18.2422 29.2564 18.2422C29.5216 18.2422 29.776 18.1368 29.9635 17.9493C30.1511 17.7618 30.2564 17.5074 30.2564 17.2422C30.2564 16.977 30.1511 16.7226 29.9635 16.5351C29.776 16.3475 29.5216 16.2422 29.2564 16.2422ZM25.0142 18C24.749 18 24.4947 18.1054 24.3071 18.2929C24.1196 18.4804 24.0142 18.7348 24.0142 19C24.0142 19.2652 24.1196 19.5196 24.3071 19.7071C24.4947 19.8946 24.749 20 25.0142 20C25.2795 20 25.5338 19.8946 25.7213 19.7071C25.9089 19.5196 26.0142 19.2652 26.0142 19C26.0142 18.7348 25.9089 18.4804 25.7213 18.2929C25.5338 18.1054 25.2795 18 25.0142 18ZM13.0142 22C12.8817 21.9981 12.7502 22.0226 12.6272 22.072C12.5042 22.1214 12.3923 22.1948 12.2979 22.2878C12.2036 22.3809 12.1286 22.4918 12.0775 22.614C12.0263 22.7363 12 22.8675 12 23C12 23.1325 12.0263 23.2637 12.0775 23.386C12.1286 23.5082 12.2036 23.6191 12.2979 23.7122C12.3923 23.8052 12.5042 23.8786 12.6272 23.928C12.7502 23.9774 12.8817 24.0019 13.0142 24H37.0142C37.1468 24.0019 37.2783 23.9774 37.4013 23.928C37.5243 23.8786 37.6362 23.8052 37.7305 23.7122C37.8249 23.6191 37.8999 23.5082 37.951 23.386C38.0021 23.2637 38.0285 23.1325 38.0285 23C38.0285 22.8675 38.0021 22.7363 37.951 22.614C37.8999 22.4918 37.8249 22.3809 37.7305 22.2878C37.6362 22.1948 37.5243 22.1214 37.4013 22.072C37.2783 22.0226 37.1468 21.9981 37.0142 22H13.0142ZM14.0142 26L13.0221 35.8848C13.0213 35.8945 13.0206 35.9043 13.0201 35.9141L13.0181 35.9258C13.0159 35.9505 13.0146 35.9752 13.0142 36C13.0142 36.2652 13.1196 36.5196 13.3071 36.7071C13.4947 36.8946 13.749 37 14.0142 37C14.2279 36.9999 14.4359 36.9314 14.6077 36.8045C14.7796 36.6776 14.9063 36.4991 14.9693 36.2949L18.4068 29H31.6217L35.0592 36.2949H35.0611C35.124 36.4987 35.2504 36.6771 35.4219 36.8039C35.5934 36.9308 35.8009 36.9995 36.0142 37C36.2795 37 36.5338 36.8946 36.7213 36.7071C36.9089 36.5196 37.0142 36.2652 37.0142 36C37.0145 35.9431 37.01 35.8862 37.0006 35.8301L36.0142 26H14.0142Z" fill="#185D66"/>
</svg>
