<svg width="64" height="64" viewBox="0 0 64 64" fill="none" xmlns="http://www.w3.org/2000/svg">
<path d="M40.1357 24.8164C44.0386 24.8164 47.208 27.9477 47.208 31.792V38.5615C47.208 42.4107 44.0336 45.5371 40.1357 45.5371H25.9258C22.0231 45.5369 18.8535 42.4057 18.8535 38.5615V31.792C18.8535 27.943 22.0281 24.8166 25.9258 24.8164H40.1357ZM25.9258 25.9834C22.6818 25.9836 20.042 28.5877 20.042 31.7871V38.5566C20.042 41.756 22.6818 44.3602 25.9258 44.3604H40.1357C43.3798 44.3604 46.0195 41.7561 46.0195 38.5566V31.7871C46.0195 28.5876 43.3798 25.9834 40.1357 25.9834H25.9258Z" fill="white"/>
<path d="M27.4395 27.1094C27.7599 27.0552 28.0658 27.2674 28.125 27.5928C28.1792 27.9132 27.967 28.2191 27.6416 28.2783C26.1181 28.5446 24.7525 29.3632 23.7861 30.5908C23.6678 30.7387 23.4948 30.8174 23.3223 30.8174C23.1943 30.8173 23.0663 30.7779 22.958 30.6895C22.7016 30.4873 22.6572 30.1168 22.8594 29.8555C24.0032 28.4012 25.6302 27.4249 27.4395 27.1094Z" fill="white"/>
<path d="M29.4766 33.4043C29.7645 33.4045 30 33.6294 30 33.9043C30 34.1792 29.7645 34.4041 29.4766 34.4043H19.5234C19.2355 34.4041 19 34.1792 19 33.9043C19 33.6294 19.2355 33.4045 19.5234 33.4043H29.4766Z" fill="white"/>
<path d="M46.5 31.4043C46.775 31.4043 47 31.6293 47 31.9043C47 32.1793 46.775 32.4043 46.5 32.4043H36.5C36.225 32.4043 36 32.1793 36 31.9043C36 31.6293 36.225 31.4043 36.5 31.4043H46.5Z" fill="white"/>
<path d="M46.3916 39.5176C46.7262 39.5177 47 39.741 47 39.9609C47 40.1809 46.7262 40.4042 46.3916 40.4043L19.6084 40.3613C19.2738 40.3612 19 40.1041 19 39.8809C19.0001 39.6609 19.2738 39.4045 19.6084 39.4043L46.3916 39.5176Z" fill="white"/>
<path d="M26.583 36.4043C26.8122 36.4043 27 36.6293 27 36.9043C27 37.1793 26.8122 37.4043 26.583 37.4043H22.417C22.1878 37.4043 22 37.1793 22 36.9043C22 36.6293 22.1878 36.4043 22.417 36.4043H26.583Z" fill="white"/>
<path d="M43.4668 35.4043C43.7601 35.4044 44 35.6293 44 35.9043C44 36.1793 43.7601 36.4042 43.4668 36.4043H36.5332C36.2399 36.4042 36 36.1793 36 35.9043C36 35.6293 36.2399 35.4044 36.5332 35.4043H43.4668Z" fill="white"/>
<path d="M41.1484 47.7168C41.482 47.717 41.7547 47.9621 41.7549 48.2617C41.7549 48.5615 41.4821 48.8074 41.1484 48.8076H26.0039C25.6701 48.8076 25.3965 48.5616 25.3965 48.2617C25.3967 47.962 25.6702 47.7168 26.0039 47.7168H41.1484Z" fill="white"/>
<path d="M41.1523 21.543C41.4843 21.5431 41.7559 21.7808 41.7559 22.0713V23.2158C41.7558 24.6992 40.3772 25.9052 38.6816 25.9053H27.3809C25.6853 25.9053 24.3067 24.6992 24.3066 23.2158V22.0713C24.3066 21.7808 24.5782 21.5431 24.9102 21.543H41.1523ZM25.5195 23.2158C25.5196 24.1137 26.3544 24.8486 27.3857 24.8486H38.6914C39.7178 24.8486 40.5585 24.1182 40.5586 23.2158V22.5996H25.5195V23.2158Z" fill="white"/>
<path d="M33.3223 18.1309C35.2154 18.1309 37.0346 18.6734 38.3066 19.7383C38.5581 19.9503 38.5879 20.2808 38.3809 20.5322C38.1688 20.7834 37.7992 20.7734 37.5479 20.5664C36.4829 19.674 34.9444 19.1172 33.3223 19.1172H33.3076C31.5771 19.1172 29.9693 19.7033 28.8994 20.6992C28.786 20.8027 28.643 20.877 28.4951 20.877V20.8721C28.3375 20.8719 28.1797 20.8077 28.0615 20.6846C27.84 20.4432 27.8546 20.1524 28.0908 19.9307C29.3776 18.7375 31.2764 18.1309 33.3027 18.1309H33.3223Z" fill="white"/>
<path d="M33.3174 15C34.3428 15 35.1766 15.8331 35.1768 16.8535V18.4902C35.1768 18.8156 34.9103 19.082 34.585 19.082C34.2596 19.082 33.9932 18.8156 33.9932 18.4902V16.8535C33.993 16.4839 33.6871 16.1836 33.3174 16.1836C32.9479 16.1838 32.6427 16.484 32.6426 16.8535V18.4902C32.6426 18.8156 32.3761 19.082 32.0508 19.082C31.7254 19.082 31.459 18.8156 31.459 18.4902V16.8535C31.4592 15.8332 32.2921 15.0002 33.3174 15Z" fill="white"/>
<path d="M14.2041 27.4531C15.0866 27.4778 15.9102 27.9121 16.4131 28.6172C16.6399 28.9327 16.8373 29.293 17 29.6973C17.143 30.0471 17.3597 30.3283 17.6357 30.5205C17.9019 30.7079 17.9657 31.0775 17.7783 31.3438C17.5909 31.6098 17.2212 31.6736 16.9551 31.4863C16.4918 31.1609 16.1369 30.7075 15.9053 30.1406C15.7771 29.8202 15.6188 29.5394 15.4512 29.3027C15.1603 28.8985 14.6826 28.6467 14.1699 28.6318L12.4443 28.583C12.2915 28.5682 12.2317 28.6713 12.207 28.7305C12.1824 28.7896 12.1533 28.8984 12.2568 29.0068C13.2527 30.052 14.4609 31.881 14.5596 34.6367C14.6582 37.3386 16.2063 38.9563 17.4932 39.8389C17.7641 40.0214 17.8328 40.391 17.6455 40.6621C17.5321 40.8297 17.3445 40.918 17.1572 40.918V40.9238C17.0439 40.9238 16.9257 40.8883 16.8223 40.8193C15.3136 39.7839 13.4943 37.8812 13.376 34.6865C13.307 32.7686 12.6409 31.1317 11.3984 29.8301C10.9943 29.4061 10.8864 28.7893 11.1279 28.252C11.3647 27.7197 11.8821 27.4043 12.4785 27.4043L14.2041 27.4531Z" fill="white"/>
<path d="M49.418 28.4795C51.242 28.0902 53.041 29.2533 53.4258 31.0674C53.7758 32.7042 53.426 34.4398 52.4795 35.8252L49.7578 39.7949C49.4474 40.2484 49.4031 40.815 49.6445 41.2832C49.8319 41.648 50.0635 41.7566 50.4727 41.6729C50.7584 41.6137 50.8522 41.4169 50.877 41.3379C50.9164 41.2146 50.8969 41.1156 50.8574 41.0762C50.808 41.0171 50.6646 41.0075 50.4922 41.0469C50.1767 41.1157 49.8561 40.9082 49.792 40.5928C49.7233 40.2725 49.9307 39.9576 50.2461 39.8936C51.0743 39.7161 51.538 40.0652 51.7402 40.2871C52.0706 40.652 52.1735 41.2002 52.0059 41.708C51.8184 42.2845 51.3406 42.7038 50.7197 42.8369C50.5571 42.8714 50.3989 42.8906 50.2461 42.8906L50.2412 42.876C49.5314 42.876 48.9449 42.5063 48.5898 41.8213C48.1511 40.9684 48.2243 39.9375 48.7812 39.124L51.5029 35.1553C52.272 34.0361 52.5485 32.6358 52.2676 31.3096C52.0161 30.1312 50.8474 29.3814 49.6641 29.6328C49.393 29.692 49.1417 29.7956 48.915 29.9434C48.644 30.1208 48.2743 30.0472 48.0967 29.7764C47.9193 29.5053 47.9929 29.1356 48.2637 28.958C48.6137 28.7263 49.0038 28.5682 49.418 28.4795Z" fill="white"/>
</svg>
