<svg width="60" height="60" viewBox="0 0 60 60" fill="none" xmlns="http://www.w3.org/2000/svg">
<path d="M30.0215 12.25C30.7577 12.25 31.4753 12.471 32.0791 12.8809L32.3301 13.0684L32.333 13.0703L33.0674 13.6729L33.0732 13.6777C33.447 13.9909 33.9247 14.1648 34.4199 14.165H35.3818C36.2226 14.1685 37.038 14.4597 37.6865 14.9912C38.2556 15.4578 38.6654 16.0847 38.8623 16.7861C39.0259 16.749 39.1942 16.7276 39.3643 16.7275C39.905 16.7275 40.4283 16.9222 40.8379 17.2734H40.8389L41.2588 17.6113C41.2656 17.6168 41.2727 17.6232 41.2793 17.6289C41.419 17.7498 41.603 17.8168 41.7939 17.8135H42.3467L42.3848 17.8145C42.9154 17.8413 43.423 18.045 43.8232 18.3945C44.2233 18.7441 44.4932 19.2194 44.584 19.7432L44.6699 20.2393C44.7112 20.4322 44.8172 20.609 44.9736 20.7412H44.9727L45.3672 21.0703L45.5205 21.207C45.8638 21.5405 46.0967 21.9731 46.1826 22.4473C46.2807 22.989 46.1789 23.546 45.8984 24.0195L45.6934 24.3682C45.8518 24.6222 45.9642 24.9042 46.0195 25.2031H46.0205L46.125 25.748L46.1279 25.7666C46.1618 25.9707 46.27 26.1595 46.4355 26.2969L46.8652 26.6465H46.8662C47.3105 27.0084 47.6114 27.5167 47.7119 28.0811C47.8109 28.6373 47.707 29.2082 47.4219 29.6953L47.1533 30.1816C47.1469 30.1931 47.1398 30.2047 47.1328 30.2158C47.0512 30.3461 47.0095 30.4943 47.0098 30.6436L47.0244 30.793V30.7969L47.1299 31.3555L47.1318 31.3672C47.2286 31.9287 47.1216 32.5052 46.832 32.9961C46.5423 33.4869 46.0892 33.8601 45.5537 34.0537C45.5468 34.0562 45.5392 34.0582 45.5322 34.0605L45.0195 34.2275C44.8085 34.3068 44.6331 34.4529 44.5215 34.6387L44.2373 35.125L44.2344 35.1299C43.9441 35.6163 43.4923 35.9856 42.96 36.1777C42.428 36.3695 41.8442 36.3743 41.3086 36.1904L41.3018 36.1885L40.7617 35.9971V35.9961C40.5517 35.9215 40.3204 35.9214 40.1104 35.9961V35.9971L39.5703 36.1885L39.5586 36.1924C39.3902 36.2489 39.2165 36.2848 39.042 36.3047C38.9962 36.3135 38.9487 36.3183 38.9004 36.3184L38.9014 36.3193H38.9131C38.9118 36.3194 38.9073 36.3198 38.9004 36.3203C38.8832 36.3216 38.8494 36.3245 38.8027 36.332C38.7087 36.3472 38.5591 36.3801 38.3721 36.4502C38.0012 36.5893 37.4655 36.8814 36.9033 37.502C35.7762 38.7463 34.4701 41.399 34.3301 47.0186C34.3198 47.4326 33.9756 47.7603 33.5615 47.75C33.1478 47.7394 32.8208 47.3953 32.8311 46.9814C32.9758 41.1714 34.3297 38.1087 35.791 36.4951C36.1723 36.0743 36.5567 35.7579 36.9189 35.5205C36.8105 35.403 36.7114 35.2757 36.627 35.1377C36.6216 35.1289 36.6163 35.1194 36.6113 35.1104L36.3584 34.6533C36.2357 34.4612 36.0514 34.3102 35.8311 34.2256L35.4141 34.085C35.1497 34.3928 34.8308 34.6492 34.4717 34.8428C34.445 34.8614 34.4162 34.8825 34.3857 34.9053C34.1659 35.0693 33.8513 35.343 33.5146 35.7637C32.8456 36.6001 32.0613 38.0486 31.7773 40.4385C31.7285 40.8498 31.3556 41.1446 30.9443 41.0957C30.5333 41.0466 30.2393 40.6728 30.2881 40.2617C30.5732 37.8621 31.3259 36.2311 32.0967 35.1533C31.9384 35.1156 31.7815 35.0687 31.6289 35.0078L30.7451 34.6855H30.7441C30.2727 34.5293 29.761 34.5293 29.29 34.6875L28.3945 35.0098L28.3936 35.0088C28.2323 35.0694 28.0672 35.1162 27.9004 35.1523C28.6715 36.2301 29.4248 37.8612 29.71 40.2617C29.7588 40.673 29.465 41.0468 29.0537 41.0957C28.6425 41.1443 28.2695 40.8497 28.2207 40.4385C27.9367 38.0485 27.1525 36.6 26.4834 35.7637C26.1467 35.3429 25.8321 35.0693 25.6123 34.9053C25.5613 34.8673 25.5156 34.8343 25.4756 34.8076C25.4086 34.7712 25.3436 34.7311 25.2793 34.6904C25.2365 34.6683 25.1968 34.6421 25.1602 34.6133C24.9424 34.4628 24.7434 34.287 24.5654 34.0908L24.1602 34.2275C23.9478 34.3074 23.7726 34.4559 23.6611 34.6436L23.3779 35.125L23.374 35.1328C23.2895 35.2732 23.1895 35.4022 23.0801 35.5215C23.4423 35.7587 23.8266 36.0738 24.208 36.4941C25.6713 38.1072 27.0303 41.1697 27.1826 46.9805C27.1934 47.3945 26.8662 47.7391 26.4521 47.75C26.0383 47.7606 25.6935 47.4334 25.6826 47.0195C25.5353 41.3998 24.2267 38.7466 23.0977 37.502C22.5344 36.8811 21.9972 36.5893 21.626 36.4502C21.4388 36.3801 21.2893 36.3472 21.1953 36.332C21.153 36.3252 21.1216 36.3218 21.1035 36.3203C20.8772 36.3072 20.6517 36.2651 20.4346 36.1904L20.4209 36.1855L19.9062 35.9971V35.998C19.689 35.922 19.4506 35.9219 19.2334 35.998L19.2324 35.9971L18.7178 36.1855L18.7051 36.1904H18.7041C18.167 36.3749 17.5813 36.3712 17.0469 36.1797C16.5124 35.988 16.0587 35.6192 15.7656 35.1328L15.7607 35.125L15.4756 34.6396V34.6387C15.3637 34.4528 15.1889 34.3066 14.9775 34.2275L14.4658 34.0605C14.4584 34.0581 14.4507 34.0554 14.4434 34.0527C13.908 33.8581 13.4557 33.4837 13.1689 32.9912C12.8848 32.503 12.7828 31.9309 12.8809 31.375L12.9697 30.8164L12.9736 30.7969C13.012 30.5916 12.9751 30.3784 12.8682 30.1953L12.8691 30.1943L12.584 29.7109L12.585 29.71C12.2933 29.2198 12.1862 28.6428 12.2861 28.0811C12.3866 27.5168 12.6877 27.0084 13.1318 26.6465H13.1328L13.5566 26.3008C13.7301 26.1547 13.846 25.9579 13.8887 25.7432L13.9746 25.2227L13.9775 25.2061C14.034 24.9074 14.1469 24.6248 14.3057 24.3711L14.0986 24.0205V24.0195C13.8184 23.5462 13.7174 22.9887 13.8154 22.4473C13.9136 21.9055 14.2036 21.4176 14.6309 21.0703L15.0273 20.7393L15.0508 20.7207C15.1988 20.6066 15.2938 20.4441 15.3223 20.2686L15.3242 20.2588L15.4141 19.7432L15.415 19.7393C15.509 19.2184 15.7783 18.7457 16.1768 18.3975C16.5753 18.0492 17.0806 17.8451 17.6084 17.8145L17.6514 17.8135H18.2119C18.4055 17.8188 18.5918 17.7515 18.7334 17.6289L18.7441 17.6201L19.1484 17.2822L19.1543 17.2764C19.5774 16.9303 20.1095 16.7423 20.6562 16.7422C20.8318 16.7422 21.0056 16.764 21.1748 16.8018C21.3658 16.0914 21.776 15.4555 22.3506 14.9844C23.0013 14.4509 23.821 14.1621 24.6641 14.165H25.6201C26.1168 14.163 26.5955 13.9884 26.9717 13.6758L26.9756 13.6729L27.71 13.0703L27.7129 13.0684C28.3637 12.539 29.1803 12.2501 30.0215 12.25ZM19.5693 23.5771C19.4631 23.5772 19.3585 23.5948 19.2598 23.627C19.2405 23.6346 19.2213 23.6434 19.2012 23.6494C19.1098 23.6857 19.0229 23.7341 18.9463 23.7959L18.5254 24.1523L18.5166 24.1602C18.0787 24.5187 17.528 24.7119 16.9619 24.7109V24.7119H16.3994C16.1703 24.7141 15.9506 24.7947 15.7783 24.9365C15.6061 25.0785 15.4912 25.273 15.4512 25.4844L15.3643 26.0117C15.363 26.0195 15.3619 26.0274 15.3604 26.0352C15.2506 26.5879 14.9546 27.0862 14.5234 27.4492L14.5127 27.457L14.0781 27.8105C13.9098 27.9482 13.7994 28.1378 13.7627 28.3438C13.7352 28.4984 13.7503 28.6571 13.8057 28.8037L13.874 28.9463L13.8779 28.9521L14.1631 29.4385V29.4395C14.4479 29.9271 14.5485 30.4982 14.4492 31.0537L14.4512 31.0547L14.3613 31.6133C14.3605 31.6186 14.3594 31.6245 14.3584 31.6299C14.3205 31.837 14.3575 32.0517 14.4648 32.2363C14.5717 32.4199 14.7433 32.5638 14.9512 32.6406L15.4727 32.8115L15.501 32.8223C16.0308 33.0199 16.4788 33.391 16.7676 33.877L16.7705 33.8809L17.0498 34.3584C17.1622 34.545 17.3401 34.691 17.5537 34.7676C17.7643 34.8429 17.9951 34.8448 18.207 34.7744L18.7275 34.585L18.7373 34.582C19.2084 34.417 19.7177 34.3967 20.1982 34.5205L20.4023 34.582L20.4111 34.585L20.9307 34.7744C21.1431 34.8454 21.3748 34.8431 21.5859 34.7676C21.7995 34.691 21.9764 34.545 22.0889 34.3584L22.3691 33.8809L22.3711 33.877C22.6597 33.3911 23.108 33.0201 23.6377 32.8223L23.6611 32.8135L24.1768 32.6387C24.3873 32.5636 24.561 32.4206 24.6699 32.2363C24.7791 32.0513 24.8178 31.8353 24.7803 31.627L24.7783 31.6133L24.6885 31.0547V31.0537C24.5893 30.4985 24.691 29.9269 24.9756 29.4395L24.9766 29.4385L25.2607 28.9521L25.2617 28.9512C25.3703 28.7668 25.409 28.5523 25.3721 28.3447C25.3355 28.1392 25.2265 27.9498 25.0605 27.8105L24.626 27.457L24.625 27.4561C24.1816 27.0941 23.8791 26.5877 23.7764 26.0244L23.7744 26.0117L23.6875 25.4844C23.6475 25.273 23.5336 25.0785 23.3613 24.9365C23.1889 24.7946 22.9686 24.714 22.7393 24.7119H22.1768V24.7109C21.611 24.7117 21.0607 24.5186 20.623 24.1602L20.6133 24.1523L20.1924 23.7959L20.0537 23.7021C19.9078 23.6212 19.7407 23.5771 19.5693 23.5771ZM30.0215 13.75C29.5236 13.7501 29.042 13.9198 28.6611 14.2285L27.9277 14.832L27.9268 14.8311C27.2815 15.3661 26.4678 15.6615 25.627 15.665H24.6611C24.1625 15.6628 23.6809 15.8337 23.3018 16.1445C22.9235 16.4548 22.6701 16.8838 22.585 17.3545L22.5859 17.3555L22.4209 18.2832C22.3482 18.6907 21.9584 18.9621 21.5508 18.8896C21.2362 18.8334 21.004 18.5883 20.9473 18.292C20.8551 18.2597 20.7565 18.2422 20.6562 18.2422C20.4532 18.2423 20.2575 18.3124 20.1045 18.4375L19.7148 18.7617L19.7158 18.7627C19.2935 19.1285 18.7493 19.3227 18.1914 19.3125V19.3135H17.6875C17.4916 19.3265 17.3073 19.4022 17.1641 19.5273C17.0192 19.6541 16.9245 19.8234 16.8916 20.0059L16.8906 20.0049L16.8027 20.5059L16.8037 20.5068C16.7154 21.0543 16.4227 21.5452 15.9893 21.8887L15.585 22.2275L15.5771 22.2344C15.425 22.3581 15.3246 22.5294 15.291 22.7148C15.2659 22.8536 15.279 22.9961 15.3281 23.1279L15.3896 23.2559V23.2568L15.4717 23.3965C15.7603 23.2797 16.0701 23.2149 16.3857 23.2119H16.9639C17.1854 23.2124 17.3984 23.1365 17.5654 23L17.9912 22.6396L18.0049 22.6279C18.0706 22.5749 18.1397 22.5262 18.21 22.4805C18.2182 22.0691 18.2984 21.6605 18.4502 21.2744C18.6704 20.7143 19.0316 20.2197 19.498 19.8369C19.8182 19.5742 20.2909 19.6214 20.5537 19.9414C20.8164 20.2616 20.7704 20.7343 20.4502 20.9971C20.1797 21.2191 19.9724 21.5037 19.8467 21.8232C19.8131 21.9087 19.785 21.9964 19.7637 22.085C20.1927 22.1183 20.6064 22.262 20.9629 22.502L21.1348 22.6279L21.1484 22.6396L21.5752 23.001C21.7418 23.1368 21.9541 23.2122 22.1748 23.2119H22.7529C23.3227 23.2171 23.8757 23.417 24.3154 23.7793C24.7002 24.0964 24.9788 24.5216 25.1133 24.998L25.1611 25.2061L25.165 25.2227L25.2539 25.7617C25.2929 25.967 25.4043 26.1554 25.5723 26.293L26.0068 26.6465L26.0117 26.6504C26.451 27.0138 26.7485 27.5196 26.8486 28.0811C26.9487 28.6428 26.8444 29.2213 26.5547 29.7129L26.5537 29.7119L26.2705 30.1943L26.2715 30.1953C26.1912 30.3327 26.1504 30.4874 26.1514 30.6426L26.166 30.7969L26.1689 30.8164L26.2568 31.3613L26.2852 31.5732C26.3291 32.0687 26.2166 32.5674 25.9619 32.999C25.9164 33.076 25.8648 33.1488 25.8115 33.2197C25.8765 33.2785 25.945 33.334 26.0176 33.3838C26.0461 33.399 26.0816 33.419 26.123 33.4434C26.1529 33.461 26.1858 33.4822 26.2217 33.5049C26.3102 33.5511 26.4021 33.593 26.498 33.626C26.9446 33.7793 27.4331 33.7712 27.874 33.6035L27.8867 33.5986L28.7861 33.2754L28.7988 33.2705C29.5909 33.0011 30.4521 33.0012 31.2441 33.2705C31.2494 33.2723 31.2555 33.2745 31.2607 33.2764L32.1445 33.5996C32.1531 33.6028 32.1624 33.6069 32.1709 33.6104C32.5967 33.7844 33.075 33.7942 33.5088 33.6387C33.5673 33.6177 33.6242 33.5928 33.6797 33.5664C33.7541 33.5164 33.8201 33.4757 33.875 33.4434C33.9224 33.4155 33.9618 33.3929 33.9922 33.377C34.0602 33.3259 34.1237 33.2697 34.1836 33.21C34.1326 33.1414 34.0838 33.0703 34.04 32.9961C33.7505 32.5053 33.6435 31.9286 33.7402 31.3672L33.7422 31.3555L33.8477 30.7969C33.9242 30.3901 34.3158 30.1222 34.7227 30.1982C35.1298 30.2746 35.3977 30.6671 35.3213 31.0742L35.2188 31.6221L35.2061 31.7793C35.207 31.9375 35.2497 32.0948 35.332 32.2344C35.3855 32.3249 35.455 32.4055 35.5361 32.4736C35.5789 32.4976 35.6182 32.526 35.6543 32.5566C35.7074 32.589 35.7635 32.6176 35.8232 32.6396L36.3369 32.8135C36.3464 32.8167 36.3569 32.8206 36.3662 32.8242C36.8237 32.9993 37.2219 33.2991 37.5137 33.6885L37.6318 33.8613L37.6523 33.8955L37.9062 34.3545L38.0039 34.4863C38.1123 34.6096 38.2533 34.706 38.4141 34.7637C38.627 34.8399 38.8605 34.8423 39.0752 34.7715L39.6074 34.583C40.1427 34.3926 40.7294 34.3927 41.2646 34.583H41.2637L41.7998 34.7734C42.0105 34.8447 42.2412 34.8423 42.4512 34.7666C42.6621 34.6904 42.8362 34.5457 42.9463 34.3613L43.2275 33.8809L43.2305 33.877C43.5192 33.391 43.9673 33.02 44.4971 32.8223L44.5254 32.8115L45.0488 32.6396C45.2584 32.5624 45.4312 32.4186 45.54 32.2344C45.6497 32.0485 45.6894 31.8317 45.6533 31.6221H45.6523L45.5508 31.0762V31.0771C45.4429 30.5177 45.5481 29.9401 45.8418 29.4531L46.1113 28.9678L46.124 28.9463C46.2336 28.7636 46.2721 28.5501 46.2354 28.3438C46.1986 28.1378 46.0884 27.9482 45.9199 27.8105L45.4854 27.457L45.4795 27.4531C45.0386 27.0881 44.7423 26.5775 44.6484 26.0127V26.0117L44.5469 25.4873L44.5459 25.4785C44.5079 25.2697 44.396 25.0775 44.2266 24.9365C44.0991 24.8307 43.9448 24.7587 43.7803 24.7285L43.6123 24.7119H43.0508V24.7109C42.4798 24.7152 41.9232 24.5221 41.4814 24.1602L41.4727 24.1523L41.0469 23.792L40.9111 23.6992C40.7685 23.6188 40.6043 23.5752 40.4355 23.5752C40.2107 23.5754 39.9943 23.6531 39.8252 23.792L39.3994 24.1523C39.3953 24.1559 39.3909 24.1597 39.3867 24.1631C38.9443 24.5207 38.3903 24.7127 37.8213 24.7109V24.7119H37.2539C37.0281 24.7129 36.8114 24.7922 36.6426 24.9326C36.4739 25.0729 36.3633 25.2654 36.3271 25.4736L36.3252 25.4873L36.2227 26.0117C36.1288 26.5767 35.8336 27.088 35.3926 27.4531L35.3867 27.457L34.9521 27.8105C34.6307 28.0712 34.1585 28.0224 33.8975 27.7012C33.6365 27.3798 33.6857 26.9077 34.0068 26.6465L34.4355 26.2969C34.6016 26.1594 34.7092 25.971 34.7432 25.7666C34.7442 25.7604 34.7459 25.7542 34.7471 25.748L34.8516 25.2031H34.8525C34.9528 24.6454 35.2477 24.1419 35.6836 23.7793C36.123 23.414 36.6778 23.214 37.249 23.2119H37.8242C38.0493 23.2129 38.2659 23.1367 38.4375 23L38.8652 22.6396L38.874 22.6328C39.2726 22.3055 39.7642 22.1142 40.2764 22.0811C40.2517 21.9823 40.2206 21.8847 40.1807 21.79C40.0517 21.4847 39.8471 21.2134 39.584 21.002C39.58 20.9987 39.5762 20.9945 39.5723 20.9912L38.8525 20.3887V20.3877C38.197 19.8551 37.7568 19.1047 37.6201 18.2734V18.2725L37.457 17.3555V17.3545C37.3664 16.8865 37.1126 16.4607 36.7354 16.1514C36.4029 15.879 35.993 15.7125 35.5615 15.6738L35.376 15.665H34.4189C33.5764 15.6646 32.76 15.3693 32.1152 14.8311V14.832L31.3809 14.2295V14.2285C31 13.9201 30.5191 13.75 30.0215 13.75ZM39.3643 18.2275C39.2924 18.2276 39.2218 18.2397 39.1543 18.2588C39.2484 18.5791 39.4243 18.8727 39.6689 19.1094L39.8047 19.2295L39.8164 19.2393L40.5234 19.832C40.9785 20.1977 41.336 20.6698 41.5625 21.2061C41.7375 21.6204 41.8289 22.063 41.835 22.5098L41.998 22.6328L42.0068 22.6396L42.4326 23L42.5674 23.0918C42.7101 23.1716 42.8746 23.2137 43.043 23.2119H43.6279C43.9383 23.2152 44.2433 23.2786 44.5273 23.3926L44.6084 23.2568V23.2559C44.706 23.0913 44.7405 22.8999 44.707 22.7148C44.6734 22.5293 44.5732 22.3581 44.4209 22.2344L44.4131 22.2275L44.0078 21.8896L44.0059 21.8867C43.5954 21.5399 43.311 21.0673 43.2012 20.541C43.1995 20.5331 43.1977 20.5246 43.1963 20.5166L43.1064 20.002L43.1055 20C43.0742 19.8187 42.981 19.6504 42.8369 19.5244C42.6942 19.3998 42.5103 19.3248 42.3154 19.3135H41.8066V19.3125C41.2624 19.3189 40.7329 19.13 40.3174 18.7783V18.7793L39.8975 18.4414C39.8886 18.4342 39.8797 18.4265 39.8711 18.4189C39.7339 18.2975 39.5531 18.2275 39.3643 18.2275Z" fill="white"/>
</svg>
