<svg width="24" height="24" viewBox="0 0 24 24" fill="none" xmlns="http://www.w3.org/2000/svg">
<g opacity="0.6">
<path d="M21.4671 13.2533C20.3414 13.8199 18.601 14.0848 17.6635 14.9408C16.5916 15.915 16.3765 17.9 15.781 19.2044C15.6081 19.5794 15.4198 19.506 15.2431 19.1759C14.6322 18.0264 14.5208 16.1962 13.5987 15.1487C12.7266 14.1582 10.7979 13.8688 9.65301 13.2696C9.5147 13.2003 9.4686 13.0047 9.49934 12.8498C9.53776 12.6704 12.2694 11.7655 12.7035 11.5373C14.3441 10.6772 14.5131 8.72886 15.1509 7.09028C15.293 6.73158 15.3468 6.36881 15.7656 6.7805C16.4648 8.41501 16.607 10.5672 18.2437 11.4884C19.1734 12.0101 20.4144 12.2914 21.3941 12.7438C21.6131 12.8661 21.6054 13.0536 21.4671 13.2533Z" fill="#185D66"/>
<path d="M7.38244 2.52012C7.48617 2.59349 8.06631 4.62338 8.24304 4.98208C8.89233 6.29457 10.2024 6.31496 11.3512 6.87338C11.6585 7.02419 11.6163 7.15463 11.3281 7.3299C10.579 7.78234 9.25732 7.88832 8.63108 8.57718C7.928 9.34756 7.87421 10.8761 7.25181 11.7076C7.01361 11.7076 6.40658 9.47799 6.21064 9.09892C5.56903 7.85164 4.15518 7.92093 3.17548 7.3299C2.89502 7.1587 2.83355 7.02012 3.14859 6.87338C4.39723 6.2905 5.59208 6.32311 6.27211 4.90056C6.49879 4.42365 6.88682 2.85844 7.07124 2.61795C7.15192 2.51605 7.3056 2.46714 7.38628 2.5242L7.38244 2.52012Z" fill="#185D66"/>
<path d="M8.95451 17.9726C8.98524 18.1397 8.91225 18.1723 8.80467 18.2497C8.45505 18.5065 7.62903 18.6451 7.19873 18.8938C6.23439 19.4522 6.33044 20.6261 5.77336 21.4902C5.58894 21.5351 5.64273 21.4169 5.59279 21.2946C5.35458 20.7158 5.13175 19.5989 4.71682 19.1872C4.19431 18.6655 3.09551 18.5677 2.5 18.1152C2.5 17.891 4.04447 17.459 4.31341 17.3041C5.27006 16.7538 5.17785 15.478 5.76952 14.6465C5.87325 14.6465 6.36886 16.2851 6.48796 16.5256C6.97589 17.4997 8.05933 17.5935 8.95067 17.9726H8.95451Z" fill="#185D66"/>
</g>
</svg>
