<svg width="64" height="64" viewBox="0 0 64 64" fill="none" xmlns="http://www.w3.org/2000/svg">
<path d="M31.7002 15.501C32.1122 15.5227 32.512 15.65 32.8584 15.8711C33.1618 16.0648 33.4161 16.3248 33.6006 16.6309L33.6748 16.7646C34.0305 17.4573 34.2168 18.2232 34.2168 18.999C34.2167 19.7748 34.0304 20.5389 33.6748 21.2314C33.669 21.2427 33.6628 21.2539 33.6562 21.2646C33.1349 22.1143 32.3918 22.8 31.5156 23.2607C31.5208 23.2585 31.5261 23.2561 31.5312 23.2539L31.7217 23.1807C32.1704 23.0271 32.6547 22.9968 33.1211 23.0947C33.5877 23.1928 34.0183 23.4145 34.3643 23.7363L34.5068 23.8809L34.5283 23.9053C35.0192 24.5162 35.2553 25.2302 35.4844 25.7607C35.7222 26.3117 35.9786 26.7585 36.502 27.1025C37.0494 27.4356 37.6519 27.6755 38.2832 27.8115L38.2939 27.8145C39.381 28.0741 40.5019 28.1788 41.6201 28.126C41.7339 28.1207 41.8398 28.1556 41.9268 28.2158C42.2686 28.1628 42.617 28.1385 42.9668 28.1436L43.0479 28.1514C43.486 28.2306 43.8996 28.4118 44.2529 28.6797C44.5624 28.9143 44.8184 29.2103 45.0039 29.5479L45.0791 29.6943L45.083 29.7031C45.2705 30.1206 45.337 30.5814 45.2754 31.0342C45.2321 31.3517 45.1253 31.6551 44.9658 31.9307C44.9767 31.9368 44.9885 31.9431 44.999 31.9502C45.4251 32.2368 45.7784 32.6169 46.0293 33.0615C46.2765 33.4997 46.4169 33.9885 46.4404 34.4893L46.4795 35.0488C46.6154 37.7145 46.0829 40.3724 44.9326 42.7949C44.9355 42.7962 44.9385 42.7976 44.9414 42.7988C45.2816 42.9481 45.589 43.1623 45.8447 43.4277L45.9512 43.5449L45.9658 43.5625C46.2398 43.9133 46.4133 44.331 46.4668 44.7715C46.5198 45.2088 46.4516 45.6512 46.2715 46.0537L46.2725 46.0547C45.9436 46.8213 45.4311 47.499 44.7793 48.0303C44.1275 48.5615 43.3546 48.9308 42.5273 49.1094C42.5136 49.1123 42.4993 49.1154 42.4854 49.1172C41.7048 49.217 40.9111 49.1638 40.1514 48.9609C39.5111 48.7899 38.9058 48.5139 38.3594 48.1475C37.911 48.5392 37.4194 48.8821 36.873 49.0889V49.0879C36.4556 49.2464 36.0326 49.3089 35.6152 49.2959C35.5544 49.3222 35.4874 49.3379 35.417 49.3379C35.1838 49.3379 34.9384 49.3655 34.6641 49.4014C34.3993 49.436 34.0985 49.4796 33.7998 49.499C33.7892 49.4997 33.7782 49.5 33.7676 49.5H30.8066C26.4814 49.3722 21.6343 48.1294 19.3711 43.8135V43.8125C17.5194 40.4313 16.8001 35.7204 18.7441 32.1367C18.5128 31.956 18.2973 31.7508 18.1016 31.5264C17.4023 30.7242 16.9097 29.66 16.6689 28.5732C16.4286 27.4883 16.4302 26.3354 16.7705 25.3555C17.1159 24.3613 17.8173 23.5359 18.9473 23.1973V23.1982C19.4505 23.0381 19.9929 23.0374 20.4961 23.1982C20.7864 23.2911 21.0546 23.4368 21.29 23.623C21.3482 23.2763 21.4861 22.9448 21.6963 22.6562C22.0005 22.2388 22.4372 21.9345 22.9346 21.7881L22.9531 21.7832C23.6515 21.6079 24.3305 21.684 24.8447 21.6982C25.3784 21.713 25.8254 21.6755 26.293 21.3926C26.7692 21.0735 27.1882 20.6802 27.5332 20.2295L27.5391 20.2227L27.7656 19.9258C28.2813 19.2252 28.7042 18.4631 29.0225 17.6582C29.0684 17.5423 29.1533 17.454 29.2559 17.4004C29.337 17.1439 29.437 16.892 29.5566 16.6475L29.5967 16.5801C29.8289 16.2484 30.1392 15.9776 30.5 15.79C30.8608 15.6025 31.2623 15.5031 31.6699 15.5L31.7002 15.501ZM29.3408 30.0381C28.2318 29.9139 27.113 30.1705 26.1787 30.7637C26.154 30.7793 26.1276 30.7936 26.1006 30.8047C25.3501 31.1132 24.5826 31.5831 23.668 32.042C22.7998 32.4776 21.8338 32.8797 20.8623 32.9004L20.8516 32.9014V32.9004C20.4067 32.9004 19.9898 32.8079 19.6045 32.6465C17.953 35.7299 18.4654 39.8735 20.0869 43.0293L20.252 43.3408L20.2568 43.3486C22.2558 47.1605 26.6 48.3749 30.8359 48.5H33.3447C32.584 47.9895 31.9091 47.2787 31.3975 46.4883C30.7891 45.5484 30.3841 44.4607 30.3535 43.4209C30.3226 42.367 30.6806 41.3449 31.6123 40.6367L31.626 40.626C32.0587 40.3207 32.5789 40.1572 33.1104 40.1572C33.5751 40.1574 34.0304 40.2829 34.4268 40.5186L34.5938 40.626L34.5996 40.6299C35.2205 41.0813 35.6207 41.699 35.9668 42.1426C36.3252 42.602 36.6746 42.9603 37.2529 43.1582C37.8553 43.348 38.4885 43.4329 39.1211 43.4072H39.127C40.3404 43.3711 41.5429 43.1711 42.7002 42.8145C42.7122 42.8108 42.7253 42.8094 42.7373 42.8066C43.0222 42.687 43.3296 42.5982 43.6631 42.5605L43.7061 42.5576C43.7823 42.5556 43.8587 42.5566 43.9346 42.5605C45.1572 40.0768 45.6804 37.321 45.4443 34.5752C45.4437 34.5676 45.4437 34.5594 45.4434 34.5518C45.4294 34.2026 45.3317 33.8602 45.1582 33.5527C45.0326 33.3303 44.8686 33.1307 44.6748 32.9609C41.6777 34.6197 38.2748 35.4557 34.8271 35.375C32.1328 35.5265 29.4299 35.4591 26.7471 35.1738H26.7461C25.4545 35.0336 24.1802 34.7666 22.9434 34.377C22.6801 34.2939 22.5343 34.0133 22.6172 33.75C22.7002 33.4867 22.9808 33.3399 23.2441 33.4229C24.4181 33.7927 25.6281 34.0465 26.8545 34.1797H26.8535C29.4845 34.4594 32.1352 34.5248 34.7773 34.376C34.7908 34.3752 34.8049 34.3756 34.8184 34.376C36.2001 34.4107 37.5741 34.2872 38.915 34.0186C37.9451 33.6668 37.0718 33.0863 36.3799 32.3193C35.7975 32.6219 35.1819 32.8604 34.5479 32.9336H34.5469C33.4011 33.0625 32.3766 32.5876 31.5723 31.8418C31.5522 31.8232 31.5325 31.8032 31.5127 31.7842C31.5019 31.8869 31.485 31.9896 31.4609 32.0908C31.3582 32.5229 31.1388 32.9193 30.8271 33.2383C30.6342 33.4357 30.3176 33.4388 30.1201 33.2461C29.9226 33.0532 29.9184 32.7366 30.1113 32.5391C30.2978 32.3481 30.428 32.1132 30.4883 31.8594C30.5478 31.6088 30.5368 31.3475 30.459 31.1016C30.3706 30.8488 30.2218 30.6187 30.0225 30.4316C29.8304 30.2514 29.5967 30.1175 29.3408 30.0381ZM33.1104 41.1572C32.7844 41.1572 32.4672 41.2572 32.2051 41.4414C31.5887 41.916 31.3292 42.5975 31.3525 43.3916C31.3765 44.2048 31.7014 45.1164 32.2373 45.9443C32.7723 46.7708 33.4934 47.4755 34.2637 47.8926C35.0311 48.308 35.811 48.4219 36.5186 48.1533L36.7686 48.0439C37.3464 47.7579 37.8938 47.2572 38.4541 46.6562C39.058 46.0085 39.7111 45.1997 40.3428 44.6387C40.467 44.5253 40.5981 44.4 40.7354 44.2705C40.2141 44.3434 39.6886 44.3894 39.1611 44.4053L39.1621 44.4062C38.4139 44.4366 37.6658 44.3368 36.9531 44.1123L36.9434 44.1094C36.0826 43.8189 35.5815 43.2754 35.1777 42.7578C34.7596 42.2218 34.4829 41.7827 34.0107 41.4395H34.0098C33.7486 41.2572 33.4343 41.1574 33.1104 41.1572ZM43.752 43.5576C43.2437 43.6204 42.7923 43.8532 42.3477 44.1885C41.8813 44.5401 41.4819 44.9534 41.0166 45.3779L41.0117 45.3828C40.4222 45.9052 39.8722 46.6014 39.1855 47.3379C39.1563 47.3693 39.1254 47.4002 39.0957 47.4316C39.5022 47.6796 39.9441 47.8709 40.4092 47.9951C41.0349 48.1622 41.689 48.2061 42.333 48.127C43.0012 47.98 43.6236 47.6818 44.1475 47.2549C44.6757 46.8244 45.0891 46.2769 45.3535 45.6602L45.3574 45.6514C45.4655 45.4124 45.5059 45.1497 45.4746 44.8916C45.4434 44.6352 45.3419 44.3906 45.1807 44.1826C45.0058 43.9836 44.7871 43.8233 44.54 43.7148C44.2928 43.6064 44.0235 43.5532 43.752 43.5576ZM42.9033 29.1436C41.7491 29.1375 40.6278 29.5158 39.7256 30.2139C39.7044 30.2302 39.6817 30.245 39.6582 30.2578C38.9232 30.6558 38.1908 31.2166 37.3076 31.7793C37.2948 31.7875 37.2805 31.7946 37.2676 31.8027C38.0747 32.6275 39.1445 33.1736 40.3135 33.3457C41.0129 33.3655 41.7072 33.2241 42.3379 32.9307C42.9757 32.6339 43.5295 32.1916 43.9531 31.6436L43.9629 31.6309C44.1375 31.4188 44.2488 31.166 44.2852 30.8994C44.3213 30.6342 44.2815 30.3644 44.1719 30.1182C44.0528 29.8682 43.8746 29.6474 43.6494 29.4766C43.4314 29.3113 43.1754 29.1979 42.9033 29.1436ZM32.916 24.0732C32.5837 24.0035 32.2372 24.0384 31.9277 24.1719L31.9229 24.1738C31.1723 24.4884 30.729 25.1057 30.542 25.9062C30.3519 26.7202 30.4353 27.7068 30.75 28.6631C31.0643 29.618 31.5954 30.4995 32.252 31.1084C32.9054 31.7144 33.6528 32.0279 34.4336 31.9404L34.7129 31.8936C35.3685 31.7534 36.0518 31.3937 36.7695 30.9365C37.5334 30.4499 38.3908 29.8118 39.1484 29.3965C39.3072 29.2755 39.4717 29.1629 39.6406 29.0586C39.11 29 38.5825 28.9113 38.0625 28.7871V28.7861C37.3226 28.6255 36.615 28.3442 35.9717 27.9512L35.8193 27.8457C35.1442 27.3549 34.8162 26.7358 34.5664 26.1572C34.2939 25.5261 34.1319 25.0167 33.7617 24.5488C33.5393 24.3099 33.2443 24.1423 32.916 24.0732ZM20.1914 24.1514C19.8841 24.0532 19.5521 24.0534 19.2451 24.1523L19.2344 24.1553C18.4655 24.3857 17.9746 24.9358 17.7148 25.6836C17.45 26.4461 17.4342 27.4036 17.6455 28.3574C17.8564 29.3093 18.2838 30.2134 18.8555 30.8691C19.4257 31.5232 20.1093 31.9004 20.8516 31.9004C21.5818 31.8821 22.3734 31.5731 23.2197 31.1484C24.0087 30.7526 24.8996 30.2239 25.6768 29.8984C25.8369 29.7983 26.0018 29.7067 26.1699 29.623C25.691 29.5142 25.2169 29.3832 24.751 29.2266V29.2256C24.0271 29.0006 23.3495 28.6509 22.752 28.1914L22.7461 28.1865C22.0368 27.6246 21.7569 26.9456 21.5605 26.3213C21.3581 25.6776 21.2548 25.1703 20.9365 24.6787C20.7526 24.433 20.4923 24.2476 20.1914 24.1514ZM29.4434 26.6768C29.1237 26.9473 28.7543 27.1622 28.3594 27.3232C27.4446 27.696 26.3609 27.8041 25.334 27.6846C24.4582 27.5825 23.5908 27.3092 22.8799 26.8623C23.0028 27.0561 23.1558 27.2346 23.3613 27.3984C23.8038 27.7387 24.2992 28.0088 24.8281 28.1982L25.0576 28.2744L25.0693 28.2783L25.4873 28.4111C26.4663 28.7056 27.4777 28.8895 28.501 28.958C28.5683 28.9625 28.6325 28.9797 28.6895 29.0078C28.8781 29.0045 29.0676 29.0105 29.2568 29.0254L29.5107 29.0508L29.5898 29.0664C29.6842 29.0938 29.7767 29.127 29.8672 29.1641C29.8448 29.1015 29.8205 29.0395 29.7998 28.9766C29.5537 28.2287 29.4221 27.436 29.4434 26.6768ZM29.0566 19.7988C28.832 20.1599 28.5881 20.5101 28.3223 20.8447L28.3213 20.8438C27.9074 21.3829 27.4064 21.8529 26.8369 22.2324C26.8314 22.2361 26.825 22.2397 26.8193 22.2432C26.1033 22.6794 25.4209 22.715 24.8174 22.6982C24.1973 22.681 23.7292 22.6226 23.21 22.75C22.9227 22.8361 22.6747 23.0107 22.5039 23.2451C22.3318 23.4814 22.2462 23.7662 22.2588 24.0527C22.2593 24.065 22.2601 24.0775 22.2598 24.0898C22.2379 24.8026 22.5673 25.3831 23.1426 25.8301C23.7286 26.2852 24.5572 26.5874 25.4492 26.6914C26.34 26.7951 27.2495 26.6957 27.9814 26.3975C28.693 26.1074 29.2022 25.6461 29.4219 25.0283C29.5998 23.4442 29.508 21.8421 29.1484 20.2871C29.1101 20.1253 29.0799 19.9623 29.0566 19.7988ZM31.2227 23.4033C30.9913 23.5084 30.752 23.5992 30.5059 23.6729C30.5046 23.7611 30.5048 23.8493 30.502 23.9375C30.7085 23.7322 30.9485 23.5527 31.2227 23.4033ZM31.6631 16.5C31.4176 16.5041 31.1766 16.5657 30.9609 16.6777C30.7511 16.7869 30.5721 16.9417 30.4355 17.1279C30.0268 17.9851 29.9034 18.9435 30.0811 19.8691L30.1221 20.0566V20.0596C30.3175 20.9043 30.4395 21.7623 30.4873 22.624C31.4471 22.2722 32.2607 21.6167 32.793 20.7578C33.0709 20.2102 33.2167 19.6088 33.2168 18.999C33.2168 18.3829 33.0686 17.7738 32.7852 17.2217C32.6797 17.0172 32.5199 16.8413 32.3203 16.7139C32.1245 16.589 31.8977 16.515 31.6631 16.5Z" fill="white"/>
</svg>
