<svg width="64" height="64" viewBox="0 0 64 64" fill="none" xmlns="http://www.w3.org/2000/svg">
<path d="M42.5322 12.8242C42.6293 12.5658 42.9173 12.4351 43.1758 12.5322C43.4342 12.6294 43.5649 12.9173 43.4678 13.1758L40.2402 21.7676C40.271 21.8137 40.2962 21.8651 40.3105 21.9219C41.2965 25.8247 41.5179 30.2015 40.5967 34.2383C40.635 34.3957 40.5941 34.5571 40.4932 34.6768C40.034 36.5096 39.3345 38.2657 38.3545 39.8662L38.3535 39.8652C37.8844 40.6353 37.8883 41.4382 38.1182 42.3525C38.2343 42.8142 38.4046 43.2895 38.5938 43.7939C38.7797 44.2899 38.9848 44.8191 39.1533 45.3535L39.3281 45.8623C39.3902 46.0344 39.4553 46.21 39.5215 46.3916C39.6514 46.7484 39.7839 47.1237 39.8848 47.5029C40.0859 48.2594 40.1794 49.0894 39.8613 49.9131L39.8574 49.9258C39.5606 50.6392 39.0573 51.2509 38.4121 51.6895C37.7719 52.1245 37.018 52.37 36.2402 52.3994C34.3902 52.5327 32.5326 52.5337 30.6826 52.4004V52.3994C28.6674 52.278 27.4614 51.6426 26.9619 50.498C26.4952 49.4283 26.7428 48.0864 27.1035 46.8154C27.2884 46.1638 27.5181 45.4857 27.7334 44.8281C27.9509 44.1638 28.1549 43.5144 28.3027 42.8936C28.6045 41.6259 28.6325 40.61 28.1865 39.8828C28.1827 39.8767 28.1793 39.8696 28.1758 39.8633C26.3705 36.611 25.3935 32.9891 25.3232 29.3008C25.1445 29.3179 24.965 29.3274 24.7852 29.3271L24.7842 29.3262C23.3875 29.326 22.0447 28.7883 21.0527 27.8252C20.0601 26.8614 19.5 25.5502 19.5 24.1807C19.5001 22.8113 20.0603 21.5008 21.0527 20.5371C22.0449 19.5738 23.3882 19.0352 24.7852 19.0352C26.0061 19.0352 27.1857 19.4465 28.126 20.1934C29.303 19.4823 30.6823 19.1079 32.0605 18.998C33.9352 18.8486 35.8589 19.1821 37.3691 19.8701C37.6203 19.9846 37.7315 20.281 37.6172 20.5322C37.5027 20.7834 37.2063 20.8946 36.9551 20.7803C35.6103 20.1676 33.8575 19.8581 32.1396 19.9951C30.9688 20.0885 29.8378 20.3866 28.8711 20.917C29.5953 21.7765 30.0162 22.8457 30.0645 23.9648C30.4669 24.0131 30.8723 24.0434 31.2793 24.0527C32.9522 24.0912 34.6152 23.7967 36.166 23.1885C36.4231 23.0877 36.7136 23.2147 36.8145 23.4717C36.9152 23.7287 36.7883 24.0193 36.5312 24.1201C34.8566 24.7769 33.0617 25.0941 31.2568 25.0527C29.6337 25.0154 28.0328 24.6874 26.5332 24.0889C26.4808 24.3439 26.438 24.6088 26.4062 24.8818C26.2592 26.1442 26.3222 27.4548 26.3223 28.5635V28.5713H26.3213C26.3065 29.6312 26.3726 30.6871 26.5127 31.7314C26.591 31.8116 26.6452 31.9167 26.6553 32.0371C26.7146 32.7446 27.1348 33.1492 27.7578 33.3535C28.4091 33.567 29.2406 33.5362 29.9229 33.334C30.6194 33.1275 31.3156 32.7307 32.127 32.3008C32.9135 31.884 33.7893 31.4485 34.7549 31.2627C35.0516 31.1937 35.3522 31.1515 35.6533 31.1357L42.5322 12.8242ZM34.3125 37.5508C34.2154 37.8091 33.9273 37.9406 33.6689 37.8438C33.4105 37.7467 33.2799 37.4577 33.377 37.1992L35.2607 32.1816C35.1617 32.1976 35.063 32.217 34.9648 32.2402C34.9581 32.2418 34.9512 32.2438 34.9443 32.2451C34.1396 32.4 33.38 32.769 32.5957 33.1846C31.8363 33.587 31.0254 34.0503 30.207 34.293C29.3741 34.5398 28.3302 34.5935 27.4463 34.3037C27.2802 34.2492 27.1187 34.1816 26.9648 34.1006C27.4224 35.9288 28.1195 37.7008 29.0459 39.3711C29.7081 40.4615 29.5854 41.8266 29.2764 43.125C29.1181 43.7896 28.9014 44.4732 28.6836 45.1387C28.4636 45.8108 28.2433 46.4612 28.0654 47.0879C27.7005 48.3738 27.5692 49.391 27.8779 50.0986C28.1537 50.7302 28.8757 51.2906 30.748 51.4023H30.7539C32.5563 51.5322 34.3666 51.5322 36.1689 51.4023C36.1753 51.4019 36.1821 51.4016 36.1885 51.4014C36.7857 51.3814 37.3634 51.1944 37.8506 50.8633C38.3361 50.5333 38.7096 50.0746 38.9307 49.5459C39.1357 49.009 39.0948 48.4248 38.918 47.7598C38.8294 47.4267 38.7108 47.0869 38.582 46.7334C38.4557 46.3866 38.3167 46.0187 38.2012 45.6582L38.2002 45.6562C38.0419 45.154 37.8498 44.6592 37.6572 44.1455C37.4676 43.6397 37.2786 43.1172 37.1475 42.5957C36.8831 41.5437 36.8381 40.4326 37.501 39.3447H37.502C38.4428 37.8082 39.1137 36.1097 39.5498 34.3291C39.1694 33.5688 38.5421 32.9439 37.7568 32.5557C37.3111 32.3354 36.8301 32.1998 36.3398 32.1504L34.3125 37.5508ZM29.7637 48.2637C32.046 48.9609 34.495 48.9609 36.7773 48.2637C37.0413 48.1833 37.3207 48.3318 37.4014 48.5957C37.4819 48.8597 37.3332 49.1389 37.0693 49.2197C34.5966 49.9751 31.9445 49.9751 29.4717 49.2197C29.2078 49.139 29.0591 48.8597 29.1396 48.5957C29.2203 48.3318 29.4997 48.1832 29.7637 48.2637ZM36.7021 31.1875C37.2195 31.2665 37.7248 31.4247 38.1992 31.6592C38.8365 31.9742 39.3927 32.4164 39.8359 32.9512C40.3827 29.8238 40.2567 26.5108 39.623 23.4092L36.7021 31.1875ZM24.7852 20.0352C23.644 20.0352 22.5525 20.4757 21.75 21.2549C20.9481 22.0335 20.5001 23.0861 20.5 24.1807C20.5 25.2753 20.948 26.3287 21.75 27.1074C22.5525 27.8865 23.6441 28.3271 24.7852 28.3271H24.7861C24.9645 28.3274 25.1424 28.3155 25.3193 28.2949C25.3112 27.2844 25.2701 25.9929 25.4131 24.7656C25.5689 23.4282 25.9548 22.046 26.9424 21.0957L26.9434 21.0947C27.0487 20.9937 27.1573 20.8968 27.2686 20.8037C26.5489 20.3083 25.6826 20.0352 24.7852 20.0352ZM28.0293 21.4746C27.8929 21.5826 27.7603 21.6951 27.6348 21.8154L27.6357 21.8164C27.2728 22.1656 27.0042 22.6096 26.8076 23.1221C27.5323 23.4183 28.2837 23.6446 29.0508 23.8008C28.9691 22.9434 28.6132 22.1298 28.0293 21.4746Z" fill="white"/>
</svg>
