<svg width="64" height="64" viewBox="0 0 64 64" fill="none" xmlns="http://www.w3.org/2000/svg">
<path d="M33.083 14.5947C33.3067 14.4329 33.6193 14.4834 33.7812 14.707C33.9431 14.9308 33.8927 15.2434 33.6689 15.4053C33.0711 15.8379 32.6068 16.4352 32.3301 17.127C32.097 17.7098 31.9913 18.2882 32.0342 18.8779C32.2315 18.9101 32.4255 18.9638 32.6113 19.041C32.9377 19.1766 33.2334 19.3773 33.4805 19.6309C33.7275 19.8845 33.921 20.1859 34.0498 20.5166C34.1771 20.8433 34.2381 21.1924 34.2305 21.543H34.2314C34.2314 21.6031 34.2257 21.663 34.2217 21.7227C35.7675 22.069 37.206 22.8014 38.4023 23.8584C39.6894 24.9956 40.6461 26.4642 41.1758 28.1055C42.342 28.238 43.4535 28.716 44.3643 29.4912C45.5803 30.5264 46.339 32.0075 46.4766 33.6074L46.4941 33.8623C46.5523 35.1407 46.2058 36.408 45.502 37.4775L45.4961 37.4863C44.8678 38.3961 44.1596 39.2468 43.3809 40.0283L43.3799 40.0303L43.3584 40.0508C43.1614 42.0566 42.613 44.0158 41.7314 45.833C41.3987 46.6921 40.9055 47.4786 40.2764 48.1475C39.637 48.8271 38.871 49.3724 38.0225 49.752C38.0043 49.7601 37.9858 49.7675 37.9668 49.7734C36.1297 50.3431 34.5838 50.5 32.3398 50.5C30.1077 50.5 28.3632 50.3811 26.4287 49.7725C26.4103 49.7667 26.3916 49.7598 26.374 49.752C25.5256 49.3724 24.7594 48.827 24.1201 48.1475C23.4901 47.4776 22.9968 46.6896 22.6641 45.8291L22.4648 45.3936C21.7219 43.7098 21.2577 41.9166 21.0869 40.0859C20.012 39.4559 19.1144 38.5561 18.4805 37.4727L18.3467 37.2559C17.7026 36.1586 17.4131 34.8824 17.5225 33.6074C17.5887 32.8146 17.8094 32.0428 18.1709 31.3359C18.5327 30.6286 19.029 29.9995 19.6318 29.4863C20.2346 28.9733 20.9319 28.5853 21.6836 28.3457C22.0553 28.2272 22.4368 28.1457 22.8223 28.1025C23.3375 26.6122 24.2014 25.2691 25.3428 24.1895C26.3973 23.1919 27.6582 22.448 29.0312 22.0098C28.9968 21.8405 28.977 21.6682 28.9736 21.4951V21.4854C28.9737 20.7867 29.2478 20.1152 29.7373 19.6191C30.095 19.2567 30.5468 19.0112 31.0352 18.9043C30.9887 18.1614 31.1253 17.4462 31.4014 16.7559C31.7479 15.8895 32.3306 15.1392 33.083 14.5947ZM32.4414 35.8281C31.6418 35.7164 31.0543 36.0948 30.3447 36.6729C29.6817 37.213 28.8634 37.9902 27.7539 38.1436C27.7326 38.1465 27.711 38.1483 27.6895 38.1484C26.6742 38.1562 25.6778 37.8692 24.8193 37.3223V37.3213C24.4953 37.1239 24.1299 37.0062 23.7539 36.9775C23.394 36.9502 23.0326 37.0051 22.6963 37.1377C22.4995 37.2827 22.3349 37.47 22.2168 37.6875C22.0913 37.9188 22.021 38.1778 22.0117 38.4424C22.0104 38.8373 22.0252 39.2315 22.0527 39.624C22.0813 39.7047 22.0877 39.7916 22.0723 39.8779C22.2241 41.6413 22.6642 43.3693 23.3789 44.9893L23.5674 45.3994L23.583 45.4365C23.8694 46.1898 24.2996 46.8782 24.8486 47.4619C25.3914 48.0389 26.0405 48.5023 26.7578 48.8271C28.5369 49.3827 30.1563 49.5 32.3398 49.5C34.5126 49.5 35.9456 49.3474 37.6426 48.8242C38.3583 48.4995 39.0061 48.0379 39.5479 47.4619C40.097 46.8781 40.527 46.1899 40.8135 45.4365C40.8187 45.4229 40.8247 45.4096 40.8311 45.3965C41.6861 43.6337 42.2106 41.7285 42.3809 39.7793C42.4197 39.334 42.4397 38.8863 42.4414 38.4375L42.4248 38.2402C42.3967 38.0457 42.335 37.8573 42.2412 37.6846C42.1227 37.4663 41.956 37.2805 41.7568 37.1377C41.4238 37.0011 41.0644 36.9432 40.7061 36.9707C40.3307 36.9995 39.9669 37.1207 39.6465 37.3232H39.6455C38.7819 37.8672 37.7836 38.1539 36.7656 38.1484C36.7435 38.1483 36.7211 38.1466 36.6992 38.1436C35.7163 38.0061 34.9708 37.3871 34.3477 36.8857C33.6852 36.3528 33.1353 35.9273 32.4414 35.8271V35.8281ZM33.9678 22.6904C33.842 22.9535 33.6761 23.1981 33.4678 23.4092C32.9789 23.9045 32.3144 24.1836 31.6201 24.1846H31.6182L31.6162 24.1855V24.1846C31.0421 24.1884 30.4836 24.0003 30.0273 23.6504C29.7727 23.455 29.559 23.2147 29.3926 22.9443C28.1411 23.3342 26.9908 24.0074 26.0303 24.916C25.0957 25.8001 24.3666 26.8815 23.8945 28.082C23.9313 28.0846 23.9682 28.0866 24.0049 28.0898H24.0059C24.9706 28.1656 25.9016 28.4858 26.7119 29.0195C26.9422 29.1714 27.0059 29.4814 26.8545 29.7119C26.7026 29.9425 26.3917 30.0064 26.1611 29.8545C25.4913 29.4134 24.7231 29.1494 23.9277 29.0869H23.9219C23.2697 29.0279 22.6122 29.0997 21.9873 29.2988C21.3625 29.498 20.7824 29.8207 20.2803 30.248C19.778 30.6756 19.3629 31.2 19.0605 31.791C18.7583 32.382 18.5748 33.0286 18.5195 33.6924L18.5186 33.6934C18.4269 34.7625 18.6699 35.8317 19.209 36.75L19.3213 36.9316L19.333 36.9512C19.7639 37.6928 20.3378 38.334 21.0156 38.8398C21.0128 38.701 21.0111 38.5619 21.0117 38.4229L21.0225 38.251C21.0562 37.8867 21.1631 37.532 21.3379 37.21C21.5375 36.8422 21.8202 36.5262 22.1631 36.2881L22.2539 36.2383C22.7516 36.0282 23.292 35.9395 23.8301 35.9805C24.3011 36.0164 24.7592 36.1505 25.1748 36.373L25.3496 36.4746L25.3574 36.4785H25.3564C26.0427 36.9157 26.8365 37.1458 27.6455 37.1465C28.3948 37.0319 28.9558 36.5142 29.7129 35.8975C30.4329 35.3109 31.3221 34.6621 32.5801 34.8379H32.582C33.59 34.9827 34.3454 35.601 34.9736 36.1064C35.6313 36.6356 36.1581 37.0453 36.8066 37.1465C37.621 37.1442 38.4193 36.9139 39.1123 36.4775L39.2871 36.375C39.7006 36.1475 40.1583 36.0098 40.6299 35.9736C41.1011 35.9376 41.5738 36.0032 42.0166 36.165L42.2051 36.2402L42.2861 36.2852C42.6335 36.5211 42.9194 36.8382 43.1201 37.208C43.3208 37.5779 43.4309 37.991 43.4414 38.4121V38.4258C43.4413 38.4501 43.4396 38.4747 43.4395 38.499C43.8796 37.9963 44.2922 37.4691 44.6729 36.918C45.2948 35.9681 45.5801 34.8314 45.4805 33.6943V33.6934C45.3653 32.3534 44.7297 31.116 43.7158 30.2529C42.7021 29.3901 41.3928 28.9712 40.0762 29.0869L40.0703 29.0879C39.2703 29.1483 38.4969 29.4121 37.8232 29.8555C37.5926 30.0069 37.2826 29.9425 37.1309 29.7119C36.9795 29.4814 37.0431 29.1713 37.2734 29.0195C38.0865 28.4844 39.0205 28.165 39.9883 28.0908C40.0288 28.0873 40.0698 28.0857 40.1104 28.083C39.6182 26.7448 38.8051 25.5493 37.7402 24.6084C36.6607 23.6546 35.3619 22.9964 33.9678 22.6904ZM36.1572 33.8311C36.3512 33.6349 36.6678 33.6334 36.8643 33.8271C37.0604 34.0212 37.062 34.3378 36.8682 34.5342L36.1729 35.2383C35.9789 35.4347 35.6623 35.4371 35.4658 35.2432C35.2696 35.0493 35.2674 34.7326 35.4609 34.5361L36.1572 33.8311ZM42.8691 33.0547C43.0629 32.8583 43.3796 32.8564 43.5762 33.0498C43.7727 33.2437 43.7749 33.5603 43.5811 33.7568L43.0703 34.2754C42.8763 34.4717 42.5597 34.4732 42.3633 34.2793C42.167 34.0853 42.1645 33.7687 42.3584 33.5723L42.8691 33.0547ZM22.6719 32.6406C22.8641 32.4427 23.1808 32.4379 23.3789 32.6299C23.577 32.8221 23.5816 33.1387 23.3896 33.3369L22.5801 34.1709C22.3878 34.3691 22.0713 34.3739 21.873 34.1816C21.6753 33.9893 21.6702 33.6727 21.8623 33.4746L22.6719 32.6406ZM28.6348 31.7461C28.8286 31.5497 29.1452 31.5478 29.3418 31.7412C29.5383 31.9351 29.5405 32.2517 29.3467 32.4482L28.6514 33.1533C28.4574 33.3498 28.1409 33.3521 27.9443 33.1582C27.748 32.9643 27.7458 32.6477 27.9395 32.4512L28.6348 31.7461ZM34.8936 26.5264C35.0874 26.33 35.404 26.3279 35.6006 26.5215C35.7971 26.7154 35.7993 27.032 35.6055 27.2285L34.7822 28.0625C34.5883 28.259 34.2717 28.2614 34.0752 28.0674C33.8789 27.8734 33.8765 27.5568 34.0703 27.3604L34.8936 26.5264ZM28.8154 24.4746C29.0068 24.2759 29.3235 24.2698 29.5225 24.4609C29.7213 24.6523 29.7274 24.969 29.5361 25.168L29.0107 25.7139C28.8194 25.913 28.5028 25.9198 28.3037 25.7285C28.1048 25.5372 28.0988 25.2205 28.29 25.0215L28.8154 24.4746ZM31.5879 19.8428C31.1619 19.8429 30.7523 20.0142 30.4492 20.3213C30.148 20.6265 29.9761 21.0413 29.9736 21.4756L29.9805 21.6016C29.9879 21.6857 30.0008 21.7693 30.0195 21.8516L30.0518 21.9736L30.0557 21.9873C30.0661 22.0261 30.0777 22.0649 30.0908 22.1025C30.1117 22.1395 30.1304 22.1787 30.1416 22.2217C30.1424 22.2246 30.1419 22.2285 30.1426 22.2314C30.2528 22.4777 30.422 22.6935 30.6357 22.8574C30.9175 23.0734 31.261 23.1885 31.6123 23.1855H31.6162C32.0422 23.1855 32.4525 23.0134 32.7559 22.7061C32.9396 22.5199 33.0741 22.293 33.1523 22.0459C33.1528 22.0424 33.1527 22.0387 33.1533 22.0352C33.1596 21.9979 33.1699 21.9623 33.1836 21.9287C33.2134 21.8034 33.2314 21.6743 33.2314 21.543V21.5293C33.2373 21.3072 33.1985 21.0861 33.1182 20.8799C33.0378 20.6736 32.9169 20.4864 32.7637 20.3291C32.6105 20.1719 32.4282 20.0472 32.2275 19.9639C32.0271 19.8806 31.8115 19.8397 31.5947 19.8428H31.5879Z" fill="white"/>
</svg>
