<svg width="60" height="60" viewBox="0 0 60 60" fill="none" xmlns="http://www.w3.org/2000/svg">
<path d="M33.2627 52.5381C33.471 52.5382 33.6416 52.7108 33.6416 52.9209C33.6414 53.5161 33.1615 53.9999 32.5713 54H27.4941C26.904 53.9999 26.4241 53.5161 26.4238 52.9209C26.4238 52.7108 26.5944 52.5382 26.8027 52.5381C27.0111 52.5381 27.1816 52.7107 27.1816 52.9209C27.1819 53.0926 27.3207 53.2353 27.4941 53.2354H32.5713C32.7416 53.2353 32.8836 53.0958 32.8838 52.9209C32.8838 52.7107 33.0543 52.5381 33.2627 52.5381ZM34.2256 8.63672C34.4339 8.63676 34.6045 8.80841 34.6045 9.01855V9.92285C34.6045 11.0724 33.6759 12.0117 32.5361 12.0117H31.9658C32.0601 12.2597 32.1104 12.5314 32.1104 12.8096C32.1104 13.2516 31.9751 13.6784 31.7334 14.0371C32.0609 14.1476 32.2988 14.4592 32.2988 14.8281V15.3057C32.2988 15.7642 31.9294 16.1396 31.4717 16.1396H29.2305V31.5361C29.4606 31.4754 29.7015 31.4404 29.9502 31.4404C30.1989 31.4405 30.4397 31.4753 30.6699 31.5361V17.7383C30.6699 17.5282 30.8406 17.3556 31.0488 17.3555C31.2572 17.3555 31.4277 17.5281 31.4277 17.7383V31.8232C31.4277 31.8355 31.425 31.8474 31.4238 31.8594C31.488 31.8988 31.5506 31.9401 31.6113 31.9844L32.2207 31.4072C32.2207 31.4072 32.2432 31.3875 32.2559 31.3779C32.5021 31.1934 32.8055 31.1176 33.1084 31.1621C33.273 31.1864 33.4265 31.2463 33.5625 31.335C36.4836 29.7974 39.8364 29.9889 42.1865 31.8506C43.8692 33.1816 44.8641 35.1812 44.9873 37.4834C45.1104 39.7666 44.3618 42.0727 42.8779 43.9834C41.6013 45.6241 39.8586 46.8297 37.9678 47.3887C37.6251 50.1125 35.3156 52.2254 32.5234 52.2256H27.374C24.5573 52.2256 22.2298 50.0758 21.9189 47.3174C20.072 46.7443 18.3731 45.5572 17.1221 43.9463C15.6382 42.0388 14.8905 39.7295 15.0137 37.4463C15.1368 35.1442 16.1341 33.1445 17.8135 31.8135C18.8112 31.0239 20.0124 30.5162 21.2959 30.335C21.4728 29.8772 21.9353 29.5635 22.4453 29.6133C23.4777 29.7152 24.523 30.0619 25.4639 30.6191C25.8363 30.8388 26.045 31.2594 26.001 31.6924C25.9996 31.7061 25.996 31.7198 25.9941 31.7334C26.119 31.8048 26.2828 31.9037 26.4932 32.0459C26.6668 32.1637 26.7145 32.4001 26.5977 32.5752C26.5251 32.6865 26.4052 32.744 26.2822 32.7441C26.2096 32.7441 26.1364 32.7211 26.0732 32.6797C25.881 32.5509 25.7387 32.4648 25.6377 32.4062C25.4429 32.5803 25.1871 32.6852 24.9062 32.6855C24.7301 32.6853 24.5599 32.644 24.3994 32.5615C23.6862 32.1892 22.9696 31.9637 22.209 31.8682C21.7655 31.8143 21.415 31.5083 21.2803 31.1074C20.1738 31.2831 19.1419 31.7303 18.2812 32.4121C16.7722 33.6062 15.8823 35.4083 15.7686 37.4844C15.6549 39.5829 16.3456 41.7078 17.7158 43.4688C18.8145 44.8823 20.2805 45.9426 21.8828 46.4971V45.9365C21.8765 45.8505 21.7412 43.2359 24.333 40.9941C26.2583 39.3297 26.7089 37.3769 26.8145 36.624C26.435 36.472 26.1651 36.0989 26.165 35.6631V34.9688C26.165 34.4198 26.5925 33.9691 27.1289 33.9365C27.2436 33.055 27.7545 32.3006 28.4756 31.8584C28.4745 31.8468 28.4727 31.8351 28.4727 31.8232V16.1396H28.4121C27.9577 16.1395 27.585 15.7672 27.585 15.3057V14.8281C27.585 14.4677 27.8138 14.1588 28.1338 14.043C27.8929 13.6862 27.7588 13.2608 27.7588 12.8145C27.7588 12.5345 27.8098 12.261 27.9053 12.0117H27.3486C26.2091 12.0115 25.2812 11.0755 25.2812 9.92285V9.01855C25.2813 8.80838 25.4518 8.63672 25.6602 8.63672H34.2256ZM41.7227 32.4521C39.6368 30.8007 36.6616 30.62 34.0332 31.9531C34.0867 32.1201 34.1029 32.2981 34.0771 32.4766C34.0329 32.7759 33.8813 33.0409 33.6445 33.2256L32.8799 33.9492C33.3645 34.0315 33.7363 34.4572 33.7363 34.9688V35.6631C33.7362 36.2329 33.2749 36.6981 32.71 36.6982H27.5723C27.461 37.5559 26.9722 39.7233 24.8291 41.5771C22.5371 43.5578 22.6343 45.8185 22.6406 45.9141V46.6875C22.6406 49.3178 24.7662 51.4609 27.374 51.4609H32.5234C35.1311 51.4607 37.2559 49.3209 37.2559 46.6875V45.9365C37.2622 45.8187 37.3595 43.5571 35.0674 41.5732C34.0825 40.7231 33.3379 39.71 32.8486 38.5605C32.7667 38.3664 32.8545 38.1436 33.0469 38.0576C33.2395 37.9748 33.4607 38.0645 33.5459 38.2588C33.9911 39.3 34.6701 40.2204 35.5635 40.9941C38.1518 43.2329 38.0235 45.843 38.0137 45.958V46.5752C39.6554 46.0316 41.1619 44.9539 42.2881 43.5088C43.6582 41.7479 44.3499 39.6206 44.2363 37.5254C44.1227 35.446 43.2318 33.6431 41.7227 32.4521ZM30.0889 46.4707C30.4488 46.4739 30.7933 46.63 31.0332 46.8975L31.3174 47.21C31.4184 47.3213 31.5575 47.3848 31.709 47.3848H31.7148C31.8632 47.3848 32.0023 47.3241 32.1064 47.2158L32.4229 46.8789C32.6691 46.6178 33.0224 46.4739 33.376 46.4707C33.7327 46.4739 34.0772 46.63 34.3203 46.8975L35.2666 47.9453C35.4086 48.1012 35.3966 48.343 35.2422 48.4863C35.1696 48.5531 35.0778 48.5849 34.9863 48.585V48.5762C34.8821 48.5762 34.7809 48.534 34.7051 48.4512L33.7578 47.4043C33.6568 47.2928 33.5178 47.2285 33.3662 47.2285C33.2021 47.2286 33.0758 47.286 32.9717 47.3975L32.6562 47.7354C32.41 47.9964 32.0684 48.1426 31.7021 48.1426C31.3424 48.1393 30.9986 47.983 30.7588 47.7188L30.4746 47.4072C30.3736 47.2958 30.2345 47.2315 30.083 47.2314C29.9442 47.2314 29.7927 47.2891 29.6885 47.4004L29.3691 47.7383C29.1261 47.9993 28.7822 48.1455 28.4287 48.1455H28.416C28.0561 48.1455 27.7116 47.9869 27.4717 47.7227L27.1875 47.4102C27.0865 47.2988 26.9474 47.2354 26.7959 47.2354C26.6287 47.2354 26.5055 47.2961 26.4014 47.4043L25.4072 48.4639C25.262 48.6167 25.0217 48.6237 24.8701 48.4805C24.7186 48.334 24.7124 48.0945 24.8545 47.9385L25.8486 46.8789C26.0949 46.6146 26.4397 46.4675 26.8027 46.4707C27.1625 46.4739 27.5062 46.6302 27.7461 46.8975L28.0303 47.21C28.1312 47.3213 28.2705 47.3847 28.4219 47.3848C28.586 47.3848 28.7122 47.3272 28.8164 47.2158L29.1357 46.8789C29.3788 46.6179 29.7227 46.4708 30.0762 46.4707H30.0889ZM30.0889 43.0674C30.4487 43.0674 30.7933 43.226 31.0332 43.4902L31.3174 43.8057C31.4184 43.9171 31.5574 43.9805 31.709 43.9805C31.8446 43.9804 31.9994 43.9238 32.1035 43.8125L32.4189 43.4746C32.6652 43.2103 33.0194 43.0769 33.373 43.0674C33.7296 43.0707 34.0734 43.2262 34.3164 43.4902L35.2637 44.5381C35.4057 44.6941 35.393 44.9358 35.2383 45.0791C35.1661 45.1456 35.0754 45.1764 34.9844 45.1768C34.8808 45.1763 34.7804 45.1361 34.7051 45.0537L33.7578 44.0059C33.6568 43.8946 33.5176 43.8311 33.3662 43.8311H33.3604C33.212 43.8311 33.0727 43.8917 32.9717 44L32.6562 44.3379C32.41 44.6021 32.0683 44.7483 31.7021 44.7451C31.3455 44.7418 30.9986 44.5855 30.7588 44.3213L30.4746 44.0059C30.3736 43.8945 30.2345 43.8311 30.083 43.8311H30.0762C29.928 43.8312 29.7894 43.8919 29.6885 44L29.3691 44.3379C29.1229 44.5988 28.7661 44.7547 28.4189 44.7451C28.0591 44.7451 27.7145 44.5856 27.4746 44.3213L27.1904 44.0059C27.0895 43.8948 26.951 43.8312 26.7998 43.8311H26.793C26.6446 43.8311 26.5055 43.8918 26.4014 44L25.4072 45.0605C25.2651 45.2134 25.0248 45.2195 24.8701 45.0762C24.7188 44.9297 24.7126 44.6911 24.8545 44.5352L25.8486 43.4746C26.0949 43.2135 26.4397 43.0674 26.8027 43.0674C27.1624 43.0706 27.5062 43.2262 27.7461 43.4902L28.0303 43.8057C28.1312 43.917 28.2705 43.9804 28.4219 43.9805H28.4287C28.5768 43.9804 28.7155 43.9204 28.8164 43.8125L29.1357 43.4746C29.3788 43.2136 29.7227 43.0675 30.0762 43.0674H30.0889ZM34.9863 45.1777H34.9824L34.9844 45.1768L34.9863 45.1777ZM27.1914 34.6982C27.043 34.6982 26.9229 34.8191 26.9229 34.9688V35.6631C26.923 35.8126 27.0431 35.9336 27.1914 35.9336H32.71C32.8582 35.9335 32.9784 35.8126 32.9785 35.6631V34.9688C32.9785 34.8191 32.8583 34.6983 32.71 34.6982H27.1914ZM29.9502 32.2041C28.9262 32.2041 28.0731 32.9516 27.8955 33.9336H32.0039C31.8263 32.9517 30.9741 32.2042 29.9502 32.2041ZM33.1016 31.9482C32.9809 31.8936 32.837 31.9014 32.7227 31.9805L32.1641 32.5107C32.3298 32.7175 32.4679 32.9474 32.5723 33.1953L33.1426 32.6553C33.1426 32.6553 33.1651 32.6365 33.1777 32.627C33.3196 32.5203 33.366 32.3355 33.3086 32.1758C33.2369 32.1437 33.1737 32.0898 33.1318 32.0156C33.1195 31.9937 33.1092 31.9712 33.1016 31.9482ZM22.3379 30.374C22.1759 30.3742 22.0343 30.4874 21.9902 30.6406L21.9912 30.6416C21.9962 30.6891 21.9899 30.7348 21.9785 30.7783C21.9947 30.9471 22.1238 31.0876 22.2998 31.1104C23.1523 31.2154 23.9515 31.4669 24.7471 31.8809C24.8865 31.9535 25.0764 31.9216 25.1787 31.791C25.1917 31.7575 25.2072 31.7257 25.2285 31.6982C25.2377 31.672 25.2458 31.6441 25.249 31.6133C25.2617 31.4795 25.1988 31.3484 25.082 31.2783C24.2359 30.7752 23.2981 30.4632 22.373 30.374H22.3379ZM28.4121 14.7607C28.3744 14.7609 28.3428 14.793 28.3428 14.8311V15.3086C28.3428 15.3467 28.3744 15.3787 28.4121 15.3789H31.4717C31.5096 15.3789 31.541 15.3468 31.541 15.3086V14.8311C31.541 14.7928 31.5096 14.7607 31.4717 14.7607H28.4121ZM28.7627 12.0117C28.6078 12.2292 28.5167 12.5195 28.5166 12.8174C28.5166 13.2865 28.7459 13.7242 29.1338 13.9932H30.7285C30.7345 13.9885 30.7398 13.9829 30.7461 13.9785C31.1313 13.7078 31.3525 13.2806 31.3525 12.8125C31.3525 12.5169 31.2631 12.2287 31.1104 12.0117H28.7627ZM26.0361 9.92578C26.0361 10.6549 26.6228 11.2479 27.3457 11.248H31.252C31.2755 11.2459 31.2988 11.2459 31.3223 11.248H32.5303C33.2532 11.2479 33.8398 10.655 33.8398 9.92578V9.4043H26.0361V9.92578ZM33.1768 7C33.385 7 33.5555 7.1718 33.5557 7.38184C33.5557 7.59201 33.3851 7.76465 33.1768 7.76465H26.708C26.4996 7.76463 26.3291 7.592 26.3291 7.38184C26.3293 7.17181 26.4997 7.00002 26.708 7H33.1768Z" fill="white"/>
</svg>
