<svg width="50" height="50" viewBox="0 0 50 50" fill="none" xmlns="http://www.w3.org/2000/svg">
<path d="M13.0142 18.0001C12.8817 17.9982 12.7502 18.0227 12.6272 18.0721C12.5042 18.1215 12.3923 18.1949 12.2979 18.2879C12.2036 18.381 12.1286 18.4919 12.0775 18.6141C12.0263 18.7364 12 18.8676 12 19.0001C12 19.1326 12.0263 19.2638 12.0775 19.3861C12.1286 19.5083 12.2036 19.6192 12.2979 19.7123C12.3923 19.8053 12.5042 19.8787 12.6272 19.9281C12.7502 19.9775 12.8817 20.002 13.0142 20.0001H16.0142C16.1468 20.002 16.2783 19.9775 16.4013 19.9281C16.5243 19.8787 16.6362 19.8053 16.7305 19.7123C16.8249 19.6192 16.8999 19.5083 16.951 19.3861C17.0021 19.2638 17.0285 19.1326 17.0285 19.0001C17.0285 18.8676 17.0021 18.7364 16.951 18.6141C16.8999 18.4919 16.8249 18.381 16.7305 18.2879C16.6362 18.1949 16.5243 18.1215 16.4013 18.0721C16.2783 18.0227 16.1468 17.9982 16.0142 18.0001H13.0142ZM20.0142 18.0001C19.8817 17.9982 19.7502 18.0227 19.6272 18.0721C19.5042 18.1215 19.3923 18.1949 19.2979 18.2879C19.2036 18.381 19.1286 18.4919 19.0775 18.6141C19.0263 18.7364 19 18.8676 19 19.0001C19 19.1326 19.0263 19.2638 19.0775 19.3861C19.1286 19.5083 19.2036 19.6192 19.2979 19.7123C19.3923 19.8053 19.5042 19.8787 19.6272 19.9281C19.7502 19.9775 19.8817 20.002 20.0142 20.0001H23.0142C23.1468 20.002 23.2783 19.9775 23.4013 19.9281C23.5243 19.8787 23.6362 19.8053 23.7305 19.7123C23.8249 19.6192 23.8998 19.5083 23.951 19.3861C24.0021 19.2638 24.0285 19.1326 24.0285 19.0001C24.0285 18.8676 24.0021 18.7364 23.951 18.6141C23.8998 18.4919 23.8249 18.381 23.7305 18.2879C23.6362 18.1949 23.5243 18.1215 23.4013 18.0721C23.2783 18.0227 23.1468 17.9982 23.0142 18.0001H20.0142ZM27.0142 18.0001C26.8817 17.9982 26.7502 18.0227 26.6272 18.0721C26.5042 18.1215 26.3923 18.1949 26.2979 18.2879C26.2036 18.381 26.1286 18.4919 26.0775 18.6141C26.0263 18.7364 26 18.8676 26 19.0001C26 19.1326 26.0263 19.2638 26.0775 19.3861C26.1286 19.5083 26.2036 19.6192 26.2979 19.7123C26.3923 19.8053 26.5042 19.8787 26.6272 19.9281C26.7502 19.9775 26.8817 20.002 27.0142 20.0001H30.0142C30.1468 20.002 30.2783 19.9775 30.4013 19.9281C30.5243 19.8787 30.6362 19.8053 30.7305 19.7123C30.8249 19.6192 30.8999 19.5083 30.951 19.3861C31.0021 19.2638 31.0285 19.1326 31.0285 19.0001C31.0285 18.8676 31.0021 18.7364 30.951 18.6141C30.8999 18.4919 30.8249 18.381 30.7305 18.2879C30.6362 18.1949 30.5243 18.1215 30.4013 18.0721C30.2783 18.0227 30.1468 17.9982 30.0142 18.0001H27.0142ZM34.0142 18.0001C33.8817 17.9982 33.7502 18.0227 33.6272 18.0721C33.5042 18.1215 33.3923 18.1949 33.2979 18.2879C33.2036 18.381 33.1286 18.4919 33.0775 18.6141C33.0263 18.7364 33 18.8676 33 19.0001C33 19.1326 33.0263 19.2638 33.0775 19.3861C33.1286 19.5083 33.2036 19.6192 33.2979 19.7123C33.3923 19.8053 33.5042 19.8787 33.6272 19.9281C33.7502 19.9775 33.8817 20.002 34.0142 20.0001H37.0142C37.1468 20.002 37.2783 19.9775 37.4013 19.9281C37.5243 19.8787 37.6362 19.8053 37.7305 19.7123C37.8249 19.6192 37.8999 19.5083 37.951 19.3861C38.0021 19.2638 38.0285 19.1326 38.0285 19.0001C38.0285 18.8676 38.0021 18.7364 37.951 18.6141C37.8999 18.4919 37.8249 18.381 37.7305 18.2879C37.6362 18.1949 37.5243 18.1215 37.4013 18.0721C37.2783 18.0227 37.1468 17.9982 37.0142 18.0001H34.0142ZM13.0142 24.0001C12.8817 23.9982 12.7502 24.0227 12.6272 24.0721C12.5042 24.1215 12.3923 24.1949 12.2979 24.2879C12.2036 24.381 12.1286 24.4919 12.0775 24.6141C12.0263 24.7364 12 24.8676 12 25.0001C12 25.1326 12.0263 25.2638 12.0775 25.3861C12.1286 25.5083 12.2036 25.6192 12.2979 25.7123C12.3923 25.8053 12.5042 25.8787 12.6272 25.9281C12.7502 25.9775 12.8817 26.002 13.0142 26.0001H16.0142C16.1468 26.002 16.2783 25.9775 16.4013 25.9281C16.5243 25.8787 16.6362 25.8053 16.7305 25.7123C16.8249 25.6192 16.8999 25.5083 16.951 25.3861C17.0021 25.2638 17.0285 25.1326 17.0285 25.0001C17.0285 24.8676 17.0021 24.7364 16.951 24.6141C16.8999 24.4919 16.8249 24.381 16.7305 24.2879C16.6362 24.1949 16.5243 24.1215 16.4013 24.0721C16.2783 24.0227 16.1468 23.9982 16.0142 24.0001H13.0142ZM20.0142 24.0001C19.8817 23.9982 19.7502 24.0227 19.6272 24.0721C19.5042 24.1215 19.3923 24.1949 19.2979 24.2879C19.2036 24.381 19.1286 24.4919 19.0775 24.6141C19.0263 24.7364 19 24.8676 19 25.0001C19 25.1326 19.0263 25.2638 19.0775 25.3861C19.1286 25.5083 19.2036 25.6192 19.2979 25.7123C19.3923 25.8053 19.5042 25.8787 19.6272 25.9281C19.7502 25.9775 19.8817 26.002 20.0142 26.0001H23.0142C23.1468 26.002 23.2783 25.9775 23.4013 25.9281C23.5243 25.8787 23.6362 25.8053 23.7305 25.7123C23.8249 25.6192 23.8998 25.5083 23.951 25.3861C24.0021 25.2638 24.0285 25.1326 24.0285 25.0001C24.0285 24.8676 24.0021 24.7364 23.951 24.6141C23.8998 24.4919 23.8249 24.381 23.7305 24.2879C23.6362 24.1949 23.5243 24.1215 23.4013 24.0721C23.2783 24.0227 23.1468 23.9982 23.0142 24.0001H20.0142ZM27.0142 24.0001C26.8817 23.9982 26.7502 24.0227 26.6272 24.0721C26.5042 24.1215 26.3923 24.1949 26.2979 24.2879C26.2036 24.381 26.1286 24.4919 26.0775 24.6141C26.0263 24.7364 26 24.8676 26 25.0001C26 25.1326 26.0263 25.2638 26.0775 25.3861C26.1286 25.5083 26.2036 25.6192 26.2979 25.7123C26.3923 25.8053 26.5042 25.8787 26.6272 25.9281C26.7502 25.9775 26.8817 26.002 27.0142 26.0001H30.0142C30.1468 26.002 30.2783 25.9775 30.4013 25.9281C30.5243 25.8787 30.6362 25.8053 30.7305 25.7123C30.8249 25.6192 30.8999 25.5083 30.951 25.3861C31.0021 25.2638 31.0285 25.1326 31.0285 25.0001C31.0285 24.8676 31.0021 24.7364 30.951 24.6141C30.8999 24.4919 30.8249 24.381 30.7305 24.2879C30.6362 24.1949 30.5243 24.1215 30.4013 24.0721C30.2783 24.0227 30.1468 23.9982 30.0142 24.0001H27.0142ZM34.0142 24.0001C33.8817 23.9982 33.7502 24.0227 33.6272 24.0721C33.5042 24.1215 33.3923 24.1949 33.2979 24.2879C33.2036 24.381 33.1286 24.4919 33.0775 24.6141C33.0263 24.7364 33 24.8676 33 25.0001C33 25.1326 33.0263 25.2638 33.0775 25.3861C33.1286 25.5083 33.2036 25.6192 33.2979 25.7123C33.3923 25.8053 33.5042 25.8787 33.6272 25.9281C33.7502 25.9775 33.8817 26.002 34.0142 26.0001H37.0142C37.1468 26.002 37.2783 25.9775 37.4013 25.9281C37.5243 25.8787 37.6362 25.8053 37.7305 25.7123C37.8249 25.6192 37.8999 25.5083 37.951 25.3861C38.0021 25.2638 38.0285 25.1326 38.0285 25.0001C38.0285 24.8676 38.0021 24.7364 37.951 24.6141C37.8999 24.4919 37.8249 24.381 37.7305 24.2879C37.6362 24.1949 37.5243 24.1215 37.4013 24.0721C37.2783 24.0227 37.1468 23.9982 37.0142 24.0001H34.0142ZM13.0142 30.0001C12.8817 29.9982 12.7502 30.0227 12.6272 30.0721C12.5042 30.1215 12.3923 30.1949 12.2979 30.2879C12.2036 30.381 12.1286 30.4919 12.0775 30.6141C12.0263 30.7364 12 30.8676 12 31.0001C12 31.1326 12.0263 31.2638 12.0775 31.3861C12.1286 31.5083 12.2036 31.6192 12.2979 31.7123C12.3923 31.8053 12.5042 31.8787 12.6272 31.9281C12.7502 31.9775 12.8817 32.002 13.0142 32.0001H16.0142C16.1468 32.002 16.2783 31.9775 16.4013 31.9281C16.5243 31.8787 16.6362 31.8053 16.7305 31.7123C16.8249 31.6192 16.8999 31.5083 16.951 31.3861C17.0021 31.2638 17.0285 31.1326 17.0285 31.0001C17.0285 30.8676 17.0021 30.7364 16.951 30.6141C16.8999 30.4919 16.8249 30.381 16.7305 30.2879C16.6362 30.1949 16.5243 30.1215 16.4013 30.0721C16.2783 30.0227 16.1468 29.9982 16.0142 30.0001H13.0142ZM20.0142 30.0001C19.8817 29.9982 19.7502 30.0227 19.6272 30.0721C19.5042 30.1215 19.3923 30.1949 19.2979 30.2879C19.2036 30.381 19.1286 30.4919 19.0775 30.6141C19.0263 30.7364 19 30.8676 19 31.0001C19 31.1326 19.0263 31.2638 19.0775 31.3861C19.1286 31.5083 19.2036 31.6192 19.2979 31.7123C19.3923 31.8053 19.5042 31.8787 19.6272 31.9281C19.7502 31.9775 19.8817 32.002 20.0142 32.0001H23.0142C23.1468 32.002 23.2783 31.9775 23.4013 31.9281C23.5243 31.8787 23.6362 31.8053 23.7305 31.7123C23.8249 31.6192 23.8998 31.5083 23.951 31.3861C24.0021 31.2638 24.0285 31.1326 24.0285 31.0001C24.0285 30.8676 24.0021 30.7364 23.951 30.6141C23.8998 30.4919 23.8249 30.381 23.7305 30.2879C23.6362 30.1949 23.5243 30.1215 23.4013 30.0721C23.2783 30.0227 23.1468 29.9982 23.0142 30.0001H20.0142ZM27.0142 30.0001C26.8817 29.9982 26.7502 30.0227 26.6272 30.0721C26.5042 30.1215 26.3923 30.1949 26.2979 30.2879C26.2036 30.381 26.1286 30.4919 26.0775 30.6141C26.0263 30.7364 26 30.8676 26 31.0001C26 31.1326 26.0263 31.2638 26.0775 31.3861C26.1286 31.5083 26.2036 31.6192 26.2979 31.7123C26.3923 31.8053 26.5042 31.8787 26.6272 31.9281C26.7502 31.9775 26.8817 32.002 27.0142 32.0001H30.0142C30.1468 32.002 30.2783 31.9775 30.4013 31.9281C30.5243 31.8787 30.6362 31.8053 30.7305 31.7123C30.8249 31.6192 30.8999 31.5083 30.951 31.3861C31.0021 31.2638 31.0285 31.1326 31.0285 31.0001C31.0285 30.8676 31.0021 30.7364 30.951 30.6141C30.8999 30.4919 30.8249 30.381 30.7305 30.2879C30.6362 30.1949 30.5243 30.1215 30.4013 30.0721C30.2783 30.0227 30.1468 29.9982 30.0142 30.0001H27.0142ZM34.0142 30.0001C33.8817 29.9982 33.7502 30.0227 33.6272 30.0721C33.5042 30.1215 33.3923 30.1949 33.2979 30.2879C33.2036 30.381 33.1286 30.4919 33.0775 30.6141C33.0263 30.7364 33 30.8676 33 31.0001C33 31.1326 33.0263 31.2638 33.0775 31.3861C33.1286 31.5083 33.2036 31.6192 33.2979 31.7123C33.3923 31.8053 33.5042 31.8787 33.6272 31.9281C33.7502 31.9775 33.8817 32.002 34.0142 32.0001H37.0142C37.1468 32.002 37.2783 31.9775 37.4013 31.9281C37.5243 31.8787 37.6362 31.8053 37.7305 31.7123C37.8249 31.6192 37.8999 31.5083 37.951 31.3861C38.0021 31.2638 38.0285 31.1326 38.0285 31.0001C38.0285 30.8676 38.0021 30.7364 37.951 30.6141C37.8999 30.4919 37.8249 30.381 37.7305 30.2879C37.6362 30.1949 37.5243 30.1215 37.4013 30.0721C37.2783 30.0227 37.1468 29.9982 37.0142 30.0001H34.0142Z" fill="#185D66"/>
</svg>
