<svg width="185" height="179" viewBox="0 0 185 179" fill="none" xmlns="http://www.w3.org/2000/svg">
<path d="M110.513 77.7222C109.684 80.5329 108.609 83.2613 107.302 85.8744C106.213 88.0874 104.071 92.6647 101.247 92.9106C97.4447 93.2511 101.469 81.9969 102.17 80.1244C102.273 79.7062 102.254 79.2664 102.116 78.8589C101.978 78.4515 101.727 78.0943 101.394 77.831C101.061 77.5678 100.66 77.4101 100.24 77.3774C99.8204 77.3446 99.4006 77.4381 99.0321 77.6465C96.9544 78.9886 94.8103 80.2197 92.6085 81.3349C90.1535 82.64 92.3132 86.4229 94.7682 85.1178L96.3002 84.3045C94.842 89.714 94.2698 96.2585 100.214 97.261C104.385 97.9608 107.597 94.5751 110.07 90.3382C110.293 91.4458 110.832 92.4601 111.621 93.2511C114.98 96.7314 119.78 94.1211 120.961 90.0923C121.115 89.5305 121.045 88.9289 120.767 88.4199C120.488 87.9109 120.024 87.5361 119.475 87.3781C118.927 87.2201 118.34 87.2917 117.843 87.5773C117.346 87.8628 116.981 88.3389 116.826 88.9007C116.199 91.0759 113.984 90.6409 114.131 88.4279C114.334 85.288 114.131 82.0158 114.63 78.9706C114.791 78.4112 114.729 77.809 114.458 77.2965C114.186 76.7839 113.727 76.4029 113.181 76.2374C112.635 76.0719 112.047 76.1353 111.547 76.4137C111.047 76.6922 110.675 77.1629 110.513 77.7222Z" fill="#06A5AA"/>
<path d="M157.657 69.4376C157.823 66.9976 154.667 66.695 153.67 68.4351C150.467 68.4765 147.37 69.617 144.873 71.6743C142.377 73.7315 140.626 76.5868 139.9 79.7839C139.608 80.8284 139.554 81.9279 139.744 82.997C139.933 84.0661 140.361 85.0761 140.992 85.9487C141.624 86.8212 142.444 87.5329 143.388 88.0284C144.331 88.524 145.374 88.7901 146.434 88.8061C147.96 88.822 149.468 88.4648 150.832 87.7641C152.197 87.0635 153.378 86.0396 154.279 84.7773L154.593 85.0989C158.174 88.5792 162.936 85.7609 164.487 81.8267C165.521 79.1975 161.386 78.0437 160.371 80.654C159.798 82.1293 157.233 83.1507 157.011 80.8809C156.975 79.1167 157.073 77.3522 157.306 75.6038C157.399 73.5042 157.509 71.4615 157.657 69.4376ZM144.736 83.8883C142.576 81.9969 144.865 77.7411 146.157 76.209C148.025 74.2435 150.537 73.0574 153.209 72.8801L152.95 77.3061C152.854 77.5282 152.792 77.7643 152.766 78.0059C152.433 80.862 148.059 86.6499 144.754 83.8883H144.736Z" fill="#06A5AA"/>
<path d="M81.3486 123.609C81.2319 123.598 81.1144 123.613 81.0036 123.652C80.8928 123.691 80.7914 123.754 80.706 123.836C80.6206 123.918 80.5531 124.018 80.508 124.129C80.4628 124.24 80.4411 124.359 80.4442 124.479V129.189C80.4442 129.44 80.5414 129.68 80.7145 129.858C80.8876 130.035 81.1223 130.135 81.3671 130.135C81.6119 130.135 81.8466 130.035 82.0197 129.858C82.1928 129.68 82.29 129.44 82.29 129.189V127.959L84.1359 129.851C84.2201 129.939 84.3207 130.009 84.4316 130.057C84.5425 130.104 84.6616 130.129 84.782 130.129C84.9023 130.129 85.0214 130.104 85.1324 130.057C85.2433 130.009 85.3438 129.939 85.428 129.851C85.5169 129.776 85.5884 129.682 85.6376 129.576C85.6867 129.47 85.7122 129.354 85.7122 129.236C85.7122 129.118 85.6867 129.002 85.6376 128.896C85.5884 128.79 85.5169 128.696 85.428 128.621L83.6375 126.73L85.3542 125.046C85.443 124.972 85.5146 124.878 85.5638 124.772C85.6129 124.666 85.6384 124.549 85.6384 124.432C85.6384 124.314 85.6129 124.198 85.5638 124.092C85.5146 123.985 85.443 123.892 85.3542 123.817C85.1817 123.644 84.9497 123.547 84.7081 123.547C84.4666 123.547 84.2346 123.644 84.0621 123.817L82.2162 125.557V124.384C82.1974 124.165 82.0965 123.962 81.9348 123.818C81.7731 123.673 81.563 123.598 81.3486 123.609Z" fill="#06A5AA"/>
<path d="M91.8886 125.992C91.6985 125.315 91.399 124.676 91.0026 124.101C90.8314 123.913 90.6218 123.767 90.3888 123.672C90.1559 123.577 89.9053 123.536 89.6551 123.552C89.4469 123.522 89.2356 123.522 89.0275 123.552C88.8068 123.625 88.6028 123.742 88.4282 123.899C88.2536 124.055 88.1121 124.246 88.0123 124.46C87.6627 125.2 87.3665 125.965 87.1262 126.749L86.4248 128.829C86.3819 128.939 86.3631 129.058 86.3695 129.176C86.3759 129.294 86.4075 129.41 86.462 129.514C86.5165 129.619 86.5926 129.71 86.685 129.781C86.7774 129.852 86.8839 129.902 86.997 129.926C87.1083 129.971 87.2273 129.993 87.3469 129.99C87.4665 129.986 87.5841 129.958 87.6928 129.907C87.8015 129.855 87.8989 129.782 87.9792 129.691C88.0594 129.6 88.1209 129.494 88.1599 129.378L88.3999 128.678H90.8918L91.1502 129.378C91.1892 129.494 91.2507 129.6 91.331 129.691C91.4113 129.782 91.5087 129.855 91.6174 129.907C91.726 129.958 91.8437 129.986 91.9633 129.99C92.0829 129.993 92.2019 129.971 92.3131 129.926C92.4262 129.902 92.5327 129.852 92.6251 129.781C92.7176 129.71 92.7937 129.619 92.8482 129.514C92.9027 129.41 92.9343 129.294 92.9407 129.176C92.9471 129.058 92.9282 128.939 92.8854 128.829L92.1839 126.749C92.0363 126.446 91.944 126.162 91.8886 125.992ZM88.8983 127.392L89.6551 125.311L90.4119 127.392H88.8983Z" fill="#06A5AA"/>
<path d="M99.1244 126.011C98.9347 125.334 98.6352 124.695 98.2384 124.12C98.0672 123.932 97.8576 123.785 97.6247 123.691C97.3917 123.596 97.1411 123.555 96.8909 123.571C96.6828 123.541 96.4715 123.541 96.2633 123.571C96.0426 123.643 95.8387 123.761 95.6641 123.917C95.4895 124.074 95.3479 124.265 95.2481 124.479C94.8988 125.219 94.6027 125.984 94.3621 126.768L93.6606 128.848C93.6178 128.958 93.5989 129.077 93.6053 129.195C93.6118 129.313 93.6433 129.429 93.6978 129.533C93.7523 129.638 93.8284 129.729 93.9209 129.8C94.0133 129.871 94.1198 129.921 94.2329 129.945C94.3441 129.99 94.4631 130.012 94.5827 130.008C94.7023 130.005 94.82 129.977 94.9286 129.926C95.0373 129.874 95.1347 129.801 95.215 129.71C95.2953 129.619 95.3568 129.513 95.3958 129.397L96.8909 125.217L98.3861 129.397C98.4251 129.513 98.4866 129.619 98.5669 129.71C98.6471 129.801 98.7445 129.874 98.8532 129.926C98.9619 129.977 99.0795 130.005 99.1991 130.008C99.3187 130.012 99.4377 129.99 99.549 129.945C99.6621 129.921 99.7686 129.871 99.861 129.8C99.9534 129.729 100.03 129.638 100.084 129.533C100.139 129.429 100.17 129.313 100.177 129.195C100.183 129.077 100.164 128.958 100.121 128.848L99.4198 126.768C99.2906 126.446 99.1983 126.181 99.1244 126.011Z" fill="#06A5AA"/>
<path d="M101.746 123.609C101.629 123.598 101.511 123.613 101.401 123.652C101.29 123.691 101.188 123.754 101.103 123.836C101.018 123.918 100.95 124.018 100.905 124.129C100.86 124.24 100.838 124.359 100.841 124.479V129.189C100.838 129.309 100.86 129.428 100.905 129.539C100.95 129.65 101.018 129.749 101.103 129.832C101.188 129.914 101.29 129.977 101.401 130.016C101.511 130.055 101.629 130.07 101.746 130.059H104.219C104.784 130.079 105.337 129.883 105.77 129.51C105.974 129.327 106.136 129.099 106.244 128.844C106.353 128.589 106.405 128.313 106.397 128.035C106.411 127.766 106.363 127.498 106.257 127.251C106.151 127.005 105.991 126.788 105.788 126.616C105.346 126.265 104.797 126.084 104.237 126.106H102.687V124.498C102.694 124.373 102.673 124.248 102.627 124.132C102.581 124.016 102.51 123.911 102.42 123.826C102.331 123.742 102.223 123.678 102.107 123.64C101.99 123.603 101.867 123.592 101.746 123.609ZM103.942 127.486C104.311 127.486 104.551 127.676 104.551 127.997C104.551 128.319 104.311 128.489 103.942 128.489H102.669V127.486H103.942Z" fill="#06A5AA"/>
<path d="M111.399 130.059C111.516 130.07 111.634 130.055 111.745 130.016C111.855 129.977 111.957 129.914 112.042 129.832C112.128 129.749 112.195 129.65 112.24 129.539C112.285 129.428 112.307 129.309 112.304 129.189V124.479C112.307 124.359 112.285 124.24 112.24 124.129C112.195 124.018 112.128 123.918 112.042 123.836C111.957 123.754 111.855 123.691 111.745 123.652C111.634 123.613 111.516 123.598 111.399 123.609H108.908C108.621 123.599 108.336 123.65 108.069 123.757C107.803 123.864 107.56 124.026 107.357 124.233C107.12 124.497 106.94 124.809 106.828 125.148C106.717 125.488 106.676 125.848 106.709 126.205C106.742 126.562 106.848 126.907 107.02 127.219C107.192 127.531 107.427 127.803 107.708 128.016L107.117 128.962C107.052 129.046 107.008 129.146 106.988 129.251C106.968 129.356 106.973 129.465 107.001 129.569C107.03 129.672 107.083 129.767 107.154 129.845C107.225 129.924 107.314 129.984 107.412 130.021C107.512 130.088 107.623 130.135 107.74 130.158C107.857 130.181 107.977 130.18 108.094 130.156C108.21 130.131 108.321 130.083 108.419 130.015C108.518 129.946 108.602 129.858 108.668 129.756L109.554 128.357H110.458V129.283C110.467 129.399 110.499 129.511 110.552 129.614C110.605 129.716 110.678 129.806 110.766 129.879C110.854 129.952 110.955 130.005 111.064 130.036C111.173 130.067 111.287 130.075 111.399 130.059ZM109.554 126.711C109.451 126.725 109.346 126.716 109.248 126.684C109.149 126.651 109.058 126.597 108.982 126.525C108.906 126.453 108.847 126.364 108.809 126.265C108.77 126.167 108.754 126.06 108.76 125.954C108.757 125.849 108.776 125.745 108.815 125.648C108.855 125.55 108.914 125.463 108.989 125.391C109.064 125.32 109.154 125.265 109.251 125.232C109.348 125.199 109.451 125.187 109.554 125.198H110.55V126.73L109.554 126.711Z" fill="#06A5AA"/>
<path d="M117.989 130.059C118.106 130.07 118.224 130.055 118.334 130.016C118.445 129.977 118.546 129.914 118.632 129.832C118.717 129.749 118.785 129.65 118.83 129.539C118.875 129.428 118.897 129.309 118.894 129.189V124.479C118.894 124.228 118.796 123.988 118.623 123.81C118.45 123.633 118.216 123.533 117.971 123.533C117.726 123.533 117.491 123.633 117.318 123.81C117.145 123.988 117.048 124.228 117.048 124.479V125.973H115.128V124.479C115.128 124.228 115.031 123.988 114.858 123.81C114.685 123.633 114.45 123.533 114.205 123.533C113.96 123.533 113.726 123.633 113.553 123.81C113.38 123.988 113.282 124.228 113.282 124.479V129.189C113.282 129.44 113.38 129.68 113.553 129.858C113.726 130.035 113.96 130.135 114.205 130.135C114.45 130.135 114.685 130.035 114.858 129.858C115.031 129.68 115.128 129.44 115.128 129.189V127.543H117.085V129.189C117.082 129.309 117.103 129.428 117.149 129.539C117.194 129.65 117.261 129.749 117.347 129.832C117.432 129.914 117.533 129.977 117.644 130.016C117.755 130.055 117.873 130.07 117.989 130.059Z" fill="#06A5AA"/>
<path d="M124.634 130.059C124.75 130.067 124.865 130.05 124.974 130.01C125.082 129.969 125.181 129.906 125.265 129.824C125.348 129.742 125.414 129.643 125.458 129.534C125.502 129.425 125.523 129.307 125.52 129.189V124.479C125.52 124.228 125.423 123.988 125.25 123.81C125.077 123.633 124.842 123.533 124.597 123.533C124.353 123.533 124.118 123.633 123.945 123.81C123.772 123.988 123.675 124.228 123.675 124.479V125.973H121.829V124.479C121.829 124.228 121.731 123.988 121.558 123.81C121.385 123.633 121.151 123.533 120.906 123.533C120.661 123.533 120.426 123.633 120.253 123.81C120.08 123.988 119.983 124.228 119.983 124.479V129.189C119.983 129.44 120.08 129.68 120.253 129.858C120.426 130.035 120.661 130.135 120.906 130.135C121.151 130.135 121.385 130.035 121.558 129.858C121.731 129.68 121.829 129.44 121.829 129.189V127.543H123.675V129.189C123.67 129.314 123.693 129.439 123.742 129.554C123.79 129.67 123.863 129.772 123.954 129.856C124.046 129.939 124.155 130 124.272 130.035C124.39 130.07 124.513 130.078 124.634 130.059Z" fill="#06A5AA"/>
<path d="M131.852 125.992C131.662 125.315 131.362 124.676 130.966 124.101C130.795 123.913 130.585 123.767 130.352 123.672C130.119 123.577 129.868 123.536 129.618 123.552C129.41 123.522 129.199 123.522 128.991 123.552C128.77 123.625 128.566 123.742 128.391 123.899C128.217 124.055 128.075 124.246 127.975 124.46C127.626 125.2 127.33 125.965 127.089 126.749L126.388 128.829C126.345 128.939 126.326 129.058 126.333 129.176C126.339 129.294 126.371 129.41 126.425 129.514C126.48 129.619 126.556 129.71 126.648 129.781C126.741 129.852 126.847 129.902 126.96 129.926C127.071 129.971 127.19 129.993 127.31 129.99C127.43 129.986 127.547 129.958 127.656 129.907C127.765 129.855 127.862 129.782 127.942 129.691C128.023 129.6 128.084 129.494 128.123 129.378L128.363 128.678H130.855L131.113 129.378C131.152 129.494 131.214 129.6 131.294 129.691C131.375 129.782 131.472 129.855 131.581 129.907C131.689 129.958 131.807 129.986 131.926 129.99C132.046 129.993 132.165 129.971 132.276 129.926C132.389 129.902 132.496 129.852 132.588 129.781C132.681 129.71 132.757 129.619 132.811 129.514C132.866 129.41 132.897 129.294 132.904 129.176C132.91 129.058 132.891 128.939 132.849 128.829L132.147 126.749C131.999 126.446 131.907 126.162 131.852 125.992ZM128.861 127.392L129.618 125.311L130.375 127.392H128.861Z" fill="#06A5AA"/>
<path d="M137.98 130.059C138.097 130.07 138.214 130.055 138.325 130.016C138.436 129.977 138.537 129.914 138.623 129.832C138.708 129.749 138.776 129.65 138.821 129.539C138.866 129.428 138.888 129.309 138.885 129.189V124.479C138.888 124.359 138.866 124.24 138.821 124.129C138.776 124.018 138.708 123.918 138.623 123.836C138.537 123.754 138.436 123.691 138.325 123.652C138.214 123.613 138.097 123.598 137.98 123.609H135.507C135.22 123.599 134.935 123.65 134.668 123.757C134.402 123.864 134.159 124.026 133.956 124.233C133.719 124.497 133.539 124.809 133.427 125.148C133.316 125.488 133.275 125.848 133.308 126.205C133.341 126.562 133.447 126.907 133.619 127.219C133.791 127.531 134.026 127.803 134.307 128.016L133.716 128.962C133.652 129.046 133.607 129.146 133.587 129.251C133.567 129.356 133.572 129.465 133.601 129.569C133.629 129.672 133.682 129.767 133.753 129.845C133.824 129.924 133.913 129.984 134.011 130.021C134.111 130.088 134.222 130.135 134.339 130.158C134.456 130.181 134.576 130.18 134.693 130.156C134.809 130.131 134.92 130.083 135.019 130.015C135.117 129.946 135.201 129.858 135.267 129.756L136.153 128.357H137.057V129.283C137.066 129.397 137.098 129.508 137.149 129.609C137.201 129.71 137.272 129.799 137.358 129.871C137.444 129.944 137.544 129.998 137.651 130.03C137.757 130.062 137.869 130.072 137.98 130.059ZM136.134 126.711C136.031 126.725 135.927 126.716 135.828 126.684C135.729 126.651 135.639 126.597 135.563 126.525C135.487 126.453 135.428 126.364 135.389 126.265C135.351 126.167 135.334 126.06 135.34 125.954C135.337 125.849 135.356 125.745 135.396 125.648C135.435 125.55 135.495 125.463 135.57 125.391C135.645 125.32 135.734 125.265 135.832 125.232C135.929 125.199 136.032 125.187 136.134 125.198H137.131V126.73L136.134 126.711Z" fill="#06A5AA"/>
<path d="M130.892 96.5611L81.8286 105.924C79.1152 106.435 80.278 110.671 82.973 110.142L132.036 100.836C134.75 100.249 133.587 96.0504 130.892 96.5611Z" fill="#06A5AA"/>
<path d="M74.3528 127.6C75.1281 115.495 75.9033 103.408 76.5863 91.3029C78.2476 90.3193 79.9273 89.4114 81.6071 88.4657C80.9592 91.3697 81.2776 94.4124 82.5116 97.1096C85.1327 102.538 90.9657 99.4172 93.9006 96.2774C95.7465 94.2346 92.7931 91.1326 90.8734 93.1754C88.9537 95.2182 86.6463 97.1853 85.7418 93.4591C85.4842 91.898 85.5481 90.2989 85.9296 88.7646C86.3111 87.2303 87.0016 85.7948 87.9569 84.5504C89.2675 82.6589 86.7755 80.5216 85.0219 81.5429C82.3454 83.1318 79.5951 84.5693 76.8816 86.0824C76.8816 85.5907 76.8816 85.08 76.8816 84.5882C77.0293 81.7699 72.7653 81.7699 72.5992 84.5882C72.5992 85.969 72.4515 87.3308 72.3593 88.7116L71.8239 89.052C71.4951 89.2752 71.2305 89.5844 71.0572 89.9475C70.884 90.3106 70.8086 90.7145 70.8387 91.1175C70.8688 91.5205 71.0034 91.9079 71.2285 92.2398C71.4536 92.5716 71.7612 92.8358 72.1193 93.0052C71.4548 104.543 70.7164 116.062 69.9781 127.6C69.8858 130.513 74.1682 130.399 74.3528 127.6Z" fill="#06A5AA"/>
<path d="M47.9937 90.1491C48.1598 87.7091 45.0034 87.4065 44.0066 89.1466C40.8043 89.1913 37.7088 90.333 35.2132 92.3897C32.7176 94.4465 30.9656 97.2999 30.2364 100.495C29.9442 101.54 29.8908 102.639 30.0803 103.708C30.2698 104.778 30.6971 105.788 31.3291 106.66C31.961 107.533 32.7806 108.244 33.7244 108.74C34.6681 109.235 35.7105 109.502 36.7708 109.518C38.2968 109.533 39.8045 109.176 41.1689 108.476C42.5332 107.775 43.7148 106.751 44.6158 105.489L44.9296 105.81C48.1045 108.893 52.3131 107.021 54.1589 103.786C54.9723 104.522 55.9517 105.039 57.0087 105.29C58.0657 105.541 59.1671 105.518 60.2134 105.224C67.8738 103.541 68.6306 95.029 68.8706 88.4657C69.0585 86.5565 68.5738 84.6415 67.504 83.0666C66.4342 81.4917 64.85 80.3609 63.0376 79.8784C75.5711 72.3126 88.6214 65.6736 101.432 58.5995C103.868 57.2566 101.709 53.4737 99.2721 54.8166C84.9112 62.7229 70.1442 69.9861 56.1894 78.9327C55.8003 79.1824 55.4989 79.5527 55.3291 79.9899C55.1593 80.427 55.1299 80.9082 55.2451 81.3636C55.3604 81.8191 55.6142 82.225 55.9699 82.5226C56.3256 82.8201 56.7646 82.9937 57.2231 83.0183C59.9919 83.2831 62.5577 83.6046 63.7759 85.3826C58.0537 86.7444 52.9776 90.9056 52.2023 97.1664C52.0722 98.0757 52.0722 98.9996 52.2023 99.909C51.8422 99.9872 51.5068 100.156 51.2264 100.401C50.946 100.645 50.7295 100.957 50.5964 101.309C50.0242 102.784 47.4584 103.805 47.2369 101.536C47.2005 99.7714 47.2993 98.0069 47.5322 96.2585C47.7168 94.2157 47.8276 92.1729 47.9937 90.1491ZM43.2498 98.0175C43.1535 98.2397 43.0913 98.4758 43.0652 98.7174C42.7883 101.573 38.4136 107.361 35.1095 104.6C32.9498 102.708 35.2387 98.4526 36.5308 96.9205C38.3797 94.9718 40.8628 93.7871 43.5082 93.5915C43.3975 95.0669 43.299 96.5422 43.2129 98.0175H43.2498ZM56.6878 96.7881C57.5738 92.8538 61.0625 90.6408 64.625 89.6951C64.625 93.9698 64.1082 99.1524 59.7519 100.722C56.6693 101.895 56.0417 99.3983 56.6509 96.7881H56.6878Z" fill="#06A5AA"/>
<path d="M182.318 86.4607L177.205 87.4443C177.33 70.3091 172.486 53.5219 163.287 39.2121C146.305 13.0343 115.719 -1.45429 85.4096 0.115624C58.0168 1.53422 29.6826 15.5878 12.6268 37.8313C4.15419 48.8207 -1.73415 63.3849 0.462437 77.5519C2.08681 88.0684 9.85794 95.1614 19.8257 94.5751L19.1796 105.735C18.9212 110.255 18.2382 117.083 13.8081 118.975L10.9101 119.58C10.4075 119.719 9.97152 120.041 9.68359 120.485C9.39566 120.929 9.27552 121.466 9.34564 121.994C9.41576 122.523 9.67135 123.007 10.0646 123.356C10.4578 123.706 10.9618 123.896 11.4823 123.893C12.6411 123.839 13.7858 123.61 14.8787 123.212C32.1376 119.561 49.4889 116.421 66.8032 113.111C69.5166 112.601 68.3537 108.364 65.6587 108.893C50.7256 111.75 35.7556 114.568 20.8593 117.518C24.1819 111.012 23.9973 100.817 24.1819 93.932C36.4939 90.6219 45.834 76.9088 39.7057 64.1982C37.1769 58.9589 31.7869 56.5 26.3416 55.9515L26.5816 51.7903C26.7477 48.972 22.4653 48.9909 22.2991 51.7903L22.0592 55.8947C13.9558 56.5189 8.14127 62.8364 6.16619 70.6103C6.00219 71.1696 6.06174 71.7728 6.33176 72.2871C6.60177 72.8015 7.06012 73.1848 7.60597 73.3529C8.15183 73.5209 8.74047 73.4599 9.24242 73.1832C9.74436 72.9066 10.1185 72.4369 10.2825 71.8776C11.8146 65.8627 15.8201 61.3421 21.8007 60.5288L20.3056 87.6523L20.1579 90.2814C18.0266 90.5684 15.8591 90.313 13.8469 89.5378C11.8348 88.7625 10.04 87.4913 8.6212 85.8365C4.43107 81.1457 3.91422 74.0149 4.39415 68.0946C5.57551 53.5304 14.528 40.5928 24.6988 30.9653C46.8493 10.1593 79.1152 -0.111352 108.612 6.37635C123.099 9.5603 136.472 16.7134 147.303 27.073C158.135 37.4326 166.02 50.6102 170.117 65.2007C172.135 72.7055 173.056 80.4758 172.849 88.2576L148.631 92.8538C148.27 92.9477 147.941 93.1395 147.678 93.4092C147.414 93.6788 147.227 94.0163 147.136 94.3859L146.25 101.082L133.162 78.857C135.008 77.7222 137.039 76.5873 138.995 75.4902C141.413 74.1284 139.254 70.3455 136.836 71.7073C133.679 73.4664 130.578 75.32 127.477 77.1736L127.588 74.7715C127.581 74.3893 127.478 74.0154 127.288 73.6864C127.098 73.3573 126.828 73.0842 126.505 72.8937C126.181 72.7033 125.815 72.6019 125.442 72.5995C125.069 72.5971 124.702 72.6937 124.376 72.88L118.137 76.3792C115.719 77.7411 117.879 81.524 120.297 80.1621L123.139 78.5733C122.955 82.6778 122.789 86.7822 122.549 90.8678C122.401 93.6861 126.665 93.6861 126.831 90.8678C126.997 88.0495 127.126 85.1934 127.256 82.3941L129.471 81.07L145.696 108.629C146.563 110.085 149.388 110.104 149.609 108.099L151.104 96.7502L172.627 92.6836C172.275 97.1479 171.572 101.576 170.523 105.924C166.735 120.599 159.308 134.022 148.963 144.888C139.504 155.307 127.83 163.354 114.846 168.406C101.863 173.457 87.9186 175.377 74.0944 174.016C70.7946 173.658 67.5207 173.083 64.2928 172.295C64.5796 171.156 64.5899 169.962 64.3228 168.818C64.0558 167.674 63.5195 166.615 62.7607 165.732C61.3763 164.143 58.7921 163.557 56.9277 162.819L32.9314 153.172L32.1746 152.87C33.6328 147.99 26.6369 145.304 23.8866 148.973C23.2221 149.825 22.6868 150.865 22.0407 151.678C21.3501 152.567 20.779 153.547 20.3425 154.591C20.0556 155.566 20.0769 156.608 20.4034 157.569C20.7298 158.531 21.3447 159.362 22.16 159.943C22.9753 160.524 23.9493 160.827 24.9424 160.806C25.9355 160.786 26.897 160.445 27.6891 159.83L27.9106 159.982C28.8889 160.549 27.5968 159.736 28.6305 160.398L30.2179 161.438C32.0638 162.686 33.9097 163.973 35.7556 165.221C39.9826 168.191 44.1912 171.179 48.3998 174.149C51.0394 176.04 55.008 179.823 58.4229 178.84C59.9509 178.396 61.3141 177.494 62.3362 176.248C78.4099 180.223 95.2363 179.642 111.012 174.565C124.621 170.056 137.102 162.551 147.581 152.575C158.059 142.599 166.28 130.395 171.667 116.819C174.707 108.852 176.507 100.447 177.002 91.9081L183.462 90.6787C186.157 90.168 185.013 85.95 182.318 86.4607ZM26.0832 60.264C28.1871 60.3645 30.2289 61.0265 32.0064 62.1843C33.7839 63.3422 35.2353 64.9557 36.217 66.8652C40.8317 76.3225 32.8575 86.1013 24.4034 89.2411L26.0832 60.264ZM27.929 151.981C27.7075 152.397 27.4122 152.775 27.1722 153.172L25.3264 155.915C24.9572 156.218 24.1081 156.501 24.4403 155.915C24.6065 155.594 24.8464 155.291 25.0495 154.969L27.1538 151.678C27.1538 151.678 28.3167 151.319 28.0213 151.981H27.929ZM56.6509 174.432C55.4909 173.936 54.4087 173.266 53.439 172.446C50.338 170.29 47.2554 168.077 44.2097 165.883C41.164 163.689 37.5461 161.211 34.2235 158.885L32.0823 157.428L55.894 166.999L59.6043 168.569C59.6881 168.695 59.7873 168.809 59.8996 168.909C61.5978 170.555 58.7921 175.038 56.6509 174.432Z" fill="#06A5AA"/>
</svg>
