<svg width="60" height="60" viewBox="0 0 60 60" fill="none" xmlns="http://www.w3.org/2000/svg">
<path d="M28.9229 14.25C29.8561 14.2501 30.794 14.4307 31.5205 14.9248C32.2884 15.4472 32.7441 16.2707 32.7441 17.3467C32.7441 18.2666 32.402 19.1488 31.792 19.833C34.9596 20.3144 37.9684 21.5817 40.5234 23.5371C43.8407 26.0759 46.2049 29.6302 47.2393 33.6396C47.3426 34.0407 47.1012 34.4492 46.7002 34.5527C46.2993 34.6561 45.8908 34.4154 45.7871 34.0146C44.8375 30.3337 42.665 27.0656 39.6113 24.7285C36.5575 22.3914 32.7965 21.1187 28.9219 21.1143C25.0464 21.1145 21.2829 22.385 18.2285 24.7227C15.1742 27.0602 13.0042 30.3309 12.0586 34.0137L11.4639 36.5586H49.1514C49.5819 36.5079 50.0187 36.5429 50.4355 36.6631C50.8726 36.7892 51.2781 37.0059 51.625 37.2988C51.9719 37.5918 52.252 37.9548 52.4463 38.3643C52.6406 38.7738 52.7446 39.2201 52.75 39.6729C52.7503 39.696 52.749 39.7191 52.7471 39.7422C52.6785 40.5821 52.2899 41.3632 51.6631 41.9297C51.0374 42.495 50.2202 42.8047 49.375 42.8027V42.8037H48.2441C48.3234 43.07 48.3646 43.3469 48.3652 43.626C48.3653 43.6468 48.365 43.6677 48.3633 43.6885C48.2946 44.5281 47.9059 45.3086 47.2793 45.875C46.6535 46.4406 45.8357 46.7511 44.9902 46.749V46.75H14.0098V46.749C13.1643 46.7511 12.3465 46.4406 11.7207 45.875C11.0942 45.3086 10.7054 44.5282 10.6367 43.6885C10.6349 43.6658 10.6345 43.6429 10.6348 43.6201C10.6375 43.3411 10.6807 43.0669 10.7578 42.8037H9.625V42.8027C8.77981 42.8047 7.96261 42.495 7.33691 41.9297C6.7101 41.3632 6.32154 40.5821 6.25293 39.7422C6.25089 39.7172 6.24952 39.6921 6.25 39.667C6.25843 39.2363 6.35554 38.8118 6.53516 38.4199C6.71477 38.0281 6.97351 37.6773 7.29395 37.3877C7.6142 37.0983 7.98979 36.8754 8.39844 36.7334C8.79273 36.5965 9.21023 36.5382 9.62695 36.5586H9.92383L10.6016 33.6562L10.6055 33.6406C11.6356 29.6287 13.999 26.0719 17.3174 23.5322C19.8725 21.5767 22.8818 20.3093 26.0498 19.8301C25.4416 19.1464 25.1006 18.2652 25.1006 17.3467C25.1007 16.2705 25.5571 15.4472 26.3252 14.9248C27.0518 14.4307 27.9896 14.25 28.9229 14.25ZM49.293 38.0518C49.2592 38.0564 49.2245 38.0586 49.1904 38.0586H9.625C9.60944 38.0586 9.59365 38.0586 9.57812 38.0576C9.34464 38.0429 9.11052 38.074 8.89062 38.1504C8.67092 38.2267 8.47009 38.3462 8.2998 38.5C8.12965 38.6538 7.99358 38.8396 7.89941 39.0449C7.81029 39.2393 7.76077 39.4483 7.75195 39.6602C7.79792 40.1005 8.00632 40.5123 8.34277 40.8164C8.68977 41.1299 9.14672 41.3052 9.62305 41.3037H12.041C12.0703 41.3037 12.0993 41.3072 12.1279 41.3105C12.1593 41.3065 12.1912 41.3037 12.2236 41.3037H23.6455C24.0595 41.3038 24.3953 41.6397 24.3955 42.0537C24.3955 42.4678 24.0596 42.8036 23.6455 42.8037H12.3936C12.2342 43.041 12.1448 43.3169 12.1357 43.6016C12.1807 44.0435 12.3889 44.4575 12.7266 44.7627C13.0736 45.0763 13.5314 45.2515 14.0078 45.25H44.9922C45.4686 45.2515 45.9264 45.0763 46.2734 44.7627C46.6118 44.4569 46.8189 44.0418 46.8633 43.5986C46.859 43.4178 46.8217 43.2388 46.749 43.0713C46.7081 42.9769 46.6561 42.8874 46.5957 42.8037H43.5195C43.1055 42.8035 42.7695 42.4678 42.7695 42.0537C42.7697 41.6398 43.1056 41.3039 43.5195 41.3037H49.377C49.8533 41.3052 50.3102 41.1299 50.6572 40.8164C50.9942 40.5119 51.2015 40.0993 51.2471 39.6582C51.24 39.4334 51.189 39.2117 51.0918 39.0068C50.9899 38.7922 50.8419 38.6003 50.6572 38.4443C50.4726 38.2884 50.255 38.1724 50.0195 38.1045C49.7841 38.0366 49.5363 38.0184 49.293 38.0518ZM30.9463 23.8711C30.9647 23.872 30.9902 23.8738 31.0215 23.876C31.0841 23.8802 31.1719 23.8878 31.2822 23.9004C31.5031 23.9257 31.8152 23.9715 32.1982 24.0566C32.9643 24.2269 34.0178 24.5524 35.1963 25.1748C37.5653 26.4261 40.3975 28.855 42.4229 33.5283C42.5875 33.9082 42.4129 34.3498 42.0332 34.5146C41.6532 34.6793 41.2106 34.505 41.0459 34.125C39.1595 29.7724 36.5704 27.5977 34.4961 26.502C33.453 25.951 32.5287 25.6672 31.873 25.5215C31.5453 25.4487 31.2848 25.4105 31.1113 25.3906C31.0248 25.3807 30.9597 25.3748 30.9189 25.3721C30.8991 25.3707 30.885 25.3705 30.877 25.3701C30.873 25.3699 30.8699 25.3692 30.8691 25.3691H30.8711C30.4576 25.3578 30.131 25.0142 30.1416 24.6006C30.1524 24.1865 30.4971 23.8594 30.9111 23.8701L30.8936 24.5361C30.9103 23.8935 30.9116 23.8709 30.9121 23.8701H30.9238C30.9297 23.8703 30.9372 23.8707 30.9463 23.8711ZM28.9229 15.75C28.1498 15.75 27.5506 15.9048 27.168 16.165C26.8272 16.3969 26.6006 16.747 26.6006 17.3467C26.6006 17.9437 26.8424 18.519 27.2764 18.9453C27.6564 19.3186 28.1569 19.5513 28.6914 19.6035L28.9229 19.6143L29.1533 19.6035C29.688 19.5514 30.1892 19.3187 30.5693 18.9453C31.0031 18.519 31.2441 17.9435 31.2441 17.3467C31.2441 16.7469 31.0176 16.3969 30.6768 16.165C30.2942 15.9049 29.6958 15.7501 28.9229 15.75Z" fill="#F8F8F8"/>
</svg>
